  0
SECTION
  2
HEADER
  9
$ACADVER
  1
AC1024
  9
$ACADMAINTVER
 70
     6
  9
$DWGCODEPAGE
  3
ANSI_1252
  9
$INSBASE
 10
0.0
 20
0.0
 30
0.0
  9
$EXTMIN
 10
1.000000000000000E+20
 20
1.000000000000000E+20
 30
1.000000000000000E+20
  9
$EXTMAX
 10
-1.000000000000000E+20
 20
-1.000000000000000E+20
 30
-1.000000000000000E+20
  9
$LIMMIN
 10
0.0
 20
0.0
  9
$LIMMAX
 10
12.0
 20
9.0
  9
$ORTHOMODE
 70
     0
  9
$REGENMODE
 70
     1
  9
$FILLMODE
 70
     1
  9
$QTEXTMODE
 70
     0
  9
$MIRRTEXT
 70
     1
  9
$LTSCALE
 40
1.0
  9
$ATTMODE
 70
     1
  9
$TEXTSIZE
 40
0.2
  9
$TRACEWID
 40
0.05
  9
$TEXTSTYLE
  7
Standard
  9
$CLAYER
  8
0
  9
$CELTYPE
  6
ByLayer
  9
$CECOLOR
 62
   256
  9
$CELTSCALE
 40
1.0
  9
$DISPSILH
 70
     0
  9
$DIMSCALE
 40
1.0
  9
$DIMASZ
 40
0.18
  9
$DIMEXO
 40
0.0625
  9
$DIMDLI
 40
0.38
  9
$DIMRND
 40
0.0
  9
$DIMDLE
 40
0.0
  9
$DIMEXE
 40
0.18
  9
$DIMTP
 40
0.0
  9
$DIMTM
 40
0.0
  9
$DIMTXT
 40
0.18
  9
$DIMCEN
 40
0.09
  9
$DIMTSZ
 40
0.0
  9
$DIMTOL
 70
     0
  9
$DIMLIM
 70
     0
  9
$DIMTIH
 70
     1
  9
$DIMTOH
 70
     1
  9
$DIMSE1
 70
     0
  9
$DIMSE2
 70
     0
  9
$DIMTAD
 70
     0
  9
$DIMZIN
 70
     0
  9
$DIMBLK
  1

  9
$DIMASO
 70
     1
  9
$DIMSHO
 70
     1
  9
$DIMPOST
  1

  9
$DIMAPOST
  1

  9
$DIMALT
 70
     0
  9
$DIMALTD
 70
     2
  9
$DIMALTF
 40
25.4
  9
$DIMLFAC
 40
1.0
  9
$DIMTOFL
 70
     0
  9
$DIMTVP
 40
0.0
  9
$DIMTIX
 70
     0
  9
$DIMSOXD
 70
     0
  9
$DIMSAH
 70
     0
  9
$DIMBLK1
  1

  9
$DIMBLK2
  1

  9
$DIMSTYLE
  2
Standard
  9
$DIMCLRD
 70
     0
  9
$DIMCLRE
 70
     0
  9
$DIMCLRT
 70
     0
  9
$DIMTFAC
 40
1.0
  9
$DIMGAP
 40
0.09
  9
$DIMJUST
 70
     0
  9
$DIMSD1
 70
     0
  9
$DIMSD2
 70
     0
  9
$DIMTOLJ
 70
     1
  9
$DIMTZIN
 70
     0
  9
$DIMALTZ
 70
     0
  9
$DIMALTTZ
 70
     0
  9
$DIMUPT
 70
     0
  9
$DIMDEC
 70
     4
  9
$DIMTDEC
 70
     4
  9
$DIMALTU
 70
     2
  9
$DIMALTTD
 70
     2
  9
$DIMTXSTY
  7
Standard
  9
$DIMAUNIT
 70
     0
  9
$DIMADEC
 70
     0
  9
$DIMALTRND
 40
0.0
  9
$DIMAZIN
 70
     0
  9
$DIMDSEP
 70
    46
  9
$DIMATFIT
 70
     3
  9
$DIMFRAC
 70
     0
  9
$DIMLDRBLK
  1

  9
$DIMLUNIT
 70
     2
  9
$DIMLWD
 70
    -2
  9
$DIMLWE
 70
    -2
  9
$DIMTMOVE
 70
     0
  9
$DIMFXL
 40
1.0
  9
$DIMFXLON
 70
     0
  9
$DIMJOGANG
 40
0.7853981633974483
  9
$DIMTFILL
 70
     0
  9
$DIMTFILLCLR
 70
     0
  9
$DIMARCSYM
 70
     0
  9
$DIMLTYPE
  6

  9
$DIMLTEX1
  6

  9
$DIMLTEX2
  6

  9
$DIMTXTDIRECTION
 70
     0
  9
$LUNITS
 70
     2
  9
$LUPREC
 70
     4
  9
$SKETCHINC
 40
0.1
  9
$FILLETRAD
 40
0.5
  9
$AUNITS
 70
     0
  9
$AUPREC
 70
     0
  9
$MENU
  1
.
  9
$ELEVATION
 40
0.0
  9
$PELEVATION
 40
0.0
  9
$THICKNESS
 40
0.0
  9
$LIMCHECK
 70
     0
  9
$CHAMFERA
 40
0.5
  9
$CHAMFERB
 40
0.5
  9
$CHAMFERC
 40
1.0
  9
$CHAMFERD
 40
0.0
  9
$SKPOLY
 70
     0
  9
$TDCREATE
 40
2459182.551789525
  9
$TDUCREATE
 40
2459182.551789525
  9
$TDUPDATE
 40
2459182.551789572
  9
$TDUUPDATE
 40
2459182.551789572
  9
$TDINDWG
 40
0.0000000116
  9
$TDUSRTIMER
 40
0.0000000116
  9
$USRTIMER
 70
     1
  9
$ANGBASE
 50
0.0
  9
$ANGDIR
 70
     0
  9
$PDMODE
 70
     0
  9
$PDSIZE
 40
0.0
  9
$PLINEWID
 40
0.0
  9
$SPLFRAME
 70
     0
  9
$SPLINETYPE
 70
     6
  9
$SPLINESEGS
 70
     8
  9
$HANDSEED
  5
57
  9
$SURFTAB1
 70
     6
  9
$SURFTAB2
 70
     6
  9
$SURFTYPE
 70
     6
  9
$SURFU
 70
     6
  9
$SURFV
 70
     6
  9
$UCSBASE
  2

  9
$UCSNAME
  2

  9
$UCSORG
 10
0.0
 20
0.0
 30
0.0
  9
$UCSXDIR
 10
1.0
 20
0.0
 30
0.0
  9
$UCSYDIR
 10
0.0
 20
1.0
 30
0.0
  9
$UCSORTHOREF
  2

  9
$UCSORTHOVIEW
 70
     0
  9
$UCSORGTOP
 10
0.0
 20
0.0
 30
0.0
  9
$UCSORGBOTTOM
 10
0.0
 20
0.0
 30
0.0
  9
$UCSORGLEFT
 10
0.0
 20
0.0
 30
0.0
  9
$UCSORGRIGHT
 10
0.0
 20
0.0
 30
0.0
  9
$UCSORGFRONT
 10
0.0
 20
0.0
 30
0.0
  9
$UCSORGBACK
 10
0.0
 20
0.0
 30
0.0
  9
$PUCSBASE
  2

  9
$PUCSNAME
  2

  9
$PUCSORG
 10
0.0
 20
0.0
 30
0.0
  9
$PUCSXDIR
 10
1.0
 20
0.0
 30
0.0
  9
$PUCSYDIR
 10
0.0
 20
1.0
 30
0.0
  9
$PUCSORTHOREF
  2

  9
$PUCSORTHOVIEW
 70
     0
  9
$PUCSORGTOP
 10
0.0
 20
0.0
 30
0.0
  9
$PUCSORGBOTTOM
 10
0.0
 20
0.0
 30
0.0
  9
$PUCSORGLEFT
 10
0.0
 20
0.0
 30
0.0
  9
$PUCSORGRIGHT
 10
0.0
 20
0.0
 30
0.0
  9
$PUCSORGFRONT
 10
0.0
 20
0.0
 30
0.0
  9
$PUCSORGBACK
 10
0.0
 20
0.0
 30
0.0
  9
$USERI1
 70
     0
  9
$USERI2
 70
     0
  9
$USERI3
 70
     0
  9
$USERI4
 70
     0
  9
$USERI5
 70
     0
  9
$USERR1
 40
0.0
  9
$USERR2
 40
0.0
  9
$USERR3
 40
0.0
  9
$USERR4
 40
0.0
  9
$USERR5
 40
0.0
  9
$WORLDVIEW
 70
     1
  9
$SHADEDGE
 70
     3
  9
$SHADEDIF
 70
    70
  9
$TILEMODE
 70
     1
  9
$MAXACTVP
 70
    64
  9
$PINSBASE
 10
0.0
 20
0.0
 30
0.0
  9
$PLIMCHECK
 70
     0
  9
$PEXTMIN
 10
1.000000000000000E+20
 20
1.000000000000000E+20
 30
1.000000000000000E+20
  9
$PEXTMAX
 10
-1.000000000000000E+20
 20
-1.000000000000000E+20
 30
-1.000000000000000E+20
  9
$PLIMMIN
 10
0.0
 20
0.0
  9
$PLIMMAX
 10
12.0
 20
9.0
  9
$UNITMODE
 70
     0
  9
$VISRETAIN
 70
     1
  9
$PLINEGEN
 70
     0
  9
$PSLTSCALE
 70
     1
  9
$TREEDEPTH
 70
  3020
  9
$CMLSTYLE
  2
Standard
  9
$CMLJUST
 70
     0
  9
$CMLSCALE
 40
1.0
  9
$PROXYGRAPHICS
 70
     1
  9
$MEASUREMENT
 70
     0
  9
$CELWEIGHT
370
    -1
  9
$ENDCAPS
280
     0
  9
$JOINSTYLE
280
     0
  9
$LWDISPLAY
290
     1
  9
$INSUNITS
 70
     1
  9
$HYPERLINKBASE
  1

  9
$STYLESHEET
  1

  9
$XEDIT
290
     1
  9
$CEPSNTYPE
380
     0
  9
$PSTYLEMODE
290
     1
  9
$FINGERPRINTGUID
  2
{08ECCF93-0D87-46F1-9534-7F684C4F0541}
  9
$VERSIONGUID
  2
{FAEB1C32-E019-11D5-929B-00C0DF256EC4}
  9
$EXTNAMES
290
     1
  9
$PSVPSCALE
 40
0.0
  9
$OLESTARTUP
290
     0
  9
$SORTENTS
280
   127
  9
$INDEXCTL
280
     0
  9
$HIDETEXT
280
     1
  9
$XCLIPFRAME
280
     2
  9
$HALOGAP
280
     0
  9
$OBSCOLOR
 70
   257
  9
$OBSLTYPE
280
     0
  9
$INTERSECTIONDISPLAY
280
     0
  9
$INTERSECTIONCOLOR
 70
   257
  9
$DIMASSOC
280
     2
  9
$PROJECTNAME
  1

  9
$CAMERADISPLAY
290
     0
  9
$LENSLENGTH
 40
50.0
  9
$CAMERAHEIGHT
 40
0.0
  9
$STEPSPERSEC
 40
2.0
  9
$STEPSIZE
 40
6.0
  9
$3DDWFPREC
 40
2.0
  9
$PSOLWIDTH
 40
0.25
  9
$PSOLHEIGHT
 40
4.0
  9
$LOFTANG1
 40
1.570796326794897
  9
$LOFTANG2
 40
1.570796326794897
  9
$LOFTMAG1
 40
0.0
  9
$LOFTMAG2
 40
0.0
  9
$LOFTPARAM
 70
     7
  9
$LOFTNORMALS
280
     1
  9
$LATITUDE
 40
37.795
  9
$LONGITUDE
 40
-122.394
  9
$NORTHDIRECTION
 40
0.0
  9
$TIMEZONE
 70
 -8000
  9
$LIGHTGLYPHDISPLAY
280
     1
  9
$TILEMODELIGHTSYNCH
280
     1
  9
$CMATERIAL
347
3C
  9
$SOLIDHIST
280
     1
  9
$SHOWHIST
280
     1
  9
$DWFFRAME
280
     2
  9
$DGNFRAME
280
     2
  9
$REALWORLDSCALE
290
     1
  9
$INTERFERECOLOR
 62
   256
  9
$CSHADOW
280
     0
  9
$SHADOWPLANELOCATION
 40
0.0
  0
ENDSEC
  0
SECTION
  2
CLASSES
  0
CLASS
  1
ACDBDICTIONARYWDFLT
  2
AcDbDictionaryWithDefault
  3
ObjectDBX Classes
 90
        0
 91
        4
280
     0
281
     0
  0
CLASS
  1
VISUALSTYLE
  2
AcDbVisualStyle
  3
ObjectDBX Classes
 90
     4095
 91
        4
280
     0
281
     0
  0
CLASS
  1
MATERIAL
  2
AcDbMaterial
  3
ObjectDBX Classes
 90
     1153
 91
        4
280
     0
281
     0
  0
CLASS
  1
SUN
  2
AcDbSun
  3
SCENEOE
 90
     1024
 91
        4
280
     0
281
     0
  0
ENDSEC
  0
SECTION
  2
TABLES
  0
TABLE
  2
VPORT
  5
8
330
0
100
AcDbSymbolTable
 70
     1
  0
VPORT
  5
29
330
8
100
AcDbSymbolTableRecord
100
AcDbViewportTableRecord
  2
*Active
 70
     0
 10
0.0
 20
0.0
 11
1.0
 21
1.0
 12
0.0
 22
0.0
 13
0.0
 23
0.0
 14
0.5
 24
0.5
 15
0.5
 25
0.5
 16
0.0
 26
0.0
 36
1.0
 17
6.0
 27
6.0
 37
0.0
 40
12.0
 41
1.0
 42
50.0
 43
0.0
 44
0.0
 50
0.0
 51
0.0
 71
     0
 72
   100
 73
     1
 74
     3
 75
     0
 76
     0
 77
     0
 78
     0
281
     0
 65
     1
110
0.0
120
0.0
130
0.0
111
1.0
121
0.0
131
0.0
112
0.0
122
1.0
132
0.0
 79
     0
146
0.0
 60
     3
 61
     5
292
     1
282
     1
141
0.0
142
0.0
 63
   250
361
3F
  0
ENDTAB
  0
TABLE
  2
LTYPE
  5
5
330
0
100
AcDbSymbolTable
 70
     1
  0
LTYPE
  5
14
330
5
100
AcDbSymbolTableRecord
100
AcDbLinetypeTableRecord
  2
ByBlock
 70
     0
  3

 72
    65
 73
     0
 40
0.0
  0
LTYPE
  5
15
330
5
100
AcDbSymbolTableRecord
100
AcDbLinetypeTableRecord
  2
ByLayer
 70
     0
  3

 72
    65
 73
     0
 40
0.0
  0
LTYPE
  5
16
330
5
100
AcDbSymbolTableRecord
100
AcDbLinetypeTableRecord
  2
Continuous
 70
     0
  3
Solid line
 72
    65
 73
     0
 40
0.0
  0
ENDTAB
  0
TABLE
  2
LAYER
  5
2
330
0
100
AcDbSymbolTable
 70
     2
  0
LAYER
  5
10
330
2
100
AcDbSymbolTableRecord
100
AcDbLayerTableRecord
  2
0
 70
     0
 62
     7
  6
Continuous
370
    -3
390
F
347
3E
  0
LAYER
  5
40
330
2
100
AcDbSymbolTableRecord
100
AcDbLayerTableRecord
  2
Layer 1
 70
     0
 62
     7
  6
Continuous
370
    -3
390
F
347
3E
  0
ENDTAB
  0
TABLE
  2
STYLE
  5
3
330
0
100
AcDbSymbolTable
 70
     1
  0
STYLE
  5
11
330
3
100
AcDbSymbolTableRecord
100
AcDbTextStyleTableRecord
  2
Standard
 70
     0
 40
0.0
 41
1.0
 50
0.0
 71
     0
 42
0.2
  3
txt
  4

  0
ENDTAB
  0
TABLE
  2
VIEW
  5
6
330
0
100
AcDbSymbolTable
 70
     0
  0
ENDTAB
  0
TABLE
  2
UCS
  5
7
330
0
100
AcDbSymbolTable
 70
     0
  0
ENDTAB
  0
TABLE
  2
APPID
  5
9
330
0
100
AcDbSymbolTable
 70
     1
  0
APPID
  5
12
330
9
100
AcDbSymbolTableRecord
100
AcDbRegAppTableRecord
  2
ACAD
 70
     0
  0
ENDTAB
  0
TABLE
  2
DIMSTYLE
  5
A
330
0
100
AcDbSymbolTable
 70
     1
100
AcDbDimStyleTable
  0
DIMSTYLE
105
27
330
A
100
AcDbSymbolTableRecord
100
AcDbDimStyleTableRecord
  2
Standard
 70
     0
178
     0
340
11
  0
ENDTAB
  0
TABLE
  2
BLOCK_RECORD
  5
1
330
0
100
AcDbSymbolTable
 70
     2
  0
BLOCK_RECORD
  5
1F
330
1
100
AcDbSymbolTableRecord
100
AcDbBlockTableRecord
  2
*Model_Space
340
22
 70
     0
280
     1
281
     0
  0
BLOCK_RECORD
  5
1B
330
1
100
AcDbSymbolTableRecord
100
AcDbBlockTableRecord
  2
*Paper_Space
340
1E
 70
     0
280
     1
281
     0
  0
BLOCK_RECORD
  5
23
330
1
100
AcDbSymbolTableRecord
100
AcDbBlockTableRecord
  2
*Paper_Space0
340
26
 70
     0
280
     1
281
     0
  0
BLOCK_RECORD
  5
46
330
1
100
AcDbSymbolTableRecord
100
AcDbBlockTableRecord
  2
block 2
340
0
102
{BLKREFS
331
47
102
}
 70
     0
280
     1
281
     0
  0
ENDTAB
  0
ENDSEC
  0
SECTION
  2
BLOCKS
  0
BLOCK
  5
20
330
1F
100
AcDbEntity
  8
0
100
AcDbBlockBegin
  2
*Model_Space
 70
     0
 10
0.0
 20
0.0
 30
0.0
  3
*Model_Space
  1

  0
ENDBLK
  5
21
330
1F
100
AcDbEntity
  8
0
100
AcDbBlockEnd
  0
BLOCK
  5
1C
330
1B
100
AcDbEntity
 67
     1
  8
0
100
AcDbBlockBegin
  2
*Paper_Space
 70
     0
 10
0.0
 20
0.0
 30
0.0
  3
*Paper_Space
  1

  0
ENDBLK
  5
1D
330
1B
100
AcDbEntity
 67
     1
  8
0
100
AcDbBlockEnd
  0
BLOCK
  5
24
330
23
100
AcDbEntity
  8
0
100
AcDbBlockBegin
  2
*Paper_Space0
 70
     0
 10
0.0
 20
0.0
 30
0.0
  3
*Paper_Space0
  1

  0
ENDBLK
  5
25
330
23
100
AcDbEntity
  8
0
100
AcDbBlockEnd
  0
BLOCK
  5
48
330
46
100
AcDbEntity
  8
0
100
AcDbBlockBegin
  2
block 2
 70
     0
 10
0.0
 20
0.0
 30
0.0
  3
block 2
  1

  0
SPLINE
  5
4A
330
46
100
AcDbEntity
  8
Layer 1
370
     0
100
AcDbSpline
210
0.0
220
0.0
230
1.0
 70
    11
 71
     3
 72
    83
 73
    79
 74
     0
 42
0.0000000001
 43
0.0000000001
 12
1.0
 22
0.0
 32
0.0
 13
1.0
 23
0.0
 33
0.0
 40
0.0
 40
0.0
 40
0.0
 40
0.0
 40
1.0
 40
1.0
 40
1.0
 40
2.0
 40
2.0
 40
2.0
 40
3.0
 40
3.0
 40
3.0
 40
4.0
 40
4.0
 40
4.0
 40
5.0
 40
5.0
 40
5.0
 40
6.0
 40
6.0
 40
6.0
 40
7.0
 40
7.0
 40
7.0
 40
8.0
 40
8.0
 40
8.0
 40
9.0
 40
9.0
 40
9.0
 40
10.0
 40
10.0
 40
10.0
 40
11.0
 40
11.0
 40
11.0
 40
12.0
 40
12.0
 40
12.0
 40
13.0
 40
13.0
 40
13.0
 40
14.0
 40
14.0
 40
14.0
 40
15.0
 40
15.0
 40
15.0
 40
16.0
 40
16.0
 40
16.0
 40
17.0
 40
17.0
 40
17.0
 40
18.0
 40
18.0
 40
18.0
 40
19.0
 40
19.0
 40
19.0
 40
20.0
 40
20.0
 40
20.0
 40
21.0
 40
21.0
 40
21.0
 40
22.0
 40
22.0
 40
22.0
 40
23.0
 40
23.0
 40
23.0
 40
24.0
 40
24.0
 40
24.0
 40
25.0
 40
25.0
 40
25.0
 40
26.0
 40
26.0
 40
26.0
 40
26.0
 10
11.03194427490234
 20
6.322222391764322
 30
0.0
 10
11.03194427490234
 20
6.341666751437717
 30
0.0
 10
11.03194427490234
 20
6.361111111111111
 30
0.0
 10
11.03194427490234
 20
6.380555894639756
 30
0.0
 10
11.00833299424913
 20
6.415278116861979
 30
0.0
 10
11.01388888888889
 20
6.456944783528646
 30
0.0
 10
11.00416649712457
 20
6.494444953070746
 30
0.0
 10
10.93333350287543
 20
6.779167175292969
 30
0.0
 10
10.72638871934679
 20
6.958333757188584
 30
0.0
 10
10.43472205268012
 20
6.988889482286241
 30
0.0
 10
10.42222171359592
 20
6.99027845594618
 30
0.0
 10
10.40694427490234
 20
6.981945037841797
 30
0.0
 10
10.3999998304579
 20
7.000000423855251
 30
0.0
 10
10.39166683620877
 20
7.000000423855251
 30
0.0
 10
10.38472239176432
 20
7.000000423855251
 30
0.0
 10
10.37638854980469
 20
7.000000423855251
 30
0.0
 10
10.35277726915148
 20
6.979167090521918
 30
0.0
 10
10.32916598849826
 20
6.984722561306423
 30
0.0
 10
10.30555555555556
 20
7.000000423855251
 30
0.0
 10
10.00138854980469
 20
7.000000423855251
 30
0.0
 10
9.697222391764322
 20
7.000000423855251
 30
0.0
 10
9.393055386013454
 20
7.000000423855251
 30
0.0
 10
9.377777947319878
 20
6.984722561306423
 30
0.0
 10
9.362499660915798
 20
6.979167090521918
 30
0.0
 10
9.345832824707031
 20
7.000000423855251
 30
0.0
 10
9.330555386013454
 20
7.000000423855251
 30
0.0
 10
9.315277099609375
 20
7.000000423855251
 30
0.0
 10
9.298610263400606
 20
7.000000423855251
 30
0.0
 10
9.255555046929253
 20
6.972222646077474
 30
0.0
 10
9.202776590983072
 20
6.977778116861979
 30
0.0
 10
9.15694342719184
 20
6.96250025431315
 30
0.0
 10
8.909721374511719
 20
6.884722391764322
 30
0.0
 10
8.762498643663195
 20
6.719444698757595
 30
0.0
 10
8.712498982747395
 20
6.465278201633029
 30
0.0
 10
8.70833248562283
 20
6.44027837117513
 30
0.0
 10
8.713887532552082
 20
6.411111619737413
 30
0.0
 10
8.690277099609375
 20
6.391667260064018
 30
0.0
 10
8.690277099609375
 20
6.37638939751519
 30
0.0
 10
8.690277099609375
 20
6.361111534966362
 30
0.0
 10
8.690277099609375
 20
6.344445122612846
 30
0.0
 10
8.711110432942707
 20
6.320833841959635
 30
0.0
 10
8.705554538302952
 20
6.297222985161675
 30
0.0
 10
8.690277099609375
 20
6.273611704508463
 30
0.0
 10
8.690277099609375
 20
5.977778540717231
 30
0.0
 10
8.690277099609375
 20
5.680555979410807
 30
0.0
 10
8.690277099609375
 20
5.384722815619575
 30
0.0
 10
8.705554538302952
 20
5.361111534966363
 30
0.0
 10
8.711110432942707
 20
5.337500678168403
 30
0.0
 10
8.690277099609375
 20
5.313889397515191
 30
0.0
 10
8.690277099609375
 20
5.298611534966363
 30
0.0
 10
8.690277099609375
 20
5.283333672417535
 30
0.0
 10
8.690277099609375
 20
5.266667260064019
 30
0.0
 10
8.720832824707031
 20
5.218056148952908
 30
0.0
 10
8.716666327582464
 20
5.161111619737413
 30
0.0
 10
8.733332316080729
 20
5.108334011501736
 30
0.0
 10
8.805554707845051
 20
4.870834350585938
 30
0.0
 10
9.00555419921875
 20
4.693055894639756
 30
0.0
 10
9.294443766276041
 20
4.672222561306423
 30
0.0
 10
9.670832316080729
 20
4.645833333333333
 30
0.0
 10
10.04861026340061
 20
4.644444783528646
 30
0.0
 10
10.42638821072049
 20
4.672222561306423
 30
0.0
 10
10.72083282470703
 20
4.694444444444444
 30
0.0
 10
10.96527693006727
 20
4.875
 30
0.0
 10
11.01805453830295
 20
5.244444953070746
 30
0.0
 10
11.01944308810764
 20
5.256944868299696
 30
0.0
 10
11.01249864366319
 20
5.272222730848524
 30
0.0
 10
11.03055487738715
 20
5.279167175292969
 30
0.0
 10
11.03055487738715
 20
5.298611534966363
 30
0.0
 10
11.03055487738715
 20
5.318055894639756
 30
0.0
 10
11.03055487738715
 20
5.337500678168403
 30
0.0
 10
11.00833299424913
 20
5.361111958821614
 30
0.0
 10
11.01944393581814
 20
5.384722815619575
 30
0.0
 10
11.03055487738715
 20
5.408334096272786
 30
0.0
 10
11.03055487738715
 20
5.697222815619575
 30
0.0
 10
11.03055487738715
 20
5.986111958821614
 30
0.0
 10
11.03055487738715
 20
6.273611704508463
 30
0.0
 10
11.01805538601345
 20
6.291666666666666
 30
0.0
 10
11.01111094156901
 20
6.306944529215494
 30
0.0
 10
11.03194427490234
 20
6.322222391764322
 30
0.0
  0
SPLINE
  5
4B
330
46
100
AcDbEntity
  8
Layer 1
370
     0
100
AcDbSpline
210
0.0
220
0.0
230
1.0
 70
    11
 71
     3
 72
    32
 73
    28
 74
     0
 42
0.0000000001
 43
0.0000000001
 12
1.0
 22
0.0
 32
0.0
 13
1.0
 23
0.0
 33
0.0
 40
0.0
 40
0.0
 40
0.0
 40
0.0
 40
1.0
 40
1.0
 40
1.0
 40
2.0
 40
2.0
 40
2.0
 40
3.0
 40
3.0
 40
3.0
 40
4.0
 40
4.0
 40
4.0
 40
5.0
 40
5.0
 40
5.0
 40
6.0
 40
6.0
 40
6.0
 40
7.0
 40
7.0
 40
7.0
 40
8.0
 40
8.0
 40
8.0
 40
9.0
 40
9.0
 40
9.0
 40
9.0
 10
10.81111145019531
 20
5.326388888888888
 30
0.0
 10
10.8000005086263
 20
5.059722052680121
 30
0.0
 10
10.63333384195963
 20
4.893055386013454
 30
0.0
 10
10.36666700575087
 20
4.881944444444444
 30
0.0
 10
10.19722239176432
 20
4.875
 30
0.0
 10
10.02777777777778
 20
4.870833502875434
 30
0.0
 10
9.858334011501736
 20
4.872222052680121
 30
0.0
 10
9.690278795030382
 20
4.870833502875434
 30
0.0
 10
9.523612128363714
 20
4.875
 30
0.0
 10
9.355556064181856
 20
4.881944444444444
 30
0.0
 10
9.090278625488281
 20
4.893055386013454
 30
0.0
 10
8.923611958821613
 20
5.06111102634006
 30
0.0
 10
8.913889567057291
 20
5.327777862548828
 30
0.0
 10
8.900000678168402
 20
5.6625001695421
 30
0.0
 10
8.900000678168402
 20
5.997222476535373
 30
0.0
 10
8.913889567057291
 20
6.333333333333333
 30
0.0
 10
8.925000508626301
 20
6.601388719346788
 30
0.0
 10
9.091667175292969
 20
6.769444359673393
 30
0.0
 10
9.361111958821613
 20
6.779166751437717
 30
0.0
 10
9.695833841959635
 20
6.793055640326606
 30
0.0
 10
10.03055657280816
 20
6.793055640326606
 30
0.0
 10
10.36666785346137
 20
6.779166751437717
 30
0.0
 10
10.63194529215495
 20
6.768055809868706
 30
0.0
 10
10.80138990614149
 20
6.602777693006727
 30
0.0
 10
10.81111229790582
 20
6.33750025431315
 30
0.0
 10
10.82361094156901
 20
6.001388973659939
 30
0.0
 10
10.82361094156901
 20
5.663888719346788
 30
0.0
 10
10.81111145019531
 20
5.326388888888888
 30
0.0
  0
HATCH
  5
4C
330
46
100
AcDbEntity
  8
Layer 1
 62
     7
420
 16777215
100
AcDbHatch
 10
0.0
 20
0.0
 30
0.0
210
0.0
220
0.0
230
1.0
  2
SOLID
 70
     1
 71
     0
 91
        2
 92
        1
 93
        1
 72
     4
 94
        3
 73
     0
 74
     1
 95
       83
 96
       79
 40
0.0
 40
0.0
 40
0.0
 40
0.0
 40
1.0
 40
1.0
 40
1.0
 40
2.0
 40
2.0
 40
2.0
 40
3.0
 40
3.0
 40
3.0
 40
4.0
 40
4.0
 40
4.0
 40
5.0
 40
5.0
 40
5.0
 40
6.0
 40
6.0
 40
6.0
 40
7.0
 40
7.0
 40
7.0
 40
8.0
 40
8.0
 40
8.0
 40
9.0
 40
9.0
 40
9.0
 40
10.0
 40
10.0
 40
10.0
 40
11.0
 40
11.0
 40
11.0
 40
12.0
 40
12.0
 40
12.0
 40
13.0
 40
13.0
 40
13.0
 40
14.0
 40
14.0
 40
14.0
 40
15.0
 40
15.0
 40
15.0
 40
16.0
 40
16.0
 40
16.0
 40
17.0
 40
17.0
 40
17.0
 40
18.0
 40
18.0
 40
18.0
 40
19.0
 40
19.0
 40
19.0
 40
20.0
 40
20.0
 40
20.0
 40
21.0
 40
21.0
 40
21.0
 40
22.0
 40
22.0
 40
22.0
 40
23.0
 40
23.0
 40
23.0
 40
24.0
 40
24.0
 40
24.0
 40
25.0
 40
25.0
 40
25.0
 40
26.0
 40
26.0
 40
26.0
 40
26.0
 10
11.03194427490234
 20
6.322222391764322
 10
11.03194427490234
 20
6.341666751437717
 10
11.03194427490234
 20
6.361111111111111
 10
11.03194427490234
 20
6.380555894639756
 10
11.00833299424913
 20
6.415278116861979
 10
11.01388888888889
 20
6.456944783528646
 10
11.00416649712457
 20
6.494444953070746
 10
10.93333350287543
 20
6.779167175292969
 10
10.72638871934679
 20
6.958333757188584
 10
10.43472205268012
 20
6.988889482286241
 10
10.42222171359592
 20
6.99027845594618
 10
10.40694427490234
 20
6.981945037841797
 10
10.3999998304579
 20
7.000000423855251
 10
10.39166683620877
 20
7.000000423855251
 10
10.38472239176432
 20
7.000000423855251
 10
10.37638854980469
 20
7.000000423855251
 10
10.35277726915148
 20
6.979167090521918
 10
10.32916598849826
 20
6.984722561306423
 10
10.30555555555556
 20
7.000000423855251
 10
10.00138854980469
 20
7.000000423855251
 10
9.697222391764322
 20
7.000000423855251
 10
9.393055386013454
 20
7.000000423855251
 10
9.377777947319878
 20
6.984722561306423
 10
9.362499660915798
 20
6.979167090521918
 10
9.345832824707031
 20
7.000000423855251
 10
9.330555386013454
 20
7.000000423855251
 10
9.315277099609375
 20
7.000000423855251
 10
9.298610263400606
 20
7.000000423855251
 10
9.255555046929253
 20
6.972222646077474
 10
9.202776590983072
 20
6.977778116861979
 10
9.15694342719184
 20
6.96250025431315
 10
8.909721374511719
 20
6.884722391764322
 10
8.762498643663195
 20
6.719444698757595
 10
8.712498982747395
 20
6.465278201633029
 10
8.70833248562283
 20
6.44027837117513
 10
8.713887532552082
 20
6.411111619737413
 10
8.690277099609375
 20
6.391667260064018
 10
8.690277099609375
 20
6.37638939751519
 10
8.690277099609375
 20
6.361111534966362
 10
8.690277099609375
 20
6.344445122612846
 10
8.711110432942707
 20
6.320833841959635
 10
8.705554538302952
 20
6.297222985161675
 10
8.690277099609375
 20
6.273611704508463
 10
8.690277099609375
 20
5.977778540717231
 10
8.690277099609375
 20
5.680555979410807
 10
8.690277099609375
 20
5.384722815619575
 10
8.705554538302952
 20
5.361111534966363
 10
8.711110432942707
 20
5.337500678168403
 10
8.690277099609375
 20
5.313889397515191
 10
8.690277099609375
 20
5.298611534966363
 10
8.690277099609375
 20
5.283333672417535
 10
8.690277099609375
 20
5.266667260064019
 10
8.720832824707031
 20
5.218056148952908
 10
8.716666327582464
 20
5.161111619737413
 10
8.733332316080729
 20
5.108334011501736
 10
8.805554707845051
 20
4.870834350585938
 10
9.00555419921875
 20
4.693055894639756
 10
9.294443766276041
 20
4.672222561306423
 10
9.670832316080729
 20
4.645833333333333
 10
10.04861026340061
 20
4.644444783528646
 10
10.42638821072049
 20
4.672222561306423
 10
10.72083282470703
 20
4.694444444444444
 10
10.96527693006727
 20
4.875
 10
11.01805453830295
 20
5.244444953070746
 10
11.01944308810764
 20
5.256944868299696
 10
11.01249864366319
 20
5.272222730848524
 10
11.03055487738715
 20
5.279167175292969
 10
11.03055487738715
 20
5.298611534966363
 10
11.03055487738715
 20
5.318055894639756
 10
11.03055487738715
 20
5.337500678168403
 10
11.00833299424913
 20
5.361111958821614
 10
11.01944393581814
 20
5.384722815619575
 10
11.03055487738715
 20
5.408334096272786
 10
11.03055487738715
 20
5.697222815619575
 10
11.03055487738715
 20
5.986111958821614
 10
11.03055487738715
 20
6.273611704508463
 10
11.01805538601345
 20
6.291666666666666
 10
11.01111094156901
 20
6.306944529215494
 10
11.03194427490234
 20
6.322222391764322
 97
        0
 97
        0
 92
        1
 93
        1
 72
     4
 94
        3
 73
     0
 74
     1
 95
       32
 96
       28
 40
0.0
 40
0.0
 40
0.0
 40
0.0
 40
1.0
 40
1.0
 40
1.0
 40
2.0
 40
2.0
 40
2.0
 40
3.0
 40
3.0
 40
3.0
 40
4.0
 40
4.0
 40
4.0
 40
5.0
 40
5.0
 40
5.0
 40
6.0
 40
6.0
 40
6.0
 40
7.0
 40
7.0
 40
7.0
 40
8.0
 40
8.0
 40
8.0
 40
9.0
 40
9.0
 40
9.0
 40
9.0
 10
10.81111145019531
 20
5.326388888888888
 10
10.8000005086263
 20
5.059722052680121
 10
10.63333384195963
 20
4.893055386013454
 10
10.36666700575087
 20
4.881944444444444
 10
10.19722239176432
 20
4.875
 10
10.02777777777778
 20
4.870833502875434
 10
9.858334011501736
 20
4.872222052680121
 10
9.690278795030382
 20
4.870833502875434
 10
9.523612128363714
 20
4.875
 10
9.355556064181856
 20
4.881944444444444
 10
9.090278625488281
 20
4.893055386013454
 10
8.923611958821613
 20
5.06111102634006
 10
8.913889567057291
 20
5.327777862548828
 10
8.900000678168402
 20
5.6625001695421
 10
8.900000678168402
 20
5.997222476535373
 10
8.913889567057291
 20
6.333333333333333
 10
8.925000508626301
 20
6.601388719346788
 10
9.091667175292969
 20
6.769444359673393
 10
9.361111958821613
 20
6.779166751437717
 10
9.695833841959635
 20
6.793055640326606
 10
10.03055657280816
 20
6.793055640326606
 10
10.36666785346137
 20
6.779166751437717
 10
10.63194529215495
 20
6.768055809868706
 10
10.80138990614149
 20
6.602777693006727
 10
10.81111229790582
 20
6.33750025431315
 10
10.82361094156901
 20
6.001388973659939
 10
10.82361094156901
 20
5.663888719346788
 10
10.81111145019531
 20
5.326388888888888
 97
        0
 97
        0
 75
     2
 76
     1
 98
        0
  0
SPLINE
  5
4D
330
46
100
AcDbEntity
  8
Layer 1
370
     0
100
AcDbSpline
210
0.0
220
0.0
230
1.0
 70
    11
 71
     3
 72
    17
 73
    13
 74
     0
 42
0.0000000001
 43
0.0000000001
 12
1.0
 22
0.0
 32
0.0
 13
1.0
 23
0.0
 33
0.0
 40
0.0
 40
0.0
 40
0.0
 40
0.0
 40
1.0
 40
1.0
 40
1.0
 40
2.0
 40
2.0
 40
2.0
 40
3.0
 40
3.0
 40
3.0
 40
4.0
 40
4.0
 40
4.0
 40
4.0
 10
9.86111111111111
 20
6.434722052680121
 30
0.0
 10
9.527777777777777
 20
6.433333079020182
 30
0.0
 10
9.255555894639757
 20
6.159722222222222
 30
0.0
 10
9.258332994249132
 20
5.827777438693576
 30
0.0
 10
9.262499491373697
 20
5.495833079020182
 30
0.0
 10
9.530554877387152
 20
5.227777269151475
 30
0.0
 10
9.862499660915798
 20
5.229166242811415
 30
0.0
 10
10.19444444444444
 20
5.230555216471354
 30
0.0
 10
10.46111043294271
 20
5.495833079020182
 30
0.0
 10
10.46388838026259
 20
5.829166412353516
 30
0.0
 10
10.46666632758246
 20
6.1625001695421
 30
0.0
 10
10.19444444444444
 20
6.43611102634006
 30
0.0
 10
9.86111111111111
 20
6.434722052680121
 30
0.0
  0
SPLINE
  5
4E
330
46
100
AcDbEntity
  8
Layer 1
370
     0
100
AcDbSpline
210
0.0
220
0.0
230
1.0
 70
    11
 71
     3
 72
    17
 73
    13
 74
     0
 42
0.0000000001
 43
0.0000000001
 12
1.0
 22
0.0
 32
0.0
 13
1.0
 23
0.0
 33
0.0
 40
0.0
 40
0.0
 40
0.0
 40
0.0
 40
1.0
 40
1.0
 40
1.0
 40
2.0
 40
2.0
 40
2.0
 40
3.0
 40
3.0
 40
3.0
 40
4.0
 40
4.0
 40
4.0
 40
4.0
 10
9.862499660915798
 20
5.444444444444444
 30
0.0
 10
9.645833333333332
 20
5.444444444444444
 30
0.0
 10
9.474999321831596
 20
5.616666581895616
 30
0.0
 10
9.474999321831596
 20
5.833333333333333
 30
0.0
 10
9.474999321831596
 20
6.048611111111111
 30
0.0
 10
9.648610432942707
 20
6.218055725097656
 30
0.0
 10
9.866666158040363
 20
6.216666751437717
 30
0.0
 10
10.07916598849826
 20
6.215277777777778
 30
0.0
 10
10.24861060248481
 20
6.043055640326606
 30
0.0
 10
10.24861060248481
 20
5.827777862548828
 30
0.0
 10
10.24861145019531
 20
5.616666581895616
 30
0.0
 10
10.07638888888889
 20
5.444444444444444
 30
0.0
 10
9.862499660915798
 20
5.444444444444444
 30
0.0
  0
HATCH
  5
4F
330
46
100
AcDbEntity
  8
Layer 1
 62
     7
420
 16777215
100
AcDbHatch
 10
0.0
 20
0.0
 30
0.0
210
0.0
220
0.0
230
1.0
  2
SOLID
 70
     1
 71
     0
 91
        2
 92
        1
 93
        1
 72
     4
 94
        3
 73
     0
 74
     1
 95
       17
 96
       13
 40
0.0
 40
0.0
 40
0.0
 40
0.0
 40
1.0
 40
1.0
 40
1.0
 40
2.0
 40
2.0
 40
2.0
 40
3.0
 40
3.0
 40
3.0
 40
4.0
 40
4.0
 40
4.0
 40
4.0
 10
9.86111111111111
 20
6.434722052680121
 10
9.527777777777777
 20
6.433333079020182
 10
9.255555894639757
 20
6.159722222222222
 10
9.258332994249132
 20
5.827777438693576
 10
9.262499491373697
 20
5.495833079020182
 10
9.530554877387152
 20
5.227777269151475
 10
9.862499660915798
 20
5.229166242811415
 10
10.19444444444444
 20
5.230555216471354
 10
10.46111043294271
 20
5.495833079020182
 10
10.46388838026259
 20
5.829166412353516
 10
10.46666632758246
 20
6.1625001695421
 10
10.19444444444444
 20
6.43611102634006
 10
9.86111111111111
 20
6.434722052680121
 97
        0
 97
        0
 92
        1
 93
        1
 72
     4
 94
        3
 73
     0
 74
     1
 95
       17
 96
       13
 40
0.0
 40
0.0
 40
0.0
 40
0.0
 40
1.0
 40
1.0
 40
1.0
 40
2.0
 40
2.0
 40
2.0
 40
3.0
 40
3.0
 40
3.0
 40
4.0
 40
4.0
 40
4.0
 40
4.0
 10
9.862499660915798
 20
5.444444444444444
 10
9.645833333333332
 20
5.444444444444444
 10
9.474999321831596
 20
5.616666581895616
 10
9.474999321831596
 20
5.833333333333333
 10
9.474999321831596
 20
6.048611111111111
 10
9.648610432942707
 20
6.218055725097656
 10
9.866666158040363
 20
6.216666751437717
 10
10.07916598849826
 20
6.215277777777778
 10
10.24861060248481
 20
6.043055640326606
 10
10.24861060248481
 20
5.827777862548828
 10
10.24861145019531
 20
5.616666581895616
 10
10.07638888888889
 20
5.444444444444444
 10
9.862499660915798
 20
5.444444444444444
 97
        0
 97
        0
 75
     2
 76
     1
 98
        0
  0
SPLINE
  5
50
330
46
100
AcDbEntity
  8
Layer 1
370
     0
100
AcDbSpline
210
0.0
220
0.0
230
1.0
 70
    11
 71
     3
 72
    17
 73
    13
 74
     0
 42
0.0000000001
 43
0.0000000001
 12
1.0
 22
0.0
 32
0.0
 13
1.0
 23
0.0
 33
0.0
 40
0.0
 40
0.0
 40
0.0
 40
0.0
 40
1.0
 40
1.0
 40
1.0
 40
2.0
 40
2.0
 40
2.0
 40
3.0
 40
3.0
 40
3.0
 40
4.0
 40
4.0
 40
4.0
 40
4.0
 10
10.48611111111111
 20
6.598611195882161
 30
0.0
 10
10.40833367241753
 20
6.598611195882161
 30
0.0
 10
10.34444427490234
 20
6.534722222222221
 30
0.0
 10
10.34305572509766
 20
6.458333333333333
 30
0.0
 10
10.34166717529297
 20
6.380555470784505
 30
0.0
 10
10.40972222222222
 20
6.3125
 30
0.0
 10
10.48611111111111
 20
6.3125
 30
0.0
 10
10.56388854980469
 20
6.3125
 30
0.0
 10
10.63055589463976
 20
6.380555470784505
 30
0.0
 10
10.62777794731988
 20
6.459722306993272
 30
0.0
 10
10.62638854980469
 20
6.536111195882161
 30
0.0
 10
10.5625
 20
6.598611195882161
 30
0.0
 10
10.48611111111111
 20
6.598611195882161
 30
0.0
  0
HATCH
  5
51
330
46
100
AcDbEntity
  8
Layer 1
 62
     7
420
 16777215
100
AcDbHatch
 10
0.0
 20
0.0
 30
0.0
210
0.0
220
0.0
230
1.0
  2
SOLID
 70
     1
 71
     0
 91
        1
 92
        1
 93
        1
 72
     4
 94
        3
 73
     0
 74
     1
 95
       17
 96
       13
 40
0.0
 40
0.0
 40
0.0
 40
0.0
 40
1.0
 40
1.0
 40
1.0
 40
2.0
 40
2.0
 40
2.0
 40
3.0
 40
3.0
 40
3.0
 40
4.0
 40
4.0
 40
4.0
 40
4.0
 10
10.48611111111111
 20
6.598611195882161
 10
10.40833367241753
 20
6.598611195882161
 10
10.34444427490234
 20
6.534722222222221
 10
10.34305572509766
 20
6.458333333333333
 10
10.34166717529297
 20
6.380555470784505
 10
10.40972222222222
 20
6.3125
 10
10.48611111111111
 20
6.3125
 10
10.56388854980469
 20
6.3125
 10
10.63055589463976
 20
6.380555470784505
 10
10.62777794731988
 20
6.459722306993272
 10
10.62638854980469
 20
6.536111195882161
 10
10.5625
 20
6.598611195882161
 10
10.48611111111111
 20
6.598611195882161
 97
        0
 97
        0
 75
     2
 76
     1
 98
        0
  0
ENDBLK
  5
49
330
46
100
AcDbEntity
  8
0
100
AcDbBlockEnd
  0
ENDSEC
  0
SECTION
  2
ENTITIES
  0
SPLINE
  5
41
330
1F
100
AcDbEntity
  8
Layer 1
370
     0
100
AcDbSpline
210
0.0
220
0.0
230
1.0
 70
    11
 71
     3
 72
   104
 73
   100
 74
     0
 42
0.0000000001
 43
0.0000000001
 12
1.0
 22
0.0
 32
0.0
 13
1.0
 23
0.0
 33
0.0
 40
0.0
 40
0.0
 40
0.0
 40
0.0
 40
1.0
 40
1.0
 40
1.0
 40
2.0
 40
2.0
 40
2.0
 40
3.0
 40
3.0
 40
3.0
 40
4.0
 40
4.0
 40
4.0
 40
5.0
 40
5.0
 40
5.0
 40
6.0
 40
6.0
 40
6.0
 40
7.0
 40
7.0
 40
7.0
 40
8.0
 40
8.0
 40
8.0
 40
9.0
 40
9.0
 40
9.0
 40
10.0
 40
10.0
 40
10.0
 40
11.0
 40
11.0
 40
11.0
 40
12.0
 40
12.0
 40
12.0
 40
13.0
 40
13.0
 40
13.0
 40
14.0
 40
14.0
 40
14.0
 40
15.0
 40
15.0
 40
15.0
 40
16.0
 40
16.0
 40
16.0
 40
17.0
 40
17.0
 40
17.0
 40
18.0
 40
18.0
 40
18.0
 40
19.0
 40
19.0
 40
19.0
 40
20.0
 40
20.0
 40
20.0
 40
21.0
 40
21.0
 40
21.0
 40
22.0
 40
22.0
 40
22.0
 40
23.0
 40
23.0
 40
23.0
 40
24.0
 40
24.0
 40
24.0
 40
25.0
 40
25.0
 40
25.0
 40
26.0
 40
26.0
 40
26.0
 40
27.0
 40
27.0
 40
27.0
 40
28.0
 40
28.0
 40
28.0
 40
29.0
 40
29.0
 40
29.0
 40
30.0
 40
30.0
 40
30.0
 40
31.0
 40
31.0
 40
31.0
 40
32.0
 40
32.0
 40
32.0
 40
33.0
 40
33.0
 40
33.0
 40
33.0
 10
5.668055640326606
 20
6.645833333333333
 30
0.0
 10
5.706944359673394
 20
6.694444444444444
 30
0.0
 10
5.73750008477105
 20
6.74861102634006
 30
0.0
 10
5.755555470784505
 20
6.8125
 30
0.0
 10
5.743055555555555
 20
6.805555555555555
 30
0.0
 10
5.733333163791232
 20
6.801389058430989
 30
0.0
 10
5.724999745686849
 20
6.797222137451172
 30
0.0
 10
5.63611094156901
 20
6.747222052680121
 30
0.0
 10
5.540277693006727
 20
6.712499830457899
 30
0.0
 10
5.441666497124566
 20
6.690277523464626
 30
0.0
 10
5.422222137451172
 20
6.68611102634006
 30
0.0
 10
5.41111077202691
 20
6.690277523464626
 30
0.0
 10
5.397221883138021
 20
6.702777438693576
 30
0.0
 10
5.254166497124566
 20
6.836110856797959
 30
0.0
 10
5.084721883138021
 20
6.883332994249131
 30
0.0
 10
4.895832909478082
 20
6.837499830457899
 30
0.0
 10
4.712499406602647
 20
6.791666666666666
 30
0.0
 10
4.587499406602647
 20
6.676388634575737
 30
0.0
 10
4.519443935818142
 20
6.49861102634006
 30
0.0
 10
4.48472171359592
 20
6.405555301242404
 30
0.0
 10
4.479166242811415
 20
6.309722052680121
 30
0.0
 10
4.497221628824869
 20
6.213888804117838
 30
0.0
 10
4.498610602484809
 20
6.204166412353516
 30
0.0
 10
4.505555046929254
 20
6.193055470784505
 30
0.0
 10
4.48472171359592
 20
6.194444444444444
 30
0.0
 10
4.351388295491536
 20
6.204166836208767
 30
0.0
 10
4.22222179836697
 20
6.227777693006727
 30
0.0
 10
4.095832824707031
 20
6.269444359673393
 30
0.0
 10
3.855555216471354
 20
6.349999745686849
 30
0.0
 10
3.648610432942708
 20
6.481944190131293
 30
0.0
 10
3.47222179836697
 20
6.663888719346788
 30
0.0
 10
3.444444020589192
 20
6.693055470784505
 30
0.0
 10
3.418055216471354
 20
6.723610772026909
 30
0.0
 10
3.390277438693576
 20
6.754166497124565
 30
0.0
 10
3.322221967909071
 20
6.630555470784505
 30
0.0
 10
3.301388634575738
 20
6.501388549804688
 30
0.0
 10
3.331944147745768
 20
6.365277608235677
 30
0.0
 10
3.362499660915798
 20
6.229166666666666
 30
0.0
 10
3.437499788072374
 20
6.122222052680121
 30
0.0
 10
3.55555534362793
 20
6.037499745686849
 30
0.0
 10
3.466666539510091
 20
6.041666242811415
 30
0.0
 10
3.388888676961263
 20
6.063888549804688
 30
0.0
 10
3.313888761732313
 20
6.104166242811415
 30
0.0
 10
3.313888761732313
 20
5.97361077202691
 30
0.0
 10
3.352777693006727
 20
5.85972171359592
 30
0.0
 10
3.431944317287869
 20
5.761110517713758
 30
0.0
 10
3.51111094156901
 20
5.662499321831597
 30
0.0
 10
3.613888634575738
 20
5.599999321831597
 30
0.0
 10
3.738888634575738
 20
5.57083257039388
 30
0.0
 10
3.733333163791233
 20
5.568054623074001
 30
0.0
 10
3.731944190131293
 20
5.568054623074001
 30
0.0
 10
3.730555216471354
 20
5.566666073269314
 30
0.0
 10
3.726388719346788
 20
5.565277099609375
 30
0.0
 10
3.720832824707031
 20
5.563888125949435
 30
0.0
 10
3.715277353922526
 20
5.563888125949435
 30
0.0
 10
3.649999406602647
 20
5.549999237060547
 30
0.0
 10
3.584721883138021
 20
5.547221289740668
 30
0.0
 10
3.519443935818142
 20
5.55833265516493
 30
0.0
 10
3.505555046929253
 20
5.561110602484809
 30
0.0
 10
3.502777311537001
 20
5.55833265516493
 30
0.0
 10
3.508332782321506
 20
5.544443766276041
 30
0.0
 10
3.576388465033637
 20
5.368054707845052
 30
0.0
 10
3.701388465033637
 20
5.254166073269314
 30
0.0
 10
3.883332994249132
 20
5.202777014838325
 30
0.0
 10
3.920833163791233
 20
5.193054623074001
 30
0.0
 10
3.959721883138021
 20
5.188888125949435
 30
0.0
 10
4.004166497124566
 20
5.186110178629557
 30
0.0
 10
3.766666412353516
 20
5.006943596733941
 30
0.0
 10
3.505555470784505
 20
4.934721204969618
 30
0.0
 10
3.216666539510091
 20
4.961110009087457
 30
0.0
 10
3.274999830457899
 20
4.920832316080729
 30
0.0
 10
3.337499830457899
 20
4.887498643663194
 30
0.0
 10
3.401388804117838
 20
4.858332316080729
 30
0.0
 10
3.587499830457899
 20
4.774998982747396
 30
0.0
 10
3.781944274902344
 20
4.729165818956163
 30
0.0
 10
3.984722137451172
 20
4.722221374511719
 30
0.0
 10
4.204166412353516
 20
4.715276930067274
 30
0.0
 10
4.416666666666666
 20
4.748610602484809
 30
0.0
 10
4.619444529215494
 20
4.830554538302951
 30
0.0
 10
4.881944444444444
 20
4.936110178629557
 30
0.0
 10
5.095833248562283
 20
5.10555436876085
 30
0.0
 10
5.261111365424262
 20
5.334721035427517
 30
0.0
 10
5.468055725097656
 20
5.623609754774305
 30
0.0
 10
5.570833418104383
 20
5.944443172878689
 30
0.0
 10
5.562500423855251
 20
6.301387786865234
 30
0.0
 10
5.562500423855251
 20
6.316665649414062
 30
0.0
 10
5.566666920979817
 20
6.326387617323133
 30
0.0
 10
5.579167260064019
 20
6.334721035427517
 30
0.0
 10
5.650000678168403
 20
6.386110093858506
 30
0.0
 10
5.712500678168403
 20
6.448610093858506
 30
0.0
 10
5.768056233723958
 20
6.515276590983072
 30
0.0
 10
5.788889567057291
 20
6.540276421440971
 30
0.0
 10
5.806944953070746
 20
6.566665649414062
 30
0.0
 10
5.826389736599392
 20
6.5930544535319
 30
0.0
 10
5.730556488037109
 20
6.556943257649739
 30
0.0
 10
5.634723239474826
 20
6.529165479871962
 30
0.0
 10
5.533334096272786
 20
6.519443511962891
 30
0.0
 10
5.583333333333333
 20
6.556944529215494
 30
0.0
 10
5.629166497124566
 20
6.597222222222221
 30
0.0
 10
5.668055640326606
 20
6.645833333333333
 30
0.0
  0
HATCH
  5
42
330
1F
100
AcDbEntity
  8
Layer 1
 62
     7
420
 16777215
100
AcDbHatch
 10
0.0
 20
0.0
 30
0.0
210
0.0
220
0.0
230
1.0
  2
SOLID
 70
     1
 71
     0
 91
        1
 92
        1
 93
        1
 72
     4
 94
        3
 73
     0
 74
     1
 95
      104
 96
      100
 40
0.0
 40
0.0
 40
0.0
 40
0.0
 40
1.0
 40
1.0
 40
1.0
 40
2.0
 40
2.0
 40
2.0
 40
3.0
 40
3.0
 40
3.0
 40
4.0
 40
4.0
 40
4.0
 40
5.0
 40
5.0
 40
5.0
 40
6.0
 40
6.0
 40
6.0
 40
7.0
 40
7.0
 40
7.0
 40
8.0
 40
8.0
 40
8.0
 40
9.0
 40
9.0
 40
9.0
 40
10.0
 40
10.0
 40
10.0
 40
11.0
 40
11.0
 40
11.0
 40
12.0
 40
12.0
 40
12.0
 40
13.0
 40
13.0
 40
13.0
 40
14.0
 40
14.0
 40
14.0
 40
15.0
 40
15.0
 40
15.0
 40
16.0
 40
16.0
 40
16.0
 40
17.0
 40
17.0
 40
17.0
 40
18.0
 40
18.0
 40
18.0
 40
19.0
 40
19.0
 40
19.0
 40
20.0
 40
20.0
 40
20.0
 40
21.0
 40
21.0
 40
21.0
 40
22.0
 40
22.0
 40
22.0
 40
23.0
 40
23.0
 40
23.0
 40
24.0
 40
24.0
 40
24.0
 40
25.0
 40
25.0
 40
25.0
 40
26.0
 40
26.0
 40
26.0
 40
27.0
 40
27.0
 40
27.0
 40
28.0
 40
28.0
 40
28.0
 40
29.0
 40
29.0
 40
29.0
 40
30.0
 40
30.0
 40
30.0
 40
31.0
 40
31.0
 40
31.0
 40
32.0
 40
32.0
 40
32.0
 40
33.0
 40
33.0
 40
33.0
 40
33.0
 10
5.668055640326606
 20
6.645833333333333
 10
5.706944359673394
 20
6.694444444444444
 10
5.73750008477105
 20
6.74861102634006
 10
5.755555470784505
 20
6.8125
 10
5.743055555555555
 20
6.805555555555555
 10
5.733333163791232
 20
6.801389058430989
 10
5.724999745686849
 20
6.797222137451172
 10
5.63611094156901
 20
6.747222052680121
 10
5.540277693006727
 20
6.712499830457899
 10
5.441666497124566
 20
6.690277523464626
 10
5.422222137451172
 20
6.68611102634006
 10
5.41111077202691
 20
6.690277523464626
 10
5.397221883138021
 20
6.702777438693576
 10
5.254166497124566
 20
6.836110856797959
 10
5.084721883138021
 20
6.883332994249131
 10
4.895832909478082
 20
6.837499830457899
 10
4.712499406602647
 20
6.791666666666666
 10
4.587499406602647
 20
6.676388634575737
 10
4.519443935818142
 20
6.49861102634006
 10
4.48472171359592
 20
6.405555301242404
 10
4.479166242811415
 20
6.309722052680121
 10
4.497221628824869
 20
6.213888804117838
 10
4.498610602484809
 20
6.204166412353516
 10
4.505555046929254
 20
6.193055470784505
 10
4.48472171359592
 20
6.194444444444444
 10
4.351388295491536
 20
6.204166836208767
 10
4.22222179836697
 20
6.227777693006727
 10
4.095832824707031
 20
6.269444359673393
 10
3.855555216471354
 20
6.349999745686849
 10
3.648610432942708
 20
6.481944190131293
 10
3.47222179836697
 20
6.663888719346788
 10
3.444444020589192
 20
6.693055470784505
 10
3.418055216471354
 20
6.723610772026909
 10
3.390277438693576
 20
6.754166497124565
 10
3.322221967909071
 20
6.630555470784505
 10
3.301388634575738
 20
6.501388549804688
 10
3.331944147745768
 20
6.365277608235677
 10
3.362499660915798
 20
6.229166666666666
 10
3.437499788072374
 20
6.122222052680121
 10
3.55555534362793
 20
6.037499745686849
 10
3.466666539510091
 20
6.041666242811415
 10
3.388888676961263
 20
6.063888549804688
 10
3.313888761732313
 20
6.104166242811415
 10
3.313888761732313
 20
5.97361077202691
 10
3.352777693006727
 20
5.85972171359592
 10
3.431944317287869
 20
5.761110517713758
 10
3.51111094156901
 20
5.662499321831597
 10
3.613888634575738
 20
5.599999321831597
 10
3.738888634575738
 20
5.57083257039388
 10
3.733333163791233
 20
5.568054623074001
 10
3.731944190131293
 20
5.568054623074001
 10
3.730555216471354
 20
5.566666073269314
 10
3.726388719346788
 20
5.565277099609375
 10
3.720832824707031
 20
5.563888125949435
 10
3.715277353922526
 20
5.563888125949435
 10
3.649999406602647
 20
5.549999237060547
 10
3.584721883138021
 20
5.547221289740668
 10
3.519443935818142
 20
5.55833265516493
 10
3.505555046929253
 20
5.561110602484809
 10
3.502777311537001
 20
5.55833265516493
 10
3.508332782321506
 20
5.544443766276041
 10
3.576388465033637
 20
5.368054707845052
 10
3.701388465033637
 20
5.254166073269314
 10
3.883332994249132
 20
5.202777014838325
 10
3.920833163791233
 20
5.193054623074001
 10
3.959721883138021
 20
5.188888125949435
 10
4.004166497124566
 20
5.186110178629557
 10
3.766666412353516
 20
5.006943596733941
 10
3.505555470784505
 20
4.934721204969618
 10
3.216666539510091
 20
4.961110009087457
 10
3.274999830457899
 20
4.920832316080729
 10
3.337499830457899
 20
4.887498643663194
 10
3.401388804117838
 20
4.858332316080729
 10
3.587499830457899
 20
4.774998982747396
 10
3.781944274902344
 20
4.729165818956163
 10
3.984722137451172
 20
4.722221374511719
 10
4.204166412353516
 20
4.715276930067274
 10
4.416666666666666
 20
4.748610602484809
 10
4.619444529215494
 20
4.830554538302951
 10
4.881944444444444
 20
4.936110178629557
 10
5.095833248562283
 20
5.10555436876085
 10
5.261111365424262
 20
5.334721035427517
 10
5.468055725097656
 20
5.623609754774305
 10
5.570833418104383
 20
5.944443172878689
 10
5.562500423855251
 20
6.301387786865234
 10
5.562500423855251
 20
6.316665649414062
 10
5.566666920979817
 20
6.326387617323133
 10
5.579167260064019
 20
6.334721035427517
 10
5.650000678168403
 20
6.386110093858506
 10
5.712500678168403
 20
6.448610093858506
 10
5.768056233723958
 20
6.515276590983072
 10
5.788889567057291
 20
6.540276421440971
 10
5.806944953070746
 20
6.566665649414062
 10
5.826389736599392
 20
6.5930544535319
 10
5.730556488037109
 20
6.556943257649739
 10
5.634723239474826
 20
6.529165479871962
 10
5.533334096272786
 20
6.519443511962891
 10
5.583333333333333
 20
6.556944529215494
 10
5.629166497124566
 20
6.597222222222221
 10
5.668055640326606
 20
6.645833333333333
 97
        0
 97
        0
 75
     2
 76
     1
 98
        0
  0
SPLINE
  5
43
330
1F
100
AcDbEntity
  8
Layer 1
370
     0
100
AcDbSpline
210
0.0
220
0.0
230
1.0
 70
    11
 71
     3
 72
    38
 73
    34
 74
     0
 42
0.0000000001
 43
0.0000000001
 12
1.0
 22
0.0
 32
0.0
 13
1.0
 23
0.0
 33
0.0
 40
0.0
 40
0.0
 40
0.0
 40
0.0
 40
1.0
 40
1.0
 40
1.0
 40
2.0
 40
2.0
 40
2.0
 40
3.0
 40
3.0
 40
3.0
 40
4.0
 40
4.0
 40
4.0
 40
5.0
 40
5.0
 40
5.0
 40
6.0
 40
6.0
 40
6.0
 40
7.0
 40
7.0
 40
7.0
 40
8.0
 40
8.0
 40
8.0
 40
9.0
 40
9.0
 40
9.0
 40
10.0
 40
10.0
 40
10.0
 40
11.0
 40
11.0
 40
11.0
 40
11.0
 10
8.340277777777777
 20
6.833333333333333
 30
0.0
 10
8.333333333333332
 20
6.879166497124565
 30
0.0
 10
8.284722222222221
 20
6.931944529215494
 30
0.0
 10
8.222222222222221
 20
6.931944529215494
 30
0.0
 10
8.21388922797309
 20
6.931944529215494
 30
0.0
 10
8.204166836208767
 20
6.933333502875434
 30
0.0
 10
8.195832994249132
 20
6.933333502875434
 30
0.0
 10
7.555555555555555
 20
6.933333502875434
 30
0.0
 10
6.915277269151475
 20
6.933333502875434
 30
0.0
 10
6.274999830457899
 20
6.933333502875434
 30
0.0
 10
6.266666412353516
 20
6.933333502875434
 30
0.0
 10
6.256944444444444
 20
6.931944529215494
 30
0.0
 10
6.24861102634006
 20
6.931944529215494
 30
0.0
 10
6.177777608235677
 20
6.926389058430989
 30
0.0
 10
6.131944444444444
 20
6.87361102634006
 30
0.0
 10
6.131944444444444
 20
6.797222137451172
 30
0.0
 10
6.131944444444444
 20
6.151388804117838
 30
0.0
 10
6.131944444444444
 20
5.506944444444444
 30
0.0
 10
6.131944444444444
 20
4.861111111111111
 30
0.0
 10
6.131944444444444
 20
4.774999830457899
 30
0.0
 10
6.183333502875434
 20
4.722222222222222
 30
0.0
 10
6.269444359673393
 20
4.722222222222222
 30
0.0
 10
6.915277693006727
 20
4.722222222222222
 30
0.0
 10
7.559722052680121
 20
4.722222222222222
 30
0.0
 10
8.205555386013454
 20
4.722222222222222
 30
0.0
 10
8.294444613986546
 20
4.722222222222222
 30
0.0
 10
8.344444274902344
 20
4.773611280653212
 30
0.0
 10
8.344444274902344
 20
4.862499660915798
 30
0.0
 10
8.344444274902344
 20
5.504166497124566
 30
0.0
 10
8.344444274902344
 20
6.147221883138021
 30
0.0
 10
8.344444274902344
 20
6.788888719346788
 30
0.0
 10
8.343055725097656
 20
6.804166581895616
 30
0.0
 10
8.341666327582464
 20
6.819444444444444
 30
0.0
 10
8.340277777777777
 20
6.833333333333333
 30
0.0
  0
SPLINE
  5
44
330
1F
100
AcDbEntity
  8
Layer 1
370
     0
100
AcDbSpline
210
0.0
220
0.0
230
1.0
 70
    11
 71
     3
 72
   104
 73
   100
 74
     0
 42
0.0000000001
 43
0.0000000001
 12
1.0
 22
0.0
 32
0.0
 13
1.0
 23
0.0
 33
0.0
 40
0.0
 40
0.0
 40
0.0
 40
0.0
 40
1.0
 40
1.0
 40
1.0
 40
2.0
 40
2.0
 40
2.0
 40
3.0
 40
3.0
 40
3.0
 40
4.0
 40
4.0
 40
4.0
 40
5.0
 40
5.0
 40
5.0
 40
6.0
 40
6.0
 40
6.0
 40
7.0
 40
7.0
 40
7.0
 40
8.0
 40
8.0
 40
8.0
 40
9.0
 40
9.0
 40
9.0
 40
10.0
 40
10.0
 40
10.0
 40
11.0
 40
11.0
 40
11.0
 40
12.0
 40
12.0
 40
12.0
 40
13.0
 40
13.0
 40
13.0
 40
14.0
 40
14.0
 40
14.0
 40
15.0
 40
15.0
 40
15.0
 40
16.0
 40
16.0
 40
16.0
 40
17.0
 40
17.0
 40
17.0
 40
18.0
 40
18.0
 40
18.0
 40
19.0
 40
19.0
 40
19.0
 40
20.0
 40
20.0
 40
20.0
 40
21.0
 40
21.0
 40
21.0
 40
22.0
 40
22.0
 40
22.0
 40
23.0
 40
23.0
 40
23.0
 40
24.0
 40
24.0
 40
24.0
 40
25.0
 40
25.0
 40
25.0
 40
26.0
 40
26.0
 40
26.0
 40
27.0
 40
27.0
 40
27.0
 40
28.0
 40
28.0
 40
28.0
 40
29.0
 40
29.0
 40
29.0
 40
30.0
 40
30.0
 40
30.0
 40
31.0
 40
31.0
 40
31.0
 40
32.0
 40
32.0
 40
32.0
 40
33.0
 40
33.0
 40
33.0
 40
33.0
 10
8.020833333333332
 20
5.955555386013454
 30
0.0
 10
8.015277438693577
 20
5.902777777777778
 30
0.0
 10
8.015277438693577
 20
5.84861077202691
 30
0.0
 10
8.012500339084202
 20
5.795833163791232
 30
0.0
 10
8.011111789279514
 20
5.766666412353516
 30
0.0
 10
8.006944444444445
 20
5.737499660915798
 30
0.0
 10
8.005555894639757
 20
5.708333333333333
 30
0.0
 10
8.00416734483507
 20
5.688888973659939
 30
0.0
 10
7.991667005750868
 20
5.693055470784505
 30
0.0
 10
7.980556064181857
 20
5.693055470784505
 30
0.0
 10
7.900000678168403
 20
5.693055470784505
 30
0.0
 10
7.819445292154947
 20
5.691666497124566
 30
0.0
 10
7.738889058430989
 20
5.694444444444444
 30
0.0
 10
7.708333333333333
 20
5.695833418104383
 30
0.0
 10
7.702778286404079
 20
5.684722052680121
 30
0.0
 10
7.702778286404079
 20
5.656944274902344
 30
0.0
 10
7.704166836208767
 20
5.533333248562283
 30
0.0
 10
7.702778286404079
 20
5.409722222222222
 30
0.0
 10
7.702778286404079
 20
5.28611077202691
 30
0.0
 10
7.702778286404079
 20
5.28611077202691
 30
0.0
 10
7.702778286404079
 20
5.28611077202691
 30
0.0
 10
7.704166836208767
 20
5.28611077202691
 30
0.0
 10
7.704166836208767
 20
5.16111077202691
 30
0.0
 10
7.704166836208767
 20
5.03472179836697
 30
0.0
 10
7.704166836208767
 20
4.90972179836697
 30
0.0
 10
7.704166836208767
 20
4.887499491373697
 30
0.0
 10
7.69861094156901
 20
4.879166497124566
 30
0.0
 10
7.675000508626302
 20
4.880555046929254
 30
0.0
 10
7.591667175292969
 20
4.881943596733941
 30
0.0
 10
7.506945292154947
 20
4.881943596733941
 30
0.0
 10
7.423611958821614
 20
4.880555046929254
 30
0.0
 10
7.398612128363715
 20
4.880555046929254
 30
0.0
 10
7.393056233723958
 20
4.888888041178385
 30
0.0
 10
7.393056233723958
 20
4.912499321831597
 30
0.0
 10
7.394444783528646
 20
5.161110348171658
 30
0.0
 10
7.394444783528646
 20
5.408332824707031
 30
0.0
 10
7.394444783528646
 20
5.656943851047092
 30
0.0
 10
7.394444783528646
 20
5.694444020589192
 30
0.0
 10
7.394444783528646
 20
5.694444020589192
 30
0.0
 10
7.355556064181857
 20
5.694444020589192
 30
0.0
 10
7.305556403266059
 20
5.694444020589192
 30
0.0
 10
7.254167344835069
 20
5.694444020589192
 30
0.0
 10
7.204166836208767
 20
5.694444020589192
 30
0.0
 10
7.186111450195312
 20
5.694444020589192
 30
0.0
 10
7.179167005750868
 20
5.698610517713758
 30
0.0
 10
7.179167005750868
 20
5.718055301242404
 30
0.0
 10
7.180555555555555
 20
5.799999660915798
 30
0.0
 10
7.180555555555555
 20
5.881944020589192
 30
0.0
 10
7.179167005750868
 20
5.963888804117838
 30
0.0
 10
7.179167005750868
 20
5.983333163791232
 30
0.0
 10
7.186111450195312
 20
5.988888634575738
 30
0.0
 10
7.204166836208767
 20
5.98750008477105
 30
0.0
 10
7.258333841959635
 20
5.986111111111111
 30
0.0
 10
7.311111450195312
 20
5.988889058430989
 30
0.0
 10
7.365277608235677
 20
5.986111111111111
 30
0.0
 10
7.388888888888888
 20
5.984722137451172
 30
0.0
 10
7.395833333333333
 20
5.993055555555555
 30
0.0
 10
7.395833333333333
 20
6.015277862548828
 30
0.0
 10
7.394444783528646
 20
6.088888804117838
 30
0.0
 10
7.394444783528646
 20
6.1625001695421
 30
0.0
 10
7.395833333333333
 20
6.23750008477105
 30
0.0
 10
7.397221883138021
 20
6.429166581895616
 30
0.0
 10
7.504166497124565
 20
6.559722476535373
 30
0.0
 10
7.690277947319878
 20
6.60138914320204
 30
0.0
 10
7.770833333333333
 20
6.619444529215494
 30
0.0
 10
7.852778116861979
 20
6.613889058430989
 30
0.0
 10
7.934722052680121
 20
6.609722561306423
 30
0.0
 10
7.9375
 20
6.609722561306423
 30
0.0
 10
7.940277947319878
 20
6.609722561306423
 30
0.0
 10
7.943055046929253
 20
6.608333587646484
 30
0.0
 10
7.968054877387153
 20
6.604167090521918
 30
0.0
 10
8.001388549804688
 20
6.616667005750868
 30
0.0
 10
8.013888041178385
 20
6.595833672417534
 30
0.0
 10
8.024998982747395
 20
6.579166836208767
 30
0.0
 10
8.018054538302952
 20
6.548611534966362
 30
0.0
 10
8.016665988498264
 20
6.52500025431315
 30
0.0
 10
8.015277438693577
 20
6.468055725097656
 30
0.0
 10
8.012499491373697
 20
6.4125001695421
 30
0.0
 10
8.012499491373697
 20
6.355555640326606
 30
0.0
 10
8.012499491373697
 20
6.336111280653212
 30
0.0
 10
8.00694359673394
 20
6.329166836208767
 30
0.0
 10
7.986110263400607
 20
6.329166836208767
 30
0.0
 10
7.931943257649739
 20
6.330555809868706
 30
0.0
 10
7.879165649414062
 20
6.330555809868706
 30
0.0
 10
7.824999491373697
 20
6.329166836208767
 30
0.0
 10
7.738888210720486
 20
6.329166836208767
 30
0.0
 10
7.705555386013454
 20
6.298611111111111
 30
0.0
 10
7.702777438693576
 20
6.21388922797309
 30
0.0
 10
7.699999491373697
 20
6.144444783528646
 30
0.0
 10
7.702777438693576
 20
6.076389312744141
 30
0.0
 10
7.701388888888888
 20
6.006944868299696
 30
0.0
 10
7.701388888888888
 20
5.986111534966363
 30
0.0
 10
7.712499830457899
 20
5.986111534966363
 30
0.0
 10
7.727778116861979
 20
5.986111534966363
 30
0.0
 10
7.815277947319878
 20
5.986111534966363
 30
0.0
 10
7.902777777777778
 20
5.986111534966363
 30
0.0
 10
7.99027845594618
 20
5.986111534966363
 30
0.0
 10
8.016666836208767
 20
5.98750008477105
 30
0.0
 10
8.023611280653212
 20
5.981944613986545
 30
0.0
 10
8.020833333333332
 20
5.955555386013454
 30
0.0
  0
HATCH
  5
45
330
1F
100
AcDbEntity
  8
Layer 1
 62
     7
420
 16777215
100
AcDbHatch
 10
0.0
 20
0.0
 30
0.0
210
0.0
220
0.0
230
1.0
  2
SOLID
 70
     1
 71
     0
 91
        2
 92
        1
 93
        1
 72
     4
 94
        3
 73
     0
 74
     1
 95
       38
 96
       34
 40
0.0
 40
0.0
 40
0.0
 40
0.0
 40
1.0
 40
1.0
 40
1.0
 40
2.0
 40
2.0
 40
2.0
 40
3.0
 40
3.0
 40
3.0
 40
4.0
 40
4.0
 40
4.0
 40
5.0
 40
5.0
 40
5.0
 40
6.0
 40
6.0
 40
6.0
 40
7.0
 40
7.0
 40
7.0
 40
8.0
 40
8.0
 40
8.0
 40
9.0
 40
9.0
 40
9.0
 40
10.0
 40
10.0
 40
10.0
 40
11.0
 40
11.0
 40
11.0
 40
11.0
 10
8.340277777777777
 20
6.833333333333333
 10
8.333333333333332
 20
6.879166497124565
 10
8.284722222222221
 20
6.931944529215494
 10
8.222222222222221
 20
6.931944529215494
 10
8.21388922797309
 20
6.931944529215494
 10
8.204166836208767
 20
6.933333502875434
 10
8.195832994249132
 20
6.933333502875434
 10
7.555555555555555
 20
6.933333502875434
 10
6.915277269151475
 20
6.933333502875434
 10
6.274999830457899
 20
6.933333502875434
 10
6.266666412353516
 20
6.933333502875434
 10
6.256944444444444
 20
6.931944529215494
 10
6.24861102634006
 20
6.931944529215494
 10
6.177777608235677
 20
6.926389058430989
 10
6.131944444444444
 20
6.87361102634006
 10
6.131944444444444
 20
6.797222137451172
 10
6.131944444444444
 20
6.151388804117838
 10
6.131944444444444
 20
5.506944444444444
 10
6.131944444444444
 20
4.861111111111111
 10
6.131944444444444
 20
4.774999830457899
 10
6.183333502875434
 20
4.722222222222222
 10
6.269444359673393
 20
4.722222222222222
 10
6.915277693006727
 20
4.722222222222222
 10
7.559722052680121
 20
4.722222222222222
 10
8.205555386013454
 20
4.722222222222222
 10
8.294444613986546
 20
4.722222222222222
 10
8.344444274902344
 20
4.773611280653212
 10
8.344444274902344
 20
4.862499660915798
 10
8.344444274902344
 20
5.504166497124566
 10
8.344444274902344
 20
6.147221883138021
 10
8.344444274902344
 20
6.788888719346788
 10
8.343055725097656
 20
6.804166581895616
 10
8.341666327582464
 20
6.819444444444444
 10
8.340277777777777
 20
6.833333333333333
 97
        0
 97
        0
 92
        1
 93
        1
 72
     4
 94
        3
 73
     0
 74
     1
 95
      104
 96
      100
 40
0.0
 40
0.0
 40
0.0
 40
0.0
 40
1.0
 40
1.0
 40
1.0
 40
2.0
 40
2.0
 40
2.0
 40
3.0
 40
3.0
 40
3.0
 40
4.0
 40
4.0
 40
4.0
 40
5.0
 40
5.0
 40
5.0
 40
6.0
 40
6.0
 40
6.0
 40
7.0
 40
7.0
 40
7.0
 40
8.0
 40
8.0
 40
8.0
 40
9.0
 40
9.0
 40
9.0
 40
10.0
 40
10.0
 40
10.0
 40
11.0
 40
11.0
 40
11.0
 40
12.0
 40
12.0
 40
12.0
 40
13.0
 40
13.0
 40
13.0
 40
14.0
 40
14.0
 40
14.0
 40
15.0
 40
15.0
 40
15.0
 40
16.0
 40
16.0
 40
16.0
 40
17.0
 40
17.0
 40
17.0
 40
18.0
 40
18.0
 40
18.0
 40
19.0
 40
19.0
 40
19.0
 40
20.0
 40
20.0
 40
20.0
 40
21.0
 40
21.0
 40
21.0
 40
22.0
 40
22.0
 40
22.0
 40
23.0
 40
23.0
 40
23.0
 40
24.0
 40
24.0
 40
24.0
 40
25.0
 40
25.0
 40
25.0
 40
26.0
 40
26.0
 40
26.0
 40
27.0
 40
27.0
 40
27.0
 40
28.0
 40
28.0
 40
28.0
 40
29.0
 40
29.0
 40
29.0
 40
30.0
 40
30.0
 40
30.0
 40
31.0
 40
31.0
 40
31.0
 40
32.0
 40
32.0
 40
32.0
 40
33.0
 40
33.0
 40
33.0
 40
33.0
 10
8.020833333333332
 20
5.955555386013454
 10
8.015277438693577
 20
5.902777777777778
 10
8.015277438693577
 20
5.84861077202691
 10
8.012500339084202
 20
5.795833163791232
 10
8.011111789279514
 20
5.766666412353516
 10
8.006944444444445
 20
5.737499660915798
 10
8.005555894639757
 20
5.708333333333333
 10
8.00416734483507
 20
5.688888973659939
 10
7.991667005750868
 20
5.693055470784505
 10
7.980556064181857
 20
5.693055470784505
 10
7.900000678168403
 20
5.693055470784505
 10
7.819445292154947
 20
5.691666497124566
 10
7.738889058430989
 20
5.694444444444444
 10
7.708333333333333
 20
5.695833418104383
 10
7.702778286404079
 20
5.684722052680121
 10
7.702778286404079
 20
5.656944274902344
 10
7.704166836208767
 20
5.533333248562283
 10
7.702778286404079
 20
5.409722222222222
 10
7.702778286404079
 20
5.28611077202691
 10
7.702778286404079
 20
5.28611077202691
 10
7.702778286404079
 20
5.28611077202691
 10
7.704166836208767
 20
5.28611077202691
 10
7.704166836208767
 20
5.16111077202691
 10
7.704166836208767
 20
5.03472179836697
 10
7.704166836208767
 20
4.90972179836697
 10
7.704166836208767
 20
4.887499491373697
 10
7.69861094156901
 20
4.879166497124566
 10
7.675000508626302
 20
4.880555046929254
 10
7.591667175292969
 20
4.881943596733941
 10
7.506945292154947
 20
4.881943596733941
 10
7.423611958821614
 20
4.880555046929254
 10
7.398612128363715
 20
4.880555046929254
 10
7.393056233723958
 20
4.888888041178385
 10
7.393056233723958
 20
4.912499321831597
 10
7.394444783528646
 20
5.161110348171658
 10
7.394444783528646
 20
5.408332824707031
 10
7.394444783528646
 20
5.656943851047092
 10
7.394444783528646
 20
5.694444020589192
 10
7.394444783528646
 20
5.694444020589192
 10
7.355556064181857
 20
5.694444020589192
 10
7.305556403266059
 20
5.694444020589192
 10
7.254167344835069
 20
5.694444020589192
 10
7.204166836208767
 20
5.694444020589192
 10
7.186111450195312
 20
5.694444020589192
 10
7.179167005750868
 20
5.698610517713758
 10
7.179167005750868
 20
5.718055301242404
 10
7.180555555555555
 20
5.799999660915798
 10
7.180555555555555
 20
5.881944020589192
 10
7.179167005750868
 20
5.963888804117838
 10
7.179167005750868
 20
5.983333163791232
 10
7.186111450195312
 20
5.988888634575738
 10
7.204166836208767
 20
5.98750008477105
 10
7.258333841959635
 20
5.986111111111111
 10
7.311111450195312
 20
5.988889058430989
 10
7.365277608235677
 20
5.986111111111111
 10
7.388888888888888
 20
5.984722137451172
 10
7.395833333333333
 20
5.993055555555555
 10
7.395833333333333
 20
6.015277862548828
 10
7.394444783528646
 20
6.088888804117838
 10
7.394444783528646
 20
6.1625001695421
 10
7.395833333333333
 20
6.23750008477105
 10
7.397221883138021
 20
6.429166581895616
 10
7.504166497124565
 20
6.559722476535373
 10
7.690277947319878
 20
6.60138914320204
 10
7.770833333333333
 20
6.619444529215494
 10
7.852778116861979
 20
6.613889058430989
 10
7.934722052680121
 20
6.609722561306423
 10
7.9375
 20
6.609722561306423
 10
7.940277947319878
 20
6.609722561306423
 10
7.943055046929253
 20
6.608333587646484
 10
7.968054877387153
 20
6.604167090521918
 10
8.001388549804688
 20
6.616667005750868
 10
8.013888041178385
 20
6.595833672417534
 10
8.024998982747395
 20
6.579166836208767
 10
8.018054538302952
 20
6.548611534966362
 10
8.016665988498264
 20
6.52500025431315
 10
8.015277438693577
 20
6.468055725097656
 10
8.012499491373697
 20
6.4125001695421
 10
8.012499491373697
 20
6.355555640326606
 10
8.012499491373697
 20
6.336111280653212
 10
8.00694359673394
 20
6.329166836208767
 10
7.986110263400607
 20
6.329166836208767
 10
7.931943257649739
 20
6.330555809868706
 10
7.879165649414062
 20
6.330555809868706
 10
7.824999491373697
 20
6.329166836208767
 10
7.738888210720486
 20
6.329166836208767
 10
7.705555386013454
 20
6.298611111111111
 10
7.702777438693576
 20
6.21388922797309
 10
7.699999491373697
 20
6.144444783528646
 10
7.702777438693576
 20
6.076389312744141
 10
7.701388888888888
 20
6.006944868299696
 10
7.701388888888888
 20
5.986111534966363
 10
7.712499830457899
 20
5.986111534966363
 10
7.727778116861979
 20
5.986111534966363
 10
7.815277947319878
 20
5.986111534966363
 10
7.902777777777778
 20
5.986111534966363
 10
7.99027845594618
 20
5.986111534966363
 10
8.016666836208767
 20
5.98750008477105
 10
8.023611280653212
 20
5.981944613986545
 10
8.020833333333332
 20
5.955555386013454
 97
        0
 97
        0
 75
     2
 76
     1
 98
        0
  0
INSERT
  5
47
330
1F
100
AcDbEntity
  8
Layer 1
100
AcDbBlockReference
  2
block 2
 10
0.0
 20
0.0
 30
0.0
  0
SPLINE
  5
52
330
1F
100
AcDbEntity
  8
Layer 1
370
     0
100
AcDbSpline
210
0.0
220
0.0
230
1.0
 70
    11
 71
     3
 72
   215
 73
   211
 74
     0
 42
0.0000000001
 43
0.0000000001
 12
1.0
 22
0.0
 32
0.0
 13
1.0
 23
0.0
 33
0.0
 40
0.0
 40
0.0
 40
0.0
 40
0.0
 40
1.0
 40
1.0
 40
1.0
 40
2.0
 40
2.0
 40
2.0
 40
3.0
 40
3.0
 40
3.0
 40
4.0
 40
4.0
 40
4.0
 40
5.0
 40
5.0
 40
5.0
 40
6.0
 40
6.0
 40
6.0
 40
7.0
 40
7.0
 40
7.0
 40
8.0
 40
8.0
 40
8.0
 40
9.0
 40
9.0
 40
9.0
 40
10.0
 40
10.0
 40
10.0
 40
11.0
 40
11.0
 40
11.0
 40
12.0
 40
12.0
 40
12.0
 40
13.0
 40
13.0
 40
13.0
 40
14.0
 40
14.0
 40
14.0
 40
15.0
 40
15.0
 40
15.0
 40
16.0
 40
16.0
 40
16.0
 40
17.0
 40
17.0
 40
17.0
 40
18.0
 40
18.0
 40
18.0
 40
19.0
 40
19.0
 40
19.0
 40
20.0
 40
20.0
 40
20.0
 40
21.0
 40
21.0
 40
21.0
 40
22.0
 40
22.0
 40
22.0
 40
23.0
 40
23.0
 40
23.0
 40
24.0
 40
24.0
 40
24.0
 40
25.0
 40
25.0
 40
25.0
 40
26.0
 40
26.0
 40
26.0
 40
27.0
 40
27.0
 40
27.0
 40
28.0
 40
28.0
 40
28.0
 40
29.0
 40
29.0
 40
29.0
 40
30.0
 40
30.0
 40
30.0
 40
31.0
 40
31.0
 40
31.0
 40
32.0
 40
32.0
 40
32.0
 40
33.0
 40
33.0
 40
33.0
 40
34.0
 40
34.0
 40
34.0
 40
35.0
 40
35.0
 40
35.0
 40
36.0
 40
36.0
 40
36.0
 40
37.0
 40
37.0
 40
37.0
 40
38.0
 40
38.0
 40
38.0
 40
39.0
 40
39.0
 40
39.0
 40
40.0
 40
40.0
 40
40.0
 40
41.0
 40
41.0
 40
41.0
 40
42.0
 40
42.0
 40
42.0
 40
43.0
 40
43.0
 40
43.0
 40
44.0
 40
44.0
 40
44.0
 40
45.0
 40
45.0
 40
45.0
 40
46.0
 40
46.0
 40
46.0
 40
47.0
 40
47.0
 40
47.0
 40
48.0
 40
48.0
 40
48.0
 40
49.0
 40
49.0
 40
49.0
 40
50.0
 40
50.0
 40
50.0
 40
51.0
 40
51.0
 40
51.0
 40
52.0
 40
52.0
 40
52.0
 40
53.0
 40
53.0
 40
53.0
 40
54.0
 40
54.0
 40
54.0
 40
55.0
 40
55.0
 40
55.0
 40
56.0
 40
56.0
 40
56.0
 40
57.0
 40
57.0
 40
57.0
 40
58.0
 40
58.0
 40
58.0
 40
59.0
 40
59.0
 40
59.0
 40
60.0
 40
60.0
 40
60.0
 40
61.0
 40
61.0
 40
61.0
 40
62.0
 40
62.0
 40
62.0
 40
63.0
 40
63.0
 40
63.0
 40
64.0
 40
64.0
 40
64.0
 40
65.0
 40
65.0
 40
65.0
 40
66.0
 40
66.0
 40
66.0
 40
67.0
 40
67.0
 40
67.0
 40
68.0
 40
68.0
 40
68.0
 40
69.0
 40
69.0
 40
69.0
 40
70.0
 40
70.0
 40
70.0
 40
70.0
 10
2.886111153496636
 20
6.518055386013454
 30
0.0
 10
2.880555682712131
 20
6.548611111111111
 30
0.0
 10
2.877777735392252
 20
6.580555386013454
 30
0.0
 10
2.858333375718858
 20
6.605555216471354
 30
0.0
 10
2.849999957614475
 20
6.599999745686849
 30
0.0
 10
2.847222222222222
 20
6.591666327582465
 30
0.0
 10
2.848611195882161
 20
6.584721883138021
 30
0.0
 10
2.847222222222222
 20
6.591666327582465
 30
0.0
 10
2.8500001695421
 20
6.599999745686849
 30
0.0
 10
2.858333375718858
 20
6.605555216471354
 30
0.0
 10
2.856944402058919
 20
6.60972171359592
 30
0.0
 10
2.855555640326606
 20
6.615277608235677
 30
0.0
 10
2.855555640326606
 20
6.619444105360243
 30
0.0
 10
2.856944613986545
 20
6.626388549804688
 30
0.0
 10
2.856944613986545
 20
6.633332994249131
 30
0.0
 10
2.848611195882161
 20
6.63611094156901
 30
0.0
 10
2.847222222222222
 20
6.640277438693576
 30
0.0
 10
2.844444486829969
 20
6.645833333333333
 30
0.0
 10
2.843055725097656
 20
6.649999830457899
 30
0.0
 10
2.838889016045464
 20
6.669444190131293
 30
0.0
 10
2.833333545260959
 20
6.68611102634006
 30
0.0
 10
2.813888973659939
 20
6.695832994249131
 30
0.0
 10
2.813888973659939
 20
6.697221967909071
 30
0.0
 10
2.813888973659939
 20
6.69861094156901
 30
0.0
 10
2.8125
 20
6.699999491373697
 30
0.0
 10
2.8125
 20
6.719443851047092
 30
0.0
 10
2.80000008477105
 20
6.729166242811415
 30
0.0
 10
2.784722222222222
 20
6.737499660915798
 30
0.0
 10
2.784722222222222
 20
6.737499660915798
 30
0.0
 10
2.784722222222222
 20
6.737499660915798
 30
0.0
 10
2.784722222222222
 20
6.737499660915798
 30
0.0
 10
2.744444529215495
 20
6.79722171359592
 30
0.0
 10
2.691666709052192
 20
6.843055301242404
 30
0.0
 10
2.622222264607747
 20
6.866666158040364
 30
0.0
 10
2.608333375718858
 20
6.872221628824869
 30
0.0
 10
2.59305551317003
 20
6.879166073269314
 30
0.0
 10
2.579166624281141
 20
6.884721544053819
 30
0.0
 10
2.538888931274414
 20
6.902776930067274
 30
0.0
 10
2.497222264607747
 20
6.911110348171658
 30
0.0
 10
2.454166624281141
 20
6.911110348171658
 30
0.0
 10
2.438888761732313
 20
6.911110348171658
 30
0.0
 10
2.422222137451172
 20
6.911110348171658
 30
0.0
 10
2.411110983954535
 20
6.924999237060547
 30
0.0
 10
1.987499872843424
 20
6.924999237060547
 30
0.0
 10
1.56527762942844
 20
6.924999237060547
 30
0.0
 10
1.141666518317328
 20
6.924999237060547
 30
0.0
 10
1.140277650621202
 20
6.911110348171658
 30
0.0
 10
1.126388761732313
 20
6.913888295491536
 30
0.0
 10
1.119444317287869
 20
6.906943851047092
 30
0.0
 10
1.12777762942844
 20
6.894443935818142
 30
0.0
 10
1.140277650621202
 20
6.893054962158203
 30
0.0
 10
1.151388804117838
 20
6.894443935818142
 30
0.0
 10
1.140277650621202
 20
6.893054962158203
 30
0.0
 10
1.127777735392252
 20
6.894443935818142
 30
0.0
 10
1.119444317287869
 20
6.906943851047092
 30
0.0
 10
1.115277608235677
 20
6.905554877387153
 30
0.0
 10
1.109722137451172
 20
6.905554877387153
 30
0.0
 10
1.10555542839898
 20
6.904165903727213
 30
0.0
 10
1.099999851650662
 20
6.905554877387153
 30
0.0
 10
1.094444274902344
 20
6.905554877387153
 30
0.0
 10
1.090277671813965
 20
6.899999406602647
 30
0.0
 10
1.077777650621202
 20
6.897221459282768
 30
0.0
 10
1.06527762942844
 20
6.894443935818142
 30
0.0
 10
1.05277771419949
 20
6.891665988498263
 30
0.0
 10
1.041666560702854
 20
6.893054962158203
 30
0.0
 10
1.033333248562283
 20
6.890277014838325
 30
0.0
 10
1.027777671813965
 20
6.880555046929253
 30
0.0
 10
1.022222095065647
 20
6.879166073269314
 30
0.0
 10
1.015277650621202
 20
6.877777099609375
 30
0.0
 10
1.009722073872884
 20
6.876388549804688
 30
0.0
 10
1.001388761732313
 20
6.877777523464626
 30
0.0
 10
0.9958331849839952
 20
6.873610602484809
 30
0.0
 10
0.9916664759318033
 20
6.866666158040364
 30
0.0
 10
0.9888887405395508
 20
6.866666158040364
 30
0.0
 10
0.9874997668796115
 20
6.865277184380425
 30
0.0
 10
0.9847220314873589
 20
6.865277184380425
 30
0.0
 10
0.9527775446573893
 20
6.856943766276041
 30
0.0
 10
0.9236108991834852
 20
6.841665903727213
 30
0.0
 10
0.9041664335462781
 20
6.812499576144748
 30
0.0
 10
0.9027775658501519
 20
6.812499576144748
 30
0.0
 10
0.9013886981540256
 20
6.812499576144748
 30
0.0
 10
0.8999997244940863
 20
6.811110602484809
 30
0.0
 10
0.8847219679090711
 20
6.809721628824869
 30
0.0
 10
0.8763886027865939
 20
6.799999660915798
 30
0.0
 10
0.8708330790201823
 20
6.787499321831596
 30
0.0
 10
0.8638886345757378
 20
6.780554877387153
 30
0.0
 10
0.8569441901312933
 20
6.773610432942708
 30
0.0
 10
0.8486108779907227
 20
6.765277014838325
 30
0.0
 10
0.83611085679796
 20
6.759721544053819
 30
0.0
 10
0.8277775446573893
 20
6.751388125949435
 30
0.0
 10
0.8249997562832302
 20
6.737499237060547
 30
0.0
 10
0.8249997562832302
 20
6.737499237060547
 30
0.0
 10
0.8249997562832302
 20
6.737499237060547
 30
0.0
 10
0.8249997562832302
 20
6.737499237060547
 30
0.0
 10
0.7958331108093262
 20
6.713887956407334
 30
0.0
 10
0.7805553012424045
 20
6.681943681504991
 30
0.0
 10
0.7680553330315484
 20
6.648610432942708
 30
0.0
 10
0.7624997562832302
 20
6.634721544053819
 30
0.0
 10
0.7569442325168185
 20
6.619443681504991
 30
0.0
 10
0.7513886557685004
 20
6.605554792616102
 30
0.0
 10
0.7444442113240559
 20
6.599999321831596
 30
0.0
 10
0.7430553436279297
 20
6.593054877387153
 30
0.0
 10
0.7444442113240559
 20
6.584721459282768
 30
0.0
 10
0.7444442113240559
 20
6.580554962158203
 30
0.0
 10
0.7430553436279297
 20
6.576388041178385
 30
0.0
 10
0.7430553436279297
 20
6.572221544053819
 30
0.0
 10
0.7333331108093262
 20
6.57083257039388
 30
0.0
 10
0.7277775870429145
 20
6.565277099609375
 30
0.0
 10
0.7263886663648816
 20
6.554166158040364
 30
0.0
 10
0.7236108779907227
 20
6.538888295491536
 30
0.0
 10
0.7236108779907227
 20
6.522221883138021
 30
0.0
 10
0.7111109097798665
 20
6.509721544053819
 30
0.0
 10
0.7111109097798665
 20
6.056943681504991
 30
0.0
 10
0.7111109097798665
 20
5.605554792616102
 30
0.0
 10
0.7111109097798665
 20
5.152776930067274
 30
0.0
 10
0.718055354224311
 20
5.149998982747396
 30
0.0
 10
0.7166664865281847
 20
5.143054538302951
 30
0.0
 10
0.7194442219204372
 20
5.137499067518446
 30
0.0
 10
0.7361108991834852
 20
5.104165818956163
 30
0.0
 10
0.7333331108093262
 20
5.062499152289496
 30
0.0
 10
0.7597220208909776
 20
5.03194342719184
 30
0.0
 10
0.763888676961263
 20
5.023610009087457
 30
0.0
 10
0.766666465335422
 20
5.015276590983072
 30
0.0
 10
0.7708331214057075
 20
5.005554623074001
 30
0.0
 10
0.7694442537095811
 20
5.001388125949435
 30
0.0
 10
0.7722219891018337
 20
4.997221204969618
 30
0.0
 10
0.7763886981540256
 20
4.995832231309678
 30
0.0
 10
0.7791664865281847
 20
4.988887786865234
 30
0.0
 10
0.78333314259847
 20
4.983332316080729
 30
0.0
 10
0.7861109309726291
 20
4.976387871636285
 30
0.0
 10
0.7944442431131998
 20
4.952776590983072
 30
0.0
 10
0.8013886875576443
 20
4.927776760525173
 30
0.0
 10
0.8277775976392957
 20
4.916665818956163
 30
0.0
 10
0.8277775976392957
 20
4.913887871636285
 30
0.0
 10
0.829166465335422
 20
4.912499321831597
 30
0.0
 10
0.8305553860134548
 20
4.911110348171658
 30
0.0
 10
0.8319442537095811
 20
4.893054962158203
 30
0.0
 10
0.8416664865281847
 20
4.884721544053819
 30
0.0
 10
0.8583331637912326
 20
4.883332994249131
 30
0.0
 10
0.8638887405395508
 20
4.872222052680121
 30
0.0
 10
0.8736109203762478
 20
4.865277608235677
 30
0.0
 10
0.884722073872884
 20
4.858333163791232
 30
0.0
 10
0.8999998304578992
 20
4.840277777777778
 30
0.0
 10
0.9152775870429144
 20
4.820832994249131
 30
0.0
 10
0.9430553648206922
 20
4.820832994249131
 30
0.0
 10
0.9430553648206922
 20
4.820832994249131
 30
0.0
 10
0.9430553648206922
 20
4.820832994249131
 30
0.0
 10
0.9430553648206922
 20
4.820832994249131
 30
0.0
 10
0.9805553224351671
 20
4.777777777777778
 30
0.0
 10
1.030555407206217
 20
4.765277438693576
 30
0.0
 10
1.083333121405707
 20
4.752777099609375
 30
0.0
 10
1.098610877990723
 20
4.748610602484809
 30
0.0
 10
1.11805534362793
 20
4.754165649414062
 30
0.0
 10
1.127777523464627
 20
4.737499660915798
 30
0.0
 10
1.562499788072374
 20
4.737499660915798
 30
0.0
 10
1.998610814412435
 20
4.737499660915798
 30
0.0
 10
2.433333079020182
 20
4.737499660915798
 30
0.0
 10
2.441666497124566
 20
4.74583265516493
 30
0.0
 10
2.456944147745768
 20
4.738888210720486
 30
0.0
 10
2.462499830457899
 20
4.75
 30
0.0
 10
2.455555386013455
 20
4.759722391764322
 30
0.0
 10
2.445833206176758
 20
4.76111094156901
 30
0.0
 10
2.434722052680121
 20
4.759722391764322
 30
0.0
 10
2.444444232516819
 20
4.76111094156901
 30
0.0
 10
2.454166412353516
 20
4.76111094156901
 30
0.0
 10
2.462499830457899
 20
4.75
 30
0.0
 10
2.473610983954535
 20
4.751388549804688
 30
0.0
 10
2.486110899183485
 20
4.752777947319879
 30
0.0
 10
2.497222052680121
 20
4.754166497124566
 30
0.0
 10
2.516666412353516
 20
4.751388549804688
 30
0.0
 10
2.533333248562283
 20
4.754166497124566
 30
0.0
 10
2.548610899183485
 20
4.766666836208767
 30
0.0
 10
2.552777608235677
 20
4.768055386013454
 30
0.0
 10
2.558333079020182
 20
4.768055386013454
 30
0.0
 10
2.562499788072374
 20
4.769444783528646
 30
0.0
 10
2.588888592190213
 20
4.772222730848524
 30
0.0
 10
2.613888634575738
 20
4.780555725097656
 30
0.0
 10
2.633333206176758
 20
4.798611111111111
 30
0.0
 10
2.644444359673394
 20
4.804167005750868
 30
0.0
 10
2.65555551317003
 20
4.811111450195312
 30
0.0
 10
2.665277693006727
 20
4.816666497124566
 30
0.0
 10
2.6875
 20
4.819444444444444
 30
0.0
 10
2.702777650621202
 20
4.830555386013454
 30
0.0
 10
2.712499830457899
 20
4.851388719346788
 30
0.0
 10
2.724999745686849
 20
4.855555216471354
 30
0.0
 10
2.731944190131293
 20
4.863889058430989
 30
0.0
 10
2.738888634575738
 20
4.875
 30
0.0
 10
2.756944232516819
 20
4.881944444444444
 30
0.0
 10
2.769444147745768
 20
4.894444359673394
 30
0.0
 10
2.776388592190213
 20
4.9125001695421
 30
0.0
 10
2.779166327582465
 20
4.916666666666666
 30
0.0
 10
2.781944062974718
 20
4.920833587646484
 30
0.0
 10
2.784722010294596
 20
4.92500008477105
 30
0.0
 10
2.809722052680121
 20
4.938888973659939
 30
0.0
 10
2.819444232516819
 20
4.961111280653212
 30
0.0
 10
2.826388676961263
 20
4.98750008477105
 30
0.0
 10
2.833333121405707
 20
4.995833502875434
 30
0.0
 10
2.840277565850152
 20
5.005555470784505
 30
0.0
 10
2.841666539510091
 20
5.016666836208767
 30
0.0
 10
2.856944402058919
 20
5.031944698757595
 30
0.0
 10
2.859722137451172
 20
5.054167005750868
 30
0.0
 10
2.870833290947808
 20
5.073611365424262
 30
0.0
 10
2.888888888888889
 20
5.106944613986545
 30
0.0
 10
2.877777735392252
 20
5.145833757188584
 30
0.0
 10
2.898611068725586
 20
5.177778032090928
 30
0.0
 10
2.898611068725586
 20
5.611111534966363
 30
0.0
 10
2.898611068725586
 20
6.043055640326606
 30
0.0
 10
2.898611068725586
 20
6.47638914320204
 30
0.0
 10
2.88749991522895
 20
6.486111111111111
 30
0.0
 10
2.888888888888889
 20
6.502777947319878
 30
0.0
 10
2.886111153496636
 20
6.518055386013454
 30
0.0
  0
SPLINE
  5
53
330
1F
100
AcDbEntity
  8
Layer 1
370
     0
100
AcDbSpline
210
0.0
220
0.0
230
1.0
 70
    11
 71
     3
 72
   575
 73
   571
 74
     0
 42
0.0000000001
 43
0.0000000001
 12
1.0
 22
0.0
 32
0.0
 13
1.0
 23
0.0
 33
0.0
 40
0.0
 40
0.0
 40
0.0
 40
0.0
 40
1.0
 40
1.0
 40
1.0
 40
2.0
 40
2.0
 40
2.0
 40
3.0
 40
3.0
 40
3.0
 40
4.0
 40
4.0
 40
4.0
 40
5.0
 40
5.0
 40
5.0
 40
6.0
 40
6.0
 40
6.0
 40
7.0
 40
7.0
 40
7.0
 40
8.0
 40
8.0
 40
8.0
 40
9.0
 40
9.0
 40
9.0
 40
10.0
 40
10.0
 40
10.0
 40
11.0
 40
11.0
 40
11.0
 40
12.0
 40
12.0
 40
12.0
 40
13.0
 40
13.0
 40
13.0
 40
14.0
 40
14.0
 40
14.0
 40
15.0
 40
15.0
 40
15.0
 40
16.0
 40
16.0
 40
16.0
 40
17.0
 40
17.0
 40
17.0
 40
18.0
 40
18.0
 40
18.0
 40
19.0
 40
19.0
 40
19.0
 40
20.0
 40
20.0
 40
20.0
 40
21.0
 40
21.0
 40
21.0
 40
22.0
 40
22.0
 40
22.0
 40
23.0
 40
23.0
 40
23.0
 40
24.0
 40
24.0
 40
24.0
 40
25.0
 40
25.0
 40
25.0
 40
26.0
 40
26.0
 40
26.0
 40
27.0
 40
27.0
 40
27.0
 40
28.0
 40
28.0
 40
28.0
 40
29.0
 40
29.0
 40
29.0
 40
30.0
 40
30.0
 40
30.0
 40
31.0
 40
31.0
 40
31.0
 40
32.0
 40
32.0
 40
32.0
 40
33.0
 40
33.0
 40
33.0
 40
34.0
 40
34.0
 40
34.0
 40
35.0
 40
35.0
 40
35.0
 40
36.0
 40
36.0
 40
36.0
 40
37.0
 40
37.0
 40
37.0
 40
38.0
 40
38.0
 40
38.0
 40
39.0
 40
39.0
 40
39.0
 40
40.0
 40
40.0
 40
40.0
 40
41.0
 40
41.0
 40
41.0
 40
42.0
 40
42.0
 40
42.0
 40
43.0
 40
43.0
 40
43.0
 40
44.0
 40
44.0
 40
44.0
 40
45.0
 40
45.0
 40
45.0
 40
46.0
 40
46.0
 40
46.0
 40
47.0
 40
47.0
 40
47.0
 40
48.0
 40
48.0
 40
48.0
 40
49.0
 40
49.0
 40
49.0
 40
50.0
 40
50.0
 40
50.0
 40
51.0
 40
51.0
 40
51.0
 40
52.0
 40
52.0
 40
52.0
 40
53.0
 40
53.0
 40
53.0
 40
54.0
 40
54.0
 40
54.0
 40
55.0
 40
55.0
 40
55.0
 40
56.0
 40
56.0
 40
56.0
 40
57.0
 40
57.0
 40
57.0
 40
58.0
 40
58.0
 40
58.0
 40
59.0
 40
59.0
 40
59.0
 40
60.0
 40
60.0
 40
60.0
 40
61.0
 40
61.0
 40
61.0
 40
62.0
 40
62.0
 40
62.0
 40
63.0
 40
63.0
 40
63.0
 40
64.0
 40
64.0
 40
64.0
 40
65.0
 40
65.0
 40
65.0
 40
66.0
 40
66.0
 40
66.0
 40
67.0
 40
67.0
 40
67.0
 40
68.0
 40
68.0
 40
68.0
 40
69.0
 40
69.0
 40
69.0
 40
70.0
 40
70.0
 40
70.0
 40
71.0
 40
71.0
 40
71.0
 40
72.0
 40
72.0
 40
72.0
 40
73.0
 40
73.0
 40
73.0
 40
74.0
 40
74.0
 40
74.0
 40
75.0
 40
75.0
 40
75.0
 40
76.0
 40
76.0
 40
76.0
 40
77.0
 40
77.0
 40
77.0
 40
78.0
 40
78.0
 40
78.0
 40
79.0
 40
79.0
 40
79.0
 40
80.0
 40
80.0
 40
80.0
 40
81.0
 40
81.0
 40
81.0
 40
82.0
 40
82.0
 40
82.0
 40
83.0
 40
83.0
 40
83.0
 40
84.0
 40
84.0
 40
84.0
 40
85.0
 40
85.0
 40
85.0
 40
86.0
 40
86.0
 40
86.0
 40
87.0
 40
87.0
 40
87.0
 40
88.0
 40
88.0
 40
88.0
 40
89.0
 40
89.0
 40
89.0
 40
90.0
 40
90.0
 40
90.0
 40
91.0
 40
91.0
 40
91.0
 40
92.0
 40
92.0
 40
92.0
 40
93.0
 40
93.0
 40
93.0
 40
94.0
 40
94.0
 40
94.0
 40
95.0
 40
95.0
 40
95.0
 40
96.0
 40
96.0
 40
96.0
 40
97.0
 40
97.0
 40
97.0
 40
98.0
 40
98.0
 40
98.0
 40
99.0
 40
99.0
 40
99.0
 40
100.0
 40
100.0
 40
100.0
 40
101.0
 40
101.0
 40
101.0
 40
102.0
 40
102.0
 40
102.0
 40
103.0
 40
103.0
 40
103.0
 40
104.0
 40
104.0
 40
104.0
 40
105.0
 40
105.0
 40
105.0
 40
106.0
 40
106.0
 40
106.0
 40
107.0
 40
107.0
 40
107.0
 40
108.0
 40
108.0
 40
108.0
 40
109.0
 40
109.0
 40
109.0
 40
110.0
 40
110.0
 40
110.0
 40
111.0
 40
111.0
 40
111.0
 40
112.0
 40
112.0
 40
112.0
 40
113.0
 40
113.0
 40
113.0
 40
114.0
 40
114.0
 40
114.0
 40
115.0
 40
115.0
 40
115.0
 40
116.0
 40
116.0
 40
116.0
 40
117.0
 40
117.0
 40
117.0
 40
118.0
 40
118.0
 40
118.0
 40
119.0
 40
119.0
 40
119.0
 40
120.0
 40
120.0
 40
120.0
 40
121.0
 40
121.0
 40
121.0
 40
122.0
 40
122.0
 40
122.0
 40
123.0
 40
123.0
 40
123.0
 40
124.0
 40
124.0
 40
124.0
 40
125.0
 40
125.0
 40
125.0
 40
126.0
 40
126.0
 40
126.0
 40
127.0
 40
127.0
 40
127.0
 40
128.0
 40
128.0
 40
128.0
 40
129.0
 40
129.0
 40
129.0
 40
130.0
 40
130.0
 40
130.0
 40
131.0
 40
131.0
 40
131.0
 40
132.0
 40
132.0
 40
132.0
 40
133.0
 40
133.0
 40
133.0
 40
134.0
 40
134.0
 40
134.0
 40
135.0
 40
135.0
 40
135.0
 40
136.0
 40
136.0
 40
136.0
 40
137.0
 40
137.0
 40
137.0
 40
138.0
 40
138.0
 40
138.0
 40
139.0
 40
139.0
 40
139.0
 40
140.0
 40
140.0
 40
140.0
 40
141.0
 40
141.0
 40
141.0
 40
142.0
 40
142.0
 40
142.0
 40
143.0
 40
143.0
 40
143.0
 40
144.0
 40
144.0
 40
144.0
 40
145.0
 40
145.0
 40
145.0
 40
146.0
 40
146.0
 40
146.0
 40
147.0
 40
147.0
 40
147.0
 40
148.0
 40
148.0
 40
148.0
 40
149.0
 40
149.0
 40
149.0
 40
150.0
 40
150.0
 40
150.0
 40
151.0
 40
151.0
 40
151.0
 40
152.0
 40
152.0
 40
152.0
 40
153.0
 40
153.0
 40
153.0
 40
154.0
 40
154.0
 40
154.0
 40
155.0
 40
155.0
 40
155.0
 40
156.0
 40
156.0
 40
156.0
 40
157.0
 40
157.0
 40
157.0
 40
158.0
 40
158.0
 40
158.0
 40
159.0
 40
159.0
 40
159.0
 40
160.0
 40
160.0
 40
160.0
 40
161.0
 40
161.0
 40
161.0
 40
162.0
 40
162.0
 40
162.0
 40
163.0
 40
163.0
 40
163.0
 40
164.0
 40
164.0
 40
164.0
 40
165.0
 40
165.0
 40
165.0
 40
166.0
 40
166.0
 40
166.0
 40
167.0
 40
167.0
 40
167.0
 40
168.0
 40
168.0
 40
168.0
 40
169.0
 40
169.0
 40
169.0
 40
170.0
 40
170.0
 40
170.0
 40
171.0
 40
171.0
 40
171.0
 40
172.0
 40
172.0
 40
172.0
 40
173.0
 40
173.0
 40
173.0
 40
174.0
 40
174.0
 40
174.0
 40
175.0
 40
175.0
 40
175.0
 40
176.0
 40
176.0
 40
176.0
 40
177.0
 40
177.0
 40
177.0
 40
178.0
 40
178.0
 40
178.0
 40
179.0
 40
179.0
 40
179.0
 40
180.0
 40
180.0
 40
180.0
 40
181.0
 40
181.0
 40
181.0
 40
182.0
 40
182.0
 40
182.0
 40
183.0
 40
183.0
 40
183.0
 40
184.0
 40
184.0
 40
184.0
 40
185.0
 40
185.0
 40
185.0
 40
186.0
 40
186.0
 40
186.0
 40
187.0
 40
187.0
 40
187.0
 40
188.0
 40
188.0
 40
188.0
 40
189.0
 40
189.0
 40
189.0
 40
190.0
 40
190.0
 40
190.0
 40
190.0
 10
2.548611111111111
 20
5.359722137451172
 30
0.0
 10
2.548611111111111
 20
5.359722137451172
 30
0.0
 10
2.548611111111111
 20
5.359722137451172
 30
0.0
 10
2.548611111111111
 20
5.359722137451172
 30
0.0
 10
2.543055640326606
 20
5.361111111111111
 30
0.0
 10
2.537499957614475
 20
5.359722137451172
 30
0.0
 10
2.534722222222222
 20
5.352777693006727
 30
0.0
 10
2.53055551317003
 20
5.351388719346788
 30
0.0
 10
2.525000042385525
 20
5.349999745686849
 30
0.0
 10
2.520833333333333
 20
5.348611195882161
 30
0.0
 10
2.516666624281141
 20
5.340277777777778
 30
0.0
 10
2.51249991522895
 20
5.330555809868707
 30
0.0
 10
2.505555470784505
 20
5.330555809868707
 30
0.0
 10
2.51249991522895
 20
5.331944783528646
 30
0.0
 10
2.516666624281141
 20
5.340278201633029
 30
0.0
 10
2.520833333333333
 20
5.348611195882161
 30
0.0
 10
2.508333418104383
 20
5.35138914320204
 30
0.0
 10
2.498611026340061
 20
5.347222222222222
 30
0.0
 10
2.490277820163303
 20
5.338888804117838
 30
0.0
 10
2.483333375718858
 20
5.337499830457899
 30
0.0
 10
2.476388931274414
 20
5.336110856797959
 30
0.0
 10
2.469444486829969
 20
5.334722306993272
 30
0.0
 10
2.469444486829969
 20
5.333333333333333
 30
0.0
 10
2.469444486829969
 20
5.330555809868707
 30
0.0
 10
2.46805551317003
 20
5.329166836208767
 30
0.0
 10
2.46805551317003
 20
5.330555809868707
 30
0.0
 10
2.469444486829969
 20
5.333333333333333
 30
0.0
 10
2.469444486829969
 20
5.334722306993272
 30
0.0
 10
2.434722264607747
 20
5.327777862548828
 30
0.0
 10
2.387500127156575
 20
5.341666751437717
 30
0.0
 10
2.377777735392252
 20
5.286111195882161
 30
0.0
 10
2.375
 20
5.273611280653212
 30
0.0
 10
2.373611026340061
 20
5.261111365424262
 30
0.0
 10
2.370833290947808
 20
5.24861102634006
 30
0.0
 10
2.370833290947808
 20
5.24861102634006
 30
0.0
 10
2.370833290947808
 20
5.24861102634006
 30
0.0
 10
2.370833290947808
 20
5.24861102634006
 30
0.0
 10
2.365277820163303
 20
5.245833079020182
 30
0.0
 10
2.363888846503364
 20
5.240277608235677
 30
0.0
 10
2.363888846503364
 20
5.234722137451172
 30
0.0
 10
2.362499872843424
 20
5.233333163791232
 30
0.0
 10
2.362499872843424
 20
5.231944190131293
 30
0.0
 10
2.362499872843424
 20
5.230555640326606
 30
0.0
 10
2.362499872843424
 20
5.230555640326606
 30
0.0
 10
2.362499872843424
 20
5.230555640326606
 30
0.0
 10
2.362499872843424
 20
5.230555640326606
 30
0.0
 10
2.354166454739041
 20
5.22638914320204
 30
0.0
 10
2.345833248562283
 20
5.222222222222222
 30
0.0
 10
2.337499830457899
 20
5.219444698757595
 30
0.0
 10
2.32499991522895
 20
5.220833672417535
 30
0.0
 10
2.313888761732313
 20
5.220833672417535
 30
0.0
 10
2.301388634575738
 20
5.222222646077474
 30
0.0
 10
2.301388634575738
 20
5.222222646077474
 30
0.0
 10
2.301388634575738
 20
5.222222646077474
 30
0.0
 10
2.301388634575738
 20
5.222222646077474
 30
0.0
 10
2.247222052680121
 20
5.238889482286241
 30
0.0
 10
2.193055258856879
 20
5.243055979410807
 30
0.0
 10
2.140277438693576
 20
5.222222646077474
 30
0.0
 10
2.136110729641385
 20
5.220833672417535
 30
0.0
 10
2.130555258856879
 20
5.220833672417535
 30
0.0
 10
2.126388549804688
 20
5.219444698757595
 30
0.0
 10
2.126388549804688
 20
5.219444698757595
 30
0.0
 10
2.126388549804688
 20
5.219444698757595
 30
0.0
 10
2.126388549804688
 20
5.219444698757595
 30
0.0
 10
2.102777481079102
 20
5.219444698757595
 30
0.0
 10
2.08611085679796
 20
5.204166836208767
 30
0.0
 10
2.070832994249132
 20
5.187500423855251
 30
0.0
 10
2.065277523464627
 20
5.184722476535373
 30
0.0
 10
2.058333079020182
 20
5.180555979410807
 30
0.0
 10
2.052777396308051
 20
5.177778032090928
 30
0.0
 10
2.052777396308051
 20
5.177778032090928
 30
0.0
 10
2.052777396308051
 20
5.177778032090928
 30
0.0
 10
2.052777396308051
 20
5.177778032090928
 30
0.0
 10
2.027777353922526
 20
5.169444613986545
 30
0.0
 10
2.011110729641385
 20
5.15000025431315
 30
0.0
 10
1.993055131700304
 20
5.133333418104383
 30
0.0
 10
1.991666158040365
 20
5.133333418104383
 30
0.0
 10
1.990277396308051
 20
5.133333418104383
 30
0.0
 10
1.988888422648112
 20
5.131944444444444
 30
0.0
 10
1.988888422648112
 20
5.131944444444444
 30
0.0
 10
1.988888422648112
 20
5.131944444444444
 30
0.0
 10
1.988888422648112
 20
5.131944444444444
 30
0.0
 10
1.979166242811415
 20
5.133333418104383
 30
0.0
 10
1.973610560099284
 20
5.129166497124566
 30
0.0
 10
1.970832824707031
 20
5.120833502875434
 30
0.0
 10
1.943055046929253
 20
5.109722561306423
 30
0.0
 10
1.915277269151476
 20
5.098611195882161
 30
0.0
 10
1.887499491373698
 20
5.08750025431315
 30
0.0
 10
1.886110517713758
 20
5.086111280653212
 30
0.0
 10
1.886110517713758
 20
5.083333757188584
 30
0.0
 10
1.884721755981445
 20
5.080555809868707
 30
0.0
 10
1.886110729641384
 20
5.083333757188584
 30
0.0
 10
1.886110729641384
 20
5.084722306993272
 30
0.0
 10
1.887499491373698
 20
5.08750025431315
 30
0.0
 10
1.836110644870334
 20
5.080555809868707
 30
0.0
 10
1.78472179836697
 20
5.081944783528646
 30
0.0
 10
1.73472171359592
 20
5.08750025431315
 30
0.0
 10
1.730555004543728
 20
5.08888922797309
 30
0.0
 10
1.724999533759223
 20
5.08888922797309
 30
0.0
 10
1.720832824707031
 20
5.090278201633029
 30
0.0
 10
1.720832824707031
 20
5.090278201633029
 30
0.0
 10
1.720832824707031
 20
5.090278201633029
 30
0.0
 10
1.720832824707031
 20
5.090278201633029
 30
0.0
 10
1.668055004543728
 20
5.109722561306423
 30
0.0
 10
1.622221734788683
 20
5.140278286404079
 30
0.0
 10
1.576388359069824
 20
5.170833587646484
 30
0.0
 10
1.570832782321506
 20
5.173611534966363
 30
0.0
 10
1.566666179233127
 20
5.176389058430989
 30
0.0
 10
1.561110602484809
 20
5.179167005750868
 30
0.0
 10
1.561110602484809
 20
5.179167005750868
 30
0.0
 10
1.561110602484809
 20
5.179167005750868
 30
0.0
 10
1.561110602484809
 20
5.179167005750868
 30
0.0
 10
1.540277269151476
 20
5.200000339084201
 30
0.0
 10
1.51527722676595
 20
5.21250025431315
 30
0.0
 10
1.487499448988173
 20
5.219444698757595
 30
0.0
 10
1.483332739935981
 20
5.220833672417535
 30
0.0
 10
1.477777269151476
 20
5.220833672417535
 30
0.0
 10
1.473610560099284
 20
5.222222646077474
 30
0.0
 10
1.473610560099284
 20
5.222222646077474
 30
0.0
 10
1.473610560099284
 20
5.222222646077474
 30
0.0
 10
1.473610560099284
 20
5.222222646077474
 30
0.0
 10
1.419443872239855
 20
5.244444953070746
 30
0.0
 10
1.365277184380425
 20
5.240278032090928
 30
0.0
 10
1.312499470180935
 20
5.222222646077474
 30
0.0
 10
1.305555025736491
 20
5.222222646077474
 30
0.0
 10
1.298610581292046
 20
5.220833672417535
 30
0.0
 10
1.290277269151476
 20
5.220833672417535
 30
0.0
 10
1.290277269151476
 20
5.220833672417535
 30
0.0
 10
1.290277269151476
 20
5.220833672417535
 30
0.0
 10
1.290277269151476
 20
5.220833672417535
 30
0.0
 10
1.261110623677572
 20
5.219444698757595
 30
0.0
 10
1.248610602484809
 20
5.236111534966363
 30
0.0
 10
1.243055025736491
 20
5.262500339084201
 30
0.0
 10
1.240277290344238
 20
5.27500025431315
 30
0.0
 10
1.244443893432617
 20
5.290278116861979
 30
0.0
 10
1.230555004543728
 20
5.297222561306423
 30
0.0
 10
1.229166136847602
 20
5.301389058430989
 30
0.0
 10
1.227777269151476
 20
5.304167005750868
 30
0.0
 10
1.226388295491536
 20
5.308333502875434
 30
0.0
 10
1.226388295491536
 20
5.308333502875434
 30
0.0
 10
1.226388295491536
 20
5.308333502875434
 30
0.0
 10
1.226388295491536
 20
5.308333502875434
 30
0.0
 10
1.205554962158203
 20
5.33750025431315
 30
0.0
 10
1.173610475328233
 20
5.331944783528646
 30
0.0
 10
1.144443829854329
 20
5.336111280653212
 30
0.0
 10
1.140277120802138
 20
5.33750025431315
 30
0.0
 10
1.134721650017632
 20
5.33750025431315
 30
0.0
 10
1.130554940965441
 20
5.33888922797309
 30
0.0
 10
1.130554940965441
 20
5.33888922797309
 30
0.0
 10
1.130554940965441
 20
5.33888922797309
 30
0.0
 10
1.130554940965441
 20
5.33888922797309
 30
0.0
 10
1.104166030883789
 20
5.356944613986545
 30
0.0
 10
1.069443808661567
 20
5.356944613986545
 30
0.0
 10
1.041666030883789
 20
5.376389397515191
 30
0.0
 10
1.006943808661567
 20
5.40138922797309
 30
0.0
 10
1.006943808661567
 20
5.416667090521918
 30
0.0
 10
1.041666030883789
 20
5.437500423855251
 30
0.0
 10
1.045832739935981
 20
5.437500423855251
 30
0.0
 10
1.051388210720486
 20
5.438889397515191
 30
0.0
 10
1.055554919772678
 20
5.438889397515191
 30
0.0
 10
1.069443808661567
 20
5.436111450195312
 30
0.0
 10
1.083332697550456
 20
5.44027837117513
 30
0.0
 10
1.093054877387153
 20
5.451389312744141
 30
0.0
 10
1.099999321831597
 20
5.454167260064019
 30
0.0
 10
1.106943766276042
 20
5.456944783528646
 30
0.0
 10
1.115277078416612
 20
5.459722730848524
 30
0.0
 10
1.115277078416612
 20
5.459722730848524
 30
0.0
 10
1.115277078416612
 20
5.459722730848524
 30
0.0
 10
1.115277078416612
 20
5.459722730848524
 30
0.0
 10
1.118054813808865
 20
5.462500678168403
 30
0.0
 10
1.122221522861057
 20
5.46388922797309
 30
0.0
 10
1.124999258253309
 20
5.466667175292969
 30
0.0
 10
1.131943702697754
 20
5.469445122612847
 30
0.0
 10
1.138888147142198
 20
5.472222646077474
 30
0.0
 10
1.144443723890517
 20
5.473611619737413
 30
0.0
 10
1.144443723890517
 20
5.473611619737413
 30
0.0
 10
1.144443723890517
 20
5.473611619737413
 30
0.0
 10
1.144443723890517
 20
5.473611619737413
 30
0.0
 10
1.159721480475532
 20
5.477778116861979
 30
0.0
 10
1.17361036936442
 20
5.480556064181857
 30
0.0
 10
1.180554813808865
 20
5.497222900390625
 30
0.0
 10
1.193054835001627
 20
5.506945292154947
 30
0.0
 10
1.204165882534451
 20
5.516667260064019
 30
0.0
 10
1.216665903727213
 20
5.526389651828342
 30
0.0
 10
1.216665903727213
 20
5.526389651828342
 30
0.0
 10
1.216665903727213
 20
5.526389651828342
 30
0.0
 10
1.216665903727213
 20
5.526389651828342
 30
0.0
 10
1.25833257039388
 20
5.559722900390625
 30
0.0
 10
1.29861036936442
 20
5.595834096272786
 30
0.0
 10
1.32083257039388
 20
5.647223154703775
 30
0.0
 10
1.32083257039388
 20
5.647223154703775
 30
0.0
 10
1.322221438090006
 20
5.648612128363715
 30
0.0
 10
1.322221438090006
 20
5.648612128363715
 30
0.0
 10
1.322221438090006
 20
5.648612128363715
 30
0.0
 10
1.322221438090006
 20
5.648612128363715
 30
0.0
 10
1.322221438090006
 20
5.648612128363715
 30
0.0
 10
1.338888062371148
 20
5.659723069932725
 30
0.0
 10
1.34305477142334
 20
5.676389906141493
 30
0.0
 10
1.348610348171658
 20
5.694445292154947
 30
0.0
 10
1.349999215867784
 20
5.698611789279513
 30
0.0
 10
1.35138808356391
 20
5.701389736599392
 30
0.0
 10
1.35277705722385
 20
5.705556233723958
 30
0.0
 10
1.35277705722385
 20
5.705556233723958
 30
0.0
 10
1.35277705722385
 20
5.705556233723958
 30
0.0
 10
1.35277705722385
 20
5.705556233723958
 30
0.0
 10
1.38333257039388
 20
5.745833926730685
 30
0.0
 10
1.38333257039388
 20
5.777778625488281
 30
0.0
 10
1.354165924919976
 20
5.805556403266059
 30
0.0
 10
1.35277705722385
 20
5.806945376925998
 30
0.0
 10
1.35277705722385
 20
5.808334350585938
 30
0.0
 10
1.349999215867784
 20
5.808334350585938
 30
0.0
 10
1.349999215867784
 20
5.808334350585938
 30
0.0
 10
1.349999215867784
 20
5.808334350585938
 30
0.0
 10
1.349999215867784
 20
5.808334350585938
 30
0.0
 10
1.334721459282769
 20
5.833334181043837
 30
0.0
 10
1.306943681504991
 20
5.84166759914822
 30
0.0
 10
1.28055477142334
 20
5.850001017252604
 30
0.0
 10
1.249999258253309
 20
5.859723409016927
 30
0.0
 10
1.21805477142334
 20
5.869445376925998
 30
0.0
 10
1.193054729037815
 20
5.891667683919271
 30
0.0
 10
1.179165840148926
 20
5.902778625488281
 30
0.0
 10
1.174999131096734
 20
5.918056488037109
 30
0.0
 10
1.179165840148926
 20
5.933334350585938
 30
0.0
 10
1.183332549201118
 20
5.951389736599392
 30
0.0
 10
1.197221438090006
 20
5.961112128363715
 30
0.0
 10
1.215276930067274
 20
5.965278625488281
 30
0.0
 10
1.23888799879286
 20
5.969445122612847
 30
0.0
 10
1.262499173482259
 20
5.963889651828342
 30
0.0
 10
1.286110242207845
 20
5.956945207383897
 30
0.0
 10
1.309721310933431
 20
5.947222815619575
 30
0.0
 10
1.334721353318956
 20
5.947222815619575
 30
0.0
 10
1.359721395704481
 20
5.952778710259332
 30
0.0
 10
1.363888104756673
 20
5.965278625488281
 30
0.0
 10
1.362499131096734
 20
5.97916751437717
 30
0.0
 10
1.368054707845052
 20
5.990278879801432
 30
0.0
 10
1.362499131096734
 20
5.979167938232422
 30
0.0
 10
1.36388799879286
 20
5.965279049343533
 30
0.0
 10
1.359721395704481
 20
5.952778710259332
 30
0.0
 10
1.397221353318956
 20
5.955556657579209
 30
0.0
 10
1.380554729037815
 20
5.983334435356988
 30
0.0
 10
1.381943596733941
 20
6.002778795030381
 30
0.0
 10
1.381943596733941
 20
6.009723239474826
 30
0.0
 10
1.381943596733941
 20
6.016667683919271
 30
0.0
 10
1.381943596733941
 20
6.023612128363715
 30
0.0
 10
1.368054707845052
 20
6.026390075683594
 30
0.0
 10
1.368054707845052
 20
6.034723069932725
 30
0.0
 10
1.368054707845052
 20
6.044445461697048
 30
0.0
 10
1.368054707845052
 20
6.034723069932725
 30
0.0
 10
1.368054707845052
 20
6.026390075683594
 30
0.0
 10
1.381943596733941
 20
6.023612128363715
 30
0.0
 10
1.379165861341688
 20
6.079167683919271
 30
0.0
 10
1.377776887681749
 20
6.136112213134766
 30
0.0
 10
1.374999152289496
 20
6.191667768690321
 30
0.0
 10
1.374999152289496
 20
6.204167683919271
 30
0.0
 10
1.376388019985623
 20
6.215279049343533
 30
0.0
 10
1.376388019985623
 20
6.227778964572482
 30
0.0
 10
1.376388019985623
 20
6.227778964572482
 30
0.0
 10
1.376388019985623
 20
6.227778964572482
 30
0.0
 10
1.376388019985623
 20
6.227778964572482
 30
0.0
 10
1.38611019982232
 20
6.238889906141493
 30
0.0
 10
1.384721332126194
 20
6.251390245225694
 30
0.0
 10
1.381943596733941
 20
6.263890160454643
 30
0.0
 10
1.381943596733941
 20
6.268056657579209
 30
0.0
 10
1.383332464430067
 20
6.273612552218967
 30
0.0
 10
1.383332464430067
 20
6.277779049343533
 30
0.0
 10
1.383332464430067
 20
6.277779049343533
 30
0.0
 10
1.383332464430067
 20
6.277779049343533
 30
0.0
 10
1.383332464430067
 20
6.277779049343533
 30
0.0
 10
1.390276908874512
 20
6.298612382676866
 30
0.0
 10
1.398610221015082
 20
6.320834689670138
 30
0.0
 10
1.405554665459527
 20
6.341668023003471
 30
0.0
 10
1.405554665459527
 20
6.341668023003471
 30
0.0
 10
1.405554665459527
 20
6.341668023003471
 30
0.0
 10
1.405554665459527
 20
6.341668023003471
 30
0.0
 10
1.405554665459527
 20
6.341668023003471
 30
0.0
 10
1.405554665459527
 20
6.341668023003471
 30
0.0
 10
1.405554665459527
 20
6.341668023003471
 30
0.0
 10
1.415276845296224
 20
6.348612467447916
 30
0.0
 10
1.419443554348416
 20
6.359723409016927
 30
0.0
 10
1.419443554348416
 20
6.370834774441189
 30
0.0
 10
1.420832422044542
 20
6.372223748101128
 30
0.0
 10
1.422221289740668
 20
6.373612721761067
 30
0.0
 10
1.420832422044542
 20
6.375001271565755
 30
0.0
 10
1.420832422044542
 20
6.375001271565755
 30
0.0
 10
1.420832422044542
 20
6.375001271565755
 30
0.0
 10
1.420832422044542
 20
6.375001271565755
 30
0.0
 10
1.431943575541178
 20
6.38055674235026
 30
0.0
 10
1.440276887681749
 20
6.387501186794704
 30
0.0
 10
1.440276887681749
 20
6.401390075683594
 30
0.0
 10
1.449999067518446
 20
6.416667938232422
 30
0.0
 10
1.466665797763401
 20
6.426389906141493
 30
0.0
 10
1.472221374511719
 20
6.4444457160102
 30
0.0
 10
1.472221374511719
 20
6.4444457160102
 30
0.0
 10
1.472221374511719
 20
6.4444457160102
 30
0.0
 10
1.472221374511719
 20
6.4444457160102
 30
0.0
 10
1.490276972452799
 20
6.458334604899088
 30
0.0
 10
1.512499173482259
 20
6.469445546468099
 30
0.0
 10
1.523610221015082
 20
6.491667853461371
 30
0.0
 10
1.523610221015082
 20
6.491667853461371
 30
0.0
 10
1.524999088711209
 20
6.49305682712131
 30
0.0
 10
1.524999088711209
 20
6.49305682712131
 30
0.0
 10
1.524999088711209
 20
6.49305682712131
 30
0.0
 10
1.524999088711209
 20
6.49305682712131
 30
0.0
 10
1.524999088711209
 20
6.49305682712131
 30
0.0
 10
1.543054686652289
 20
6.497223324245876
 30
0.0
 10
1.556943575541178
 20
6.5069457160102
 30
0.0
 10
1.569443490770128
 20
6.522223578559028
 30
0.0
 10
1.570832358466254
 20
6.522223578559028
 30
0.0
 10
1.57222122616238
 20
6.522223578559028
 30
0.0
 10
1.57361019982232
 20
6.523612552218967
 30
0.0
 10
1.57361019982232
 20
6.523612552218967
 30
0.0
 10
1.57361019982232
 20
6.523612552218967
 30
0.0
 10
1.57361019982232
 20
6.523612552218967
 30
0.0
 10
1.587499088711209
 20
6.525001525878906
 30
0.0
 10
1.598610242207845
 20
6.530556996663411
 30
0.0
 10
1.606943554348416
 20
6.543056911892361
 30
0.0
 10
1.611110263400608
 20
6.5444458855523
 30
0.0
 10
1.61388799879286
 20
6.5444458855523
 30
0.0
 10
1.618054707845052
 20
6.545834859212239
 30
0.0
 10
1.618054707845052
 20
6.545834859212239
 30
0.0
 10
1.618054707845052
 20
6.545834859212239
 30
0.0
 10
1.618054707845052
 20
6.545834859212239
 30
0.0
 10
1.651388062371148
 20
6.555557250976562
 30
0.0
 10
1.687499152289496
 20
6.559723748101128
 30
0.0
 10
1.719443639119466
 20
6.575001610649956
 30
0.0
 10
1.777776930067274
 20
6.575001610649956
 30
0.0
 10
1.836110221015082
 20
6.575001610649956
 30
0.0
 10
1.894443723890516
 20
6.575001610649956
 30
0.0
 10
1.894443723890516
 20
6.575001610649956
 30
0.0
 10
1.894443723890516
 20
6.575001610649956
 30
0.0
 10
1.894443723890516
 20
6.575001610649956
 30
0.0
 10
1.908332612779405
 20
6.565279218885633
 30
0.0
 10
1.923610475328233
 20
6.562501695421006
 30
0.0
 10
1.938888125949436
 20
6.563890669080946
 30
0.0
 10
1.943054835001627
 20
6.562501695421006
 30
0.0
 10
1.948610305786133
 20
6.562501695421006
 30
0.0
 10
1.952777014838325
 20
6.561112721761067
 30
0.0
 10
1.952777014838325
 20
6.561112721761067
 30
0.0
 10
1.952777014838325
 20
6.561112721761067
 30
0.0
 10
1.952777014838325
 20
6.561112721761067
 30
0.0
 10
1.973610348171658
 20
6.543057335747612
 30
0.0
 10
2.001388125949436
 20
6.541668362087673
 30
0.0
 10
2.024999194675022
 20
6.53194597032335
 30
0.0
 10
2.027776930067274
 20
6.530556996663411
 30
0.0
 10
2.031943639119466
 20
6.529168023003471
 30
0.0
 10
2.034721374511719
 20
6.527779473198784
 30
0.0
 10
2.034721374511719
 20
6.527779473198784
 30
0.0
 10
2.034721374511719
 20
6.527779473198784
 30
0.0
 10
2.034721374511719
 20
6.527779473198784
 30
0.0
 10
2.044443554348416
 20
6.513890584309896
 30
0.0
 10
2.058332443237305
 20
6.504168192545572
 30
0.0
 10
2.074999067518446
 20
6.501390669080946
 30
0.0
 10
2.077776802910699
 20
6.500001695421006
 30
0.0
 10
2.080554538302951
 20
6.49722417195638
 30
0.0
 10
2.081943511962891
 20
6.49583519829644
 30
0.0
 10
2.081943511962891
 20
6.49583519829644
 30
0.0
 10
2.081943511962891
 20
6.49583519829644
 30
0.0
 10
2.081943511962891
 20
6.49583519829644
 30
0.0
 10
2.087498982747396
 20
6.483335283067491
 30
0.0
 10
2.097221374511719
 20
6.475001864963107
 30
0.0
 10
2.111110263400608
 20
6.472223917643229
 30
0.0
 10
2.112499237060547
 20
6.463890499538845
 30
0.0
 10
2.116665734185113
 20
6.459724002414279
 30
0.0
 10
2.124999152289496
 20
6.45833502875434
 30
0.0
 10
2.124999152289496
 20
6.45833502875434
 30
0.0
 10
2.124999152289496
 20
6.45833502875434
 30
0.0
 10
2.124999152289496
 20
6.45833502875434
 30
0.0
 10
2.131943596733941
 20
6.445835113525391
 30
0.0
 10
2.137499067518446
 20
6.431946224636501
 30
0.0
 10
2.154165903727213
 20
6.427779303656684
 30
0.0
 10
2.155554877387153
 20
6.425001356336805
 30
0.0
 10
2.156943639119466
 20
6.423612806532118
 30
0.0
 10
2.159721374511719
 20
6.420834859212239
 30
0.0
 10
2.159721374511719
 20
6.420834859212239
 30
0.0
 10
2.159721374511719
 20
6.420834859212239
 30
0.0
 10
2.159721374511719
 20
6.420834859212239
 30
0.0
 10
2.162499109903971
 20
6.418056911892361
 30
0.0
 10
2.16388808356391
 20
6.415279388427734
 30
0.0
 10
2.166665818956163
 20
6.412501441107856
 30
0.0
 10
2.168054792616102
 20
6.398612552218967
 30
0.0
 10
2.174999237060547
 20
6.388890160454643
 30
0.0
 10
2.186110178629557
 20
6.380557166205512
 30
0.0
 10
2.201388041178385
 20
6.376390669080946
 30
0.0
 10
2.205554538302951
 20
6.366668277316623
 30
0.0
 10
2.206943511962891
 20
6.355557335747612
 30
0.0
 10
2.205554538302951
 20
6.366668277316623
 30
0.0
 10
2.201388041178385
 20
6.377779642740885
 30
0.0
 10
2.186110178629557
 20
6.380557166205512
 30
0.0
 10
2.186110178629557
 20
6.365279303656684
 30
0.0
 10
2.191665649414062
 20
6.351390414767795
 30
0.0
 10
2.206943511962891
 20
6.343056996663411
 30
0.0
 10
2.20833248562283
 20
6.340279049343533
 30
0.0
 10
2.209721247355143
 20
6.336112552218967
 30
0.0
 10
2.212498982747396
 20
6.333334604899088
 30
0.0
 10
2.212498982747396
 20
6.333334604899088
 30
0.0
 10
2.212498982747396
 20
6.333334604899088
 30
0.0
 10
2.212498982747396
 20
6.333334604899088
 30
0.0
 10
2.213887956407335
 20
6.327779134114583
 30
0.0
 10
2.215276718139648
 20
6.320834689670138
 30
0.0
 10
2.216665691799588
 20
6.315279218885633
 30
0.0
 10
2.227776845296224
 20
6.308334774441189
 30
0.0
 10
2.234721289740668
 20
6.301390329996744
 30
0.0
 10
2.233332316080729
 20
6.290279388427734
 30
0.0
 10
2.234721289740668
 20
6.301390329996744
 30
0.0
 10
2.227776845296224
 20
6.309723748101128
 30
0.0
 10
2.216665691799588
 20
6.315279218885633
 30
0.0
 10
2.215276718139648
 20
6.301390329996744
 30
0.0
 10
2.21944342719184
 20
6.288890414767795
 30
0.0
 10
2.229165607028537
 20
6.277779049343533
 30
0.0
 10
2.230554580688477
 20
6.265279134114583
 30
0.0
 10
2.230554580688477
 20
6.254167768690321
 30
0.0
 10
2.23194334242079
 20
6.241667853461371
 30
0.0
 10
2.244443257649739
 20
6.231945461697048
 30
0.0
 10
2.247221204969618
 20
6.220834520128038
 30
0.0
 10
2.244443257649739
 20
6.209723578559028
 30
0.0
 10
2.245832231309679
 20
6.220834520128038
 30
0.0
 10
2.2430542839898
 20
6.2319458855523
 30
0.0
 10
2.23194334242079
 20
6.241667853461371
 30
0.0
 10
2.229165607028537
 20
6.223612467447916
 30
0.0
 10
2.224998897976346
 20
6.206945631239149
 30
0.0
 10
2.237498813205295
 20
6.190278795030381
 30
0.0
 10
2.237498813205295
 20
6.163889990912543
 30
0.0
 10
2.237498813205295
 20
6.136112213134766
 30
0.0
 10
2.237498813205295
 20
6.109723409016927
 30
0.0
 10
2.240276548597548
 20
6.102778964572482
 30
0.0
 10
2.2430542839898
 20
6.097223493787977
 30
0.0
 10
2.244443257649739
 20
6.090279049343533
 30
0.0
 10
2.244443257649739
 20
6.087501102023654
 30
0.0
 10
2.245832231309679
 20
6.084723578559028
 30
0.0
 10
2.245832231309679
 20
6.083334604899088
 30
0.0
 10
2.245832231309679
 20
6.086112552218967
 30
0.0
 10
2.244443257649739
 20
6.088890075683594
 30
0.0
 10
2.244443257649739
 20
6.090279049343533
 30
0.0
 10
2.2430542839898
 20
6.097223493787977
 30
0.0
 10
2.240276548597548
 20
6.102778964572482
 30
0.0
 10
2.237498813205295
 20
6.109723409016927
 30
0.0
 10
2.224998897976346
 20
6.090279049343533
 30
0.0
 10
2.23055436876085
 20
6.070834689670138
 30
0.0
 10
2.234721077813042
 20
6.050001356336805
 30
0.0
 10
2.233332104153103
 20
6.029168023003472
 30
0.0
 10
2.233332104153103
 20
6.008334689670138
 30
0.0
 10
2.23055436876085
 20
5.988890329996744
 30
0.0
 10
2.227776633368598
 20
5.961112552218967
 30
0.0
 10
2.238887786865234
 20
5.948612636990017
 30
0.0
 10
2.266665564643012
 20
5.948612636990017
 30
0.0
 10
2.269443300035265
 20
5.952779134114583
 30
0.0
 10
2.272221035427517
 20
5.954168107774522
 30
0.0
 10
2.274998982747396
 20
5.955557081434462
 30
0.0
 10
2.272221247355143
 20
5.954168107774522
 30
0.0
 10
2.269443511962891
 20
5.952779134114583
 30
0.0
 10
2.266665564643012
 20
5.948612636990017
 30
0.0
 10
2.273610009087456
 20
5.940279218885633
 30
0.0
 10
2.28194342719184
 20
5.940279218885633
 30
0.0
 10
2.288887871636284
 20
5.948612636990017
 30
0.0
 10
2.293054580688477
 20
5.948612636990017
 30
0.0
 10
2.298610051472981
 20
5.950001610649957
 30
0.0
 10
2.302776760525174
 20
5.950001610649957
 30
0.0
 10
2.323610093858507
 20
5.97083494398329
 30
0.0
 10
2.343054453531901
 20
5.980557335747613
 30
0.0
 10
2.361110051472981
 20
5.980557335747613
 30
0.0
 10
2.343054453531901
 20
5.980557335747613
 30
0.0
 10
2.323610093858507
 20
5.97083494398329
 30
0.0
 10
2.302776760525174
 20
5.950001610649957
 30
0.0
 10
2.333332273695204
 20
5.947223663330078
 30
0.0
 10
2.359721289740668
 20
5.972223917643229
 30
0.0
 10
2.391665564643012
 20
5.968056996663411
 30
0.0
 10
2.394443300035265
 20
5.968056996663411
 30
0.0
 10
2.398610009087456
 20
5.968056996663411
 30
0.0
 10
2.401387744479709
 20
5.966668023003472
 30
0.0
 10
2.401387744479709
 20
5.966668023003472
 30
0.0
 10
2.401387744479709
 20
5.966668023003472
 30
0.0
 10
2.401387744479709
 20
5.966668023003472
 30
0.0
 10
2.441665437486436
 20
5.93194580078125
 30
0.0
 10
2.443054411146376
 20
5.923612382676866
 30
0.0
 10
2.41944334242079
 20
5.8819457160102
 30
0.0
 10
2.41944334242079
 20
5.8819457160102
 30
0.0
 10
2.41944334242079
 20
5.8819457160102
 30
0.0
 10
2.41944334242079
 20
5.8819457160102
 30
0.0
 10
2.384721120198567
 20
5.870834774441189
 30
0.0
 10
2.352776633368598
 20
5.851389990912543
 30
0.0
 10
2.316665649414062
 20
5.840279049343533
 30
0.0
 10
2.302776760525174
 20
5.836112552218967
 30
0.0
 10
2.284721162584093
 20
5.836112552218967
 30
0.0
 10
2.277776718139648
 20
5.81805674235026
 30
0.0
 10
2.270832273695204
 20
5.812501271565755
 30
0.0
 10
2.265276802910698
 20
5.80694580078125
 30
0.0
 10
2.258332358466254
 20
5.801389906141493
 30
0.0
 10
2.256943384806315
 20
5.794445461697048
 30
0.0
 10
2.255554623074002
 20
5.786112043592665
 30
0.0
 10
2.255554623074002
 20
5.77916759914822
 30
0.0
 10
2.256943596733941
 20
5.786112043592665
 30
0.0
 10
2.258332358466254
 20
5.794445461697048
 30
0.0
 10
2.258332358466254
 20
5.801389906141493
 30
0.0
 10
2.237499025132921
 20
5.786112043592665
 30
0.0
 10
2.231943554348416
 20
5.766667683919271
 30
0.0
 10
2.243054495917426
 20
5.743056403266059
 30
0.0
 10
2.244443469577365
 20
5.738889906141493
 30
0.0
 10
2.244443469577365
 20
5.733334011501736
 30
0.0
 10
2.245832231309679
 20
5.72916751437717
 30
0.0
 10
2.255554411146376
 20
5.725001017252604
 30
0.0
 10
2.261110093858507
 20
5.719445122612847
 30
0.0
 10
2.26249885559082
 20
5.711112128363715
 30
0.0
 10
2.261109881930881
 20
5.719445546468099
 30
0.0
 10
2.255554411146376
 20
5.725001017252604
 30
0.0
 10
2.245832231309679
 20
5.72916751437717
 30
0.0
 10
2.243054495917426
 20
5.713889651828342
 30
0.0
 10
2.251387702094184
 20
5.704167683919271
 30
0.0
 10
2.26249885559082
 20
5.695834265814887
 30
0.0
 10
2.270832273695204
 20
5.680556403266059
 30
0.0
 10
2.279165479871962
 20
5.663889990912543
 30
0.0
 10
2.287498897976346
 20
5.648612128363715
 30
0.0
 10
2.290276633368598
 20
5.631945292154947
 30
0.0
 10
2.299998813205295
 20
5.618056403266059
 30
0.0
 10
2.315276675754123
 20
5.609723409016927
 30
0.0
 10
2.323610093858507
 20
5.59305657280816
 30
0.0
 10
2.337498982747396
 20
5.579167683919271
 30
0.0
 10
2.351387871636284
 20
5.566667768690321
 30
0.0
 10
2.351387871636284
 20
5.566667768690321
 30
0.0
 10
2.351387871636284
 20
5.566667768690321
 30
0.0
 10
2.351387871636284
 20
5.566667768690321
 30
0.0
 10
2.361110051472981
 20
5.545834435356988
 30
0.0
 10
2.37499894036187
 20
5.53055657280816
 30
0.0
 10
2.397221247355143
 20
5.523612128363715
 30
0.0
 10
2.402776718139648
 20
5.513889736599392
 30
0.0
 10
2.411110136244032
 20
5.508334265814887
 30
0.0
 10
2.422221289740668
 20
5.506945292154947
 30
0.0
 10
2.422221289740668
 20
5.506945292154947
 30
0.0
 10
2.422221289740668
 20
5.506945292154947
 30
0.0
 10
2.422221289740668
 20
5.506945292154947
 30
0.0
 10
2.430554707845052
 20
5.494445376925998
 30
0.0
 10
2.437499152289496
 20
5.480556488037109
 30
0.0
 10
2.455554538302951
 20
5.480556488037109
 30
0.0
 10
2.459721247355143
 20
5.477778540717231
 30
0.0
 10
2.463887956407335
 20
5.475001017252604
 30
0.0
 10
2.468054453531901
 20
5.472223069932725
 30
0.0
 10
2.468054453531901
 20
5.472223069932725
 30
0.0
 10
2.468054453531901
 20
5.472223069932725
 30
0.0
 10
2.468054453531901
 20
5.472223069932725
 30
0.0
 10
2.472221162584093
 20
5.454167683919271
 30
0.0
 10
2.487498813205295
 20
5.459723154703775
 30
0.0
 10
2.49999894036187
 20
5.458334181043837
 30
0.0
 10
2.511110093858507
 20
5.448611789279513
 30
0.0
 10
2.526387744479709
 20
5.448611789279513
 30
0.0
 10
2.538887871636284
 20
5.447223239474826
 30
0.0
 10
2.538887871636284
 20
5.447223239474826
 30
0.0
 10
2.538887871636284
 20
5.447223239474826
 30
0.0
 10
2.538887871636284
 20
5.447223239474826
 30
0.0
 10
2.54444334242079
 20
5.436112297905816
 30
0.0
 10
2.554165734185113
 20
5.434723324245876
 30
0.0
 10
2.565276675754123
 20
5.437500847710504
 30
0.0
 10
2.573610093858507
 20
5.436111874050564
 30
0.0
 10
2.581943300035265
 20
5.434722900390625
 30
0.0
 10
2.590276718139648
 20
5.433334350585938
 30
0.0
 10
2.590276718139648
 20
5.433334350585938
 30
0.0
 10
2.590276718139648
 20
5.433334350585938
 30
0.0
 10
2.590276718139648
 20
5.433334350585938
 30
0.0
 10
2.595832188924153
 20
5.425000932481553
 30
0.0
 10
2.599998897976346
 20
5.41666751437717
 30
0.0
 10
2.605554580688477
 20
5.408334520128038
 30
0.0
 10
2.605554580688477
 20
5.40555657280816
 30
0.0
 10
2.605554580688477
 20
5.402779049343533
 30
0.0
 10
2.604165607028537
 20
5.398612128363715
 30
0.0
 10
2.604165607028537
 20
5.398612128363715
 30
0.0
 10
2.604165607028537
 20
5.398612128363715
 30
0.0
 10
2.604165607028537
 20
5.398612128363715
 30
0.0
 10
2.590276718139648
 20
5.391667683919271
 30
0.0
 10
2.580554538302951
 20
5.38055674235026
 30
0.0
 10
2.572221120198567
 20
5.366667853461371
 30
0.0
 10
2.5625
 20
5.365277608235677
 30
0.0
 10
2.555555555555555
 20
5.36250008477105
 30
0.0
 10
2.548611111111111
 20
5.359722137451172
 30
0.0
  0
HATCH
  5
54
330
1F
100
AcDbEntity
  8
Layer 1
 62
     7
420
 16777215
100
AcDbHatch
 10
0.0
 20
0.0
 30
0.0
210
0.0
220
0.0
230
1.0
  2
SOLID
 70
     1
 71
     0
 91
        2
 92
        1
 93
        1
 72
     4
 94
        3
 73
     0
 74
     1
 95
      215
 96
      211
 40
0.0
 40
0.0
 40
0.0
 40
0.0
 40
1.0
 40
1.0
 40
1.0
 40
2.0
 40
2.0
 40
2.0
 40
3.0
 40
3.0
 40
3.0
 40
4.0
 40
4.0
 40
4.0
 40
5.0
 40
5.0
 40
5.0
 40
6.0
 40
6.0
 40
6.0
 40
7.0
 40
7.0
 40
7.0
 40
8.0
 40
8.0
 40
8.0
 40
9.0
 40
9.0
 40
9.0
 40
10.0
 40
10.0
 40
10.0
 40
11.0
 40
11.0
 40
11.0
 40
12.0
 40
12.0
 40
12.0
 40
13.0
 40
13.0
 40
13.0
 40
14.0
 40
14.0
 40
14.0
 40
15.0
 40
15.0
 40
15.0
 40
16.0
 40
16.0
 40
16.0
 40
17.0
 40
17.0
 40
17.0
 40
18.0
 40
18.0
 40
18.0
 40
19.0
 40
19.0
 40
19.0
 40
20.0
 40
20.0
 40
20.0
 40
21.0
 40
21.0
 40
21.0
 40
22.0
 40
22.0
 40
22.0
 40
23.0
 40
23.0
 40
23.0
 40
24.0
 40
24.0
 40
24.0
 40
25.0
 40
25.0
 40
25.0
 40
26.0
 40
26.0
 40
26.0
 40
27.0
 40
27.0
 40
27.0
 40
28.0
 40
28.0
 40
28.0
 40
29.0
 40
29.0
 40
29.0
 40
30.0
 40
30.0
 40
30.0
 40
31.0
 40
31.0
 40
31.0
 40
32.0
 40
32.0
 40
32.0
 40
33.0
 40
33.0
 40
33.0
 40
34.0
 40
34.0
 40
34.0
 40
35.0
 40
35.0
 40
35.0
 40
36.0
 40
36.0
 40
36.0
 40
37.0
 40
37.0
 40
37.0
 40
38.0
 40
38.0
 40
38.0
 40
39.0
 40
39.0
 40
39.0
 40
40.0
 40
40.0
 40
40.0
 40
41.0
 40
41.0
 40
41.0
 40
42.0
 40
42.0
 40
42.0
 40
43.0
 40
43.0
 40
43.0
 40
44.0
 40
44.0
 40
44.0
 40
45.0
 40
45.0
 40
45.0
 40
46.0
 40
46.0
 40
46.0
 40
47.0
 40
47.0
 40
47.0
 40
48.0
 40
48.0
 40
48.0
 40
49.0
 40
49.0
 40
49.0
 40
50.0
 40
50.0
 40
50.0
 40
51.0
 40
51.0
 40
51.0
 40
52.0
 40
52.0
 40
52.0
 40
53.0
 40
53.0
 40
53.0
 40
54.0
 40
54.0
 40
54.0
 40
55.0
 40
55.0
 40
55.0
 40
56.0
 40
56.0
 40
56.0
 40
57.0
 40
57.0
 40
57.0
 40
58.0
 40
58.0
 40
58.0
 40
59.0
 40
59.0
 40
59.0
 40
60.0
 40
60.0
 40
60.0
 40
61.0
 40
61.0
 40
61.0
 40
62.0
 40
62.0
 40
62.0
 40
63.0
 40
63.0
 40
63.0
 40
64.0
 40
64.0
 40
64.0
 40
65.0
 40
65.0
 40
65.0
 40
66.0
 40
66.0
 40
66.0
 40
67.0
 40
67.0
 40
67.0
 40
68.0
 40
68.0
 40
68.0
 40
69.0
 40
69.0
 40
69.0
 40
70.0
 40
70.0
 40
70.0
 40
70.0
 10
2.886111153496636
 20
6.518055386013454
 10
2.880555682712131
 20
6.548611111111111
 10
2.877777735392252
 20
6.580555386013454
 10
2.858333375718858
 20
6.605555216471354
 10
2.849999957614475
 20
6.599999745686849
 10
2.847222222222222
 20
6.591666327582465
 10
2.848611195882161
 20
6.584721883138021
 10
2.847222222222222
 20
6.591666327582465
 10
2.8500001695421
 20
6.599999745686849
 10
2.858333375718858
 20
6.605555216471354
 10
2.856944402058919
 20
6.60972171359592
 10
2.855555640326606
 20
6.615277608235677
 10
2.855555640326606
 20
6.619444105360243
 10
2.856944613986545
 20
6.626388549804688
 10
2.856944613986545
 20
6.633332994249131
 10
2.848611195882161
 20
6.63611094156901
 10
2.847222222222222
 20
6.640277438693576
 10
2.844444486829969
 20
6.645833333333333
 10
2.843055725097656
 20
6.649999830457899
 10
2.838889016045464
 20
6.669444190131293
 10
2.833333545260959
 20
6.68611102634006
 10
2.813888973659939
 20
6.695832994249131
 10
2.813888973659939
 20
6.697221967909071
 10
2.813888973659939
 20
6.69861094156901
 10
2.8125
 20
6.699999491373697
 10
2.8125
 20
6.719443851047092
 10
2.80000008477105
 20
6.729166242811415
 10
2.784722222222222
 20
6.737499660915798
 10
2.784722222222222
 20
6.737499660915798
 10
2.784722222222222
 20
6.737499660915798
 10
2.784722222222222
 20
6.737499660915798
 10
2.744444529215495
 20
6.79722171359592
 10
2.691666709052192
 20
6.843055301242404
 10
2.622222264607747
 20
6.866666158040364
 10
2.608333375718858
 20
6.872221628824869
 10
2.59305551317003
 20
6.879166073269314
 10
2.579166624281141
 20
6.884721544053819
 10
2.538888931274414
 20
6.902776930067274
 10
2.497222264607747
 20
6.911110348171658
 10
2.454166624281141
 20
6.911110348171658
 10
2.438888761732313
 20
6.911110348171658
 10
2.422222137451172
 20
6.911110348171658
 10
2.411110983954535
 20
6.924999237060547
 10
1.987499872843424
 20
6.924999237060547
 10
1.56527762942844
 20
6.924999237060547
 10
1.141666518317328
 20
6.924999237060547
 10
1.140277650621202
 20
6.911110348171658
 10
1.126388761732313
 20
6.913888295491536
 10
1.119444317287869
 20
6.906943851047092
 10
1.12777762942844
 20
6.894443935818142
 10
1.140277650621202
 20
6.893054962158203
 10
1.151388804117838
 20
6.894443935818142
 10
1.140277650621202
 20
6.893054962158203
 10
1.127777735392252
 20
6.894443935818142
 10
1.119444317287869
 20
6.906943851047092
 10
1.115277608235677
 20
6.905554877387153
 10
1.109722137451172
 20
6.905554877387153
 10
1.10555542839898
 20
6.904165903727213
 10
1.099999851650662
 20
6.905554877387153
 10
1.094444274902344
 20
6.905554877387153
 10
1.090277671813965
 20
6.899999406602647
 10
1.077777650621202
 20
6.897221459282768
 10
1.06527762942844
 20
6.894443935818142
 10
1.05277771419949
 20
6.891665988498263
 10
1.041666560702854
 20
6.893054962158203
 10
1.033333248562283
 20
6.890277014838325
 10
1.027777671813965
 20
6.880555046929253
 10
1.022222095065647
 20
6.879166073269314
 10
1.015277650621202
 20
6.877777099609375
 10
1.009722073872884
 20
6.876388549804688
 10
1.001388761732313
 20
6.877777523464626
 10
0.9958331849839952
 20
6.873610602484809
 10
0.9916664759318033
 20
6.866666158040364
 10
0.9888887405395508
 20
6.866666158040364
 10
0.9874997668796115
 20
6.865277184380425
 10
0.9847220314873589
 20
6.865277184380425
 10
0.9527775446573893
 20
6.856943766276041
 10
0.9236108991834852
 20
6.841665903727213
 10
0.9041664335462781
 20
6.812499576144748
 10
0.9027775658501519
 20
6.812499576144748
 10
0.9013886981540256
 20
6.812499576144748
 10
0.8999997244940863
 20
6.811110602484809
 10
0.8847219679090711
 20
6.809721628824869
 10
0.8763886027865939
 20
6.799999660915798
 10
0.8708330790201823
 20
6.787499321831596
 10
0.8638886345757378
 20
6.780554877387153
 10
0.8569441901312933
 20
6.773610432942708
 10
0.8486108779907227
 20
6.765277014838325
 10
0.83611085679796
 20
6.759721544053819
 10
0.8277775446573893
 20
6.751388125949435
 10
0.8249997562832302
 20
6.737499237060547
 10
0.8249997562832302
 20
6.737499237060547
 10
0.8249997562832302
 20
6.737499237060547
 10
0.8249997562832302
 20
6.737499237060547
 10
0.7958331108093262
 20
6.713887956407334
 10
0.7805553012424045
 20
6.681943681504991
 10
0.7680553330315484
 20
6.648610432942708
 10
0.7624997562832302
 20
6.634721544053819
 10
0.7569442325168185
 20
6.619443681504991
 10
0.7513886557685004
 20
6.605554792616102
 10
0.7444442113240559
 20
6.599999321831596
 10
0.7430553436279297
 20
6.593054877387153
 10
0.7444442113240559
 20
6.584721459282768
 10
0.7444442113240559
 20
6.580554962158203
 10
0.7430553436279297
 20
6.576388041178385
 10
0.7430553436279297
 20
6.572221544053819
 10
0.7333331108093262
 20
6.57083257039388
 10
0.7277775870429145
 20
6.565277099609375
 10
0.7263886663648816
 20
6.554166158040364
 10
0.7236108779907227
 20
6.538888295491536
 10
0.7236108779907227
 20
6.522221883138021
 10
0.7111109097798665
 20
6.509721544053819
 10
0.7111109097798665
 20
6.056943681504991
 10
0.7111109097798665
 20
5.605554792616102
 10
0.7111109097798665
 20
5.152776930067274
 10
0.718055354224311
 20
5.149998982747396
 10
0.7166664865281847
 20
5.143054538302951
 10
0.7194442219204372
 20
5.137499067518446
 10
0.7361108991834852
 20
5.104165818956163
 10
0.7333331108093262
 20
5.062499152289496
 10
0.7597220208909776
 20
5.03194342719184
 10
0.763888676961263
 20
5.023610009087457
 10
0.766666465335422
 20
5.015276590983072
 10
0.7708331214057075
 20
5.005554623074001
 10
0.7694442537095811
 20
5.001388125949435
 10
0.7722219891018337
 20
4.997221204969618
 10
0.7763886981540256
 20
4.995832231309678
 10
0.7791664865281847
 20
4.988887786865234
 10
0.78333314259847
 20
4.983332316080729
 10
0.7861109309726291
 20
4.976387871636285
 10
0.7944442431131998
 20
4.952776590983072
 10
0.8013886875576443
 20
4.927776760525173
 10
0.8277775976392957
 20
4.916665818956163
 10
0.8277775976392957
 20
4.913887871636285
 10
0.829166465335422
 20
4.912499321831597
 10
0.8305553860134548
 20
4.911110348171658
 10
0.8319442537095811
 20
4.893054962158203
 10
0.8416664865281847
 20
4.884721544053819
 10
0.8583331637912326
 20
4.883332994249131
 10
0.8638887405395508
 20
4.872222052680121
 10
0.8736109203762478
 20
4.865277608235677
 10
0.884722073872884
 20
4.858333163791232
 10
0.8999998304578992
 20
4.840277777777778
 10
0.9152775870429144
 20
4.820832994249131
 10
0.9430553648206922
 20
4.820832994249131
 10
0.9430553648206922
 20
4.820832994249131
 10
0.9430553648206922
 20
4.820832994249131
 10
0.9430553648206922
 20
4.820832994249131
 10
0.9805553224351671
 20
4.777777777777778
 10
1.030555407206217
 20
4.765277438693576
 10
1.083333121405707
 20
4.752777099609375
 10
1.098610877990723
 20
4.748610602484809
 10
1.11805534362793
 20
4.754165649414062
 10
1.127777523464627
 20
4.737499660915798
 10
1.562499788072374
 20
4.737499660915798
 10
1.998610814412435
 20
4.737499660915798
 10
2.433333079020182
 20
4.737499660915798
 10
2.441666497124566
 20
4.74583265516493
 10
2.456944147745768
 20
4.738888210720486
 10
2.462499830457899
 20
4.75
 10
2.455555386013455
 20
4.759722391764322
 10
2.445833206176758
 20
4.76111094156901
 10
2.434722052680121
 20
4.759722391764322
 10
2.444444232516819
 20
4.76111094156901
 10
2.454166412353516
 20
4.76111094156901
 10
2.462499830457899
 20
4.75
 10
2.473610983954535
 20
4.751388549804688
 10
2.486110899183485
 20
4.752777947319879
 10
2.497222052680121
 20
4.754166497124566
 10
2.516666412353516
 20
4.751388549804688
 10
2.533333248562283
 20
4.754166497124566
 10
2.548610899183485
 20
4.766666836208767
 10
2.552777608235677
 20
4.768055386013454
 10
2.558333079020182
 20
4.768055386013454
 10
2.562499788072374
 20
4.769444783528646
 10
2.588888592190213
 20
4.772222730848524
 10
2.613888634575738
 20
4.780555725097656
 10
2.633333206176758
 20
4.798611111111111
 10
2.644444359673394
 20
4.804167005750868
 10
2.65555551317003
 20
4.811111450195312
 10
2.665277693006727
 20
4.816666497124566
 10
2.6875
 20
4.819444444444444
 10
2.702777650621202
 20
4.830555386013454
 10
2.712499830457899
 20
4.851388719346788
 10
2.724999745686849
 20
4.855555216471354
 10
2.731944190131293
 20
4.863889058430989
 10
2.738888634575738
 20
4.875
 10
2.756944232516819
 20
4.881944444444444
 10
2.769444147745768
 20
4.894444359673394
 10
2.776388592190213
 20
4.9125001695421
 10
2.779166327582465
 20
4.916666666666666
 10
2.781944062974718
 20
4.920833587646484
 10
2.784722010294596
 20
4.92500008477105
 10
2.809722052680121
 20
4.938888973659939
 10
2.819444232516819
 20
4.961111280653212
 10
2.826388676961263
 20
4.98750008477105
 10
2.833333121405707
 20
4.995833502875434
 10
2.840277565850152
 20
5.005555470784505
 10
2.841666539510091
 20
5.016666836208767
 10
2.856944402058919
 20
5.031944698757595
 10
2.859722137451172
 20
5.054167005750868
 10
2.870833290947808
 20
5.073611365424262
 10
2.888888888888889
 20
5.106944613986545
 10
2.877777735392252
 20
5.145833757188584
 10
2.898611068725586
 20
5.177778032090928
 10
2.898611068725586
 20
5.611111534966363
 10
2.898611068725586
 20
6.043055640326606
 10
2.898611068725586
 20
6.47638914320204
 10
2.88749991522895
 20
6.486111111111111
 10
2.888888888888889
 20
6.502777947319878
 10
2.886111153496636
 20
6.518055386013454
 97
        0
 97
        0
 92
        1
 93
        1
 72
     4
 94
        3
 73
     0
 74
     1
 95
      575
 96
      571
 40
0.0
 40
0.0
 40
0.0
 40
0.0
 40
1.0
 40
1.0
 40
1.0
 40
2.0
 40
2.0
 40
2.0
 40
3.0
 40
3.0
 40
3.0
 40
4.0
 40
4.0
 40
4.0
 40
5.0
 40
5.0
 40
5.0
 40
6.0
 40
6.0
 40
6.0
 40
7.0
 40
7.0
 40
7.0
 40
8.0
 40
8.0
 40
8.0
 40
9.0
 40
9.0
 40
9.0
 40
10.0
 40
10.0
 40
10.0
 40
11.0
 40
11.0
 40
11.0
 40
12.0
 40
12.0
 40
12.0
 40
13.0
 40
13.0
 40
13.0
 40
14.0
 40
14.0
 40
14.0
 40
15.0
 40
15.0
 40
15.0
 40
16.0
 40
16.0
 40
16.0
 40
17.0
 40
17.0
 40
17.0
 40
18.0
 40
18.0
 40
18.0
 40
19.0
 40
19.0
 40
19.0
 40
20.0
 40
20.0
 40
20.0
 40
21.0
 40
21.0
 40
21.0
 40
22.0
 40
22.0
 40
22.0
 40
23.0
 40
23.0
 40
23.0
 40
24.0
 40
24.0
 40
24.0
 40
25.0
 40
25.0
 40
25.0
 40
26.0
 40
26.0
 40
26.0
 40
27.0
 40
27.0
 40
27.0
 40
28.0
 40
28.0
 40
28.0
 40
29.0
 40
29.0
 40
29.0
 40
30.0
 40
30.0
 40
30.0
 40
31.0
 40
31.0
 40
31.0
 40
32.0
 40
32.0
 40
32.0
 40
33.0
 40
33.0
 40
33.0
 40
34.0
 40
34.0
 40
34.0
 40
35.0
 40
35.0
 40
35.0
 40
36.0
 40
36.0
 40
36.0
 40
37.0
 40
37.0
 40
37.0
 40
38.0
 40
38.0
 40
38.0
 40
39.0
 40
39.0
 40
39.0
 40
40.0
 40
40.0
 40
40.0
 40
41.0
 40
41.0
 40
41.0
 40
42.0
 40
42.0
 40
42.0
 40
43.0
 40
43.0
 40
43.0
 40
44.0
 40
44.0
 40
44.0
 40
45.0
 40
45.0
 40
45.0
 40
46.0
 40
46.0
 40
46.0
 40
47.0
 40
47.0
 40
47.0
 40
48.0
 40
48.0
 40
48.0
 40
49.0
 40
49.0
 40
49.0
 40
50.0
 40
50.0
 40
50.0
 40
51.0
 40
51.0
 40
51.0
 40
52.0
 40
52.0
 40
52.0
 40
53.0
 40
53.0
 40
53.0
 40
54.0
 40
54.0
 40
54.0
 40
55.0
 40
55.0
 40
55.0
 40
56.0
 40
56.0
 40
56.0
 40
57.0
 40
57.0
 40
57.0
 40
58.0
 40
58.0
 40
58.0
 40
59.0
 40
59.0
 40
59.0
 40
60.0
 40
60.0
 40
60.0
 40
61.0
 40
61.0
 40
61.0
 40
62.0
 40
62.0
 40
62.0
 40
63.0
 40
63.0
 40
63.0
 40
64.0
 40
64.0
 40
64.0
 40
65.0
 40
65.0
 40
65.0
 40
66.0
 40
66.0
 40
66.0
 40
67.0
 40
67.0
 40
67.0
 40
68.0
 40
68.0
 40
68.0
 40
69.0
 40
69.0
 40
69.0
 40
70.0
 40
70.0
 40
70.0
 40
71.0
 40
71.0
 40
71.0
 40
72.0
 40
72.0
 40
72.0
 40
73.0
 40
73.0
 40
73.0
 40
74.0
 40
74.0
 40
74.0
 40
75.0
 40
75.0
 40
75.0
 40
76.0
 40
76.0
 40
76.0
 40
77.0
 40
77.0
 40
77.0
 40
78.0
 40
78.0
 40
78.0
 40
79.0
 40
79.0
 40
79.0
 40
80.0
 40
80.0
 40
80.0
 40
81.0
 40
81.0
 40
81.0
 40
82.0
 40
82.0
 40
82.0
 40
83.0
 40
83.0
 40
83.0
 40
84.0
 40
84.0
 40
84.0
 40
85.0
 40
85.0
 40
85.0
 40
86.0
 40
86.0
 40
86.0
 40
87.0
 40
87.0
 40
87.0
 40
88.0
 40
88.0
 40
88.0
 40
89.0
 40
89.0
 40
89.0
 40
90.0
 40
90.0
 40
90.0
 40
91.0
 40
91.0
 40
91.0
 40
92.0
 40
92.0
 40
92.0
 40
93.0
 40
93.0
 40
93.0
 40
94.0
 40
94.0
 40
94.0
 40
95.0
 40
95.0
 40
95.0
 40
96.0
 40
96.0
 40
96.0
 40
97.0
 40
97.0
 40
97.0
 40
98.0
 40
98.0
 40
98.0
 40
99.0
 40
99.0
 40
99.0
 40
100.0
 40
100.0
 40
100.0
 40
101.0
 40
101.0
 40
101.0
 40
102.0
 40
102.0
 40
102.0
 40
103.0
 40
103.0
 40
103.0
 40
104.0
 40
104.0
 40
104.0
 40
105.0
 40
105.0
 40
105.0
 40
106.0
 40
106.0
 40
106.0
 40
107.0
 40
107.0
 40
107.0
 40
108.0
 40
108.0
 40
108.0
 40
109.0
 40
109.0
 40
109.0
 40
110.0
 40
110.0
 40
110.0
 40
111.0
 40
111.0
 40
111.0
 40
112.0
 40
112.0
 40
112.0
 40
113.0
 40
113.0
 40
113.0
 40
114.0
 40
114.0
 40
114.0
 40
115.0
 40
115.0
 40
115.0
 40
116.0
 40
116.0
 40
116.0
 40
117.0
 40
117.0
 40
117.0
 40
118.0
 40
118.0
 40
118.0
 40
119.0
 40
119.0
 40
119.0
 40
120.0
 40
120.0
 40
120.0
 40
121.0
 40
121.0
 40
121.0
 40
122.0
 40
122.0
 40
122.0
 40
123.0
 40
123.0
 40
123.0
 40
124.0
 40
124.0
 40
124.0
 40
125.0
 40
125.0
 40
125.0
 40
126.0
 40
126.0
 40
126.0
 40
127.0
 40
127.0
 40
127.0
 40
128.0
 40
128.0
 40
128.0
 40
129.0
 40
129.0
 40
129.0
 40
130.0
 40
130.0
 40
130.0
 40
131.0
 40
131.0
 40
131.0
 40
132.0
 40
132.0
 40
132.0
 40
133.0
 40
133.0
 40
133.0
 40
134.0
 40
134.0
 40
134.0
 40
135.0
 40
135.0
 40
135.0
 40
136.0
 40
136.0
 40
136.0
 40
137.0
 40
137.0
 40
137.0
 40
138.0
 40
138.0
 40
138.0
 40
139.0
 40
139.0
 40
139.0
 40
140.0
 40
140.0
 40
140.0
 40
141.0
 40
141.0
 40
141.0
 40
142.0
 40
142.0
 40
142.0
 40
143.0
 40
143.0
 40
143.0
 40
144.0
 40
144.0
 40
144.0
 40
145.0
 40
145.0
 40
145.0
 40
146.0
 40
146.0
 40
146.0
 40
147.0
 40
147.0
 40
147.0
 40
148.0
 40
148.0
 40
148.0
 40
149.0
 40
149.0
 40
149.0
 40
150.0
 40
150.0
 40
150.0
 40
151.0
 40
151.0
 40
151.0
 40
152.0
 40
152.0
 40
152.0
 40
153.0
 40
153.0
 40
153.0
 40
154.0
 40
154.0
 40
154.0
 40
155.0
 40
155.0
 40
155.0
 40
156.0
 40
156.0
 40
156.0
 40
157.0
 40
157.0
 40
157.0
 40
158.0
 40
158.0
 40
158.0
 40
159.0
 40
159.0
 40
159.0
 40
160.0
 40
160.0
 40
160.0
 40
161.0
 40
161.0
 40
161.0
 40
162.0
 40
162.0
 40
162.0
 40
163.0
 40
163.0
 40
163.0
 40
164.0
 40
164.0
 40
164.0
 40
165.0
 40
165.0
 40
165.0
 40
166.0
 40
166.0
 40
166.0
 40
167.0
 40
167.0
 40
167.0
 40
168.0
 40
168.0
 40
168.0
 40
169.0
 40
169.0
 40
169.0
 40
170.0
 40
170.0
 40
170.0
 40
171.0
 40
171.0
 40
171.0
 40
172.0
 40
172.0
 40
172.0
 40
173.0
 40
173.0
 40
173.0
 40
174.0
 40
174.0
 40
174.0
 40
175.0
 40
175.0
 40
175.0
 40
176.0
 40
176.0
 40
176.0
 40
177.0
 40
177.0
 40
177.0
 40
178.0
 40
178.0
 40
178.0
 40
179.0
 40
179.0
 40
179.0
 40
180.0
 40
180.0
 40
180.0
 40
181.0
 40
181.0
 40
181.0
 40
182.0
 40
182.0
 40
182.0
 40
183.0
 40
183.0
 40
183.0
 40
184.0
 40
184.0
 40
184.0
 40
185.0
 40
185.0
 40
185.0
 40
186.0
 40
186.0
 40
186.0
 40
187.0
 40
187.0
 40
187.0
 40
188.0
 40
188.0
 40
188.0
 40
189.0
 40
189.0
 40
189.0
 40
190.0
 40
190.0
 40
190.0
 40
190.0
 10
2.548611111111111
 20
5.359722137451172
 10
2.548611111111111
 20
5.359722137451172
 10
2.548611111111111
 20
5.359722137451172
 10
2.548611111111111
 20
5.359722137451172
 10
2.543055640326606
 20
5.361111111111111
 10
2.537499957614475
 20
5.359722137451172
 10
2.534722222222222
 20
5.352777693006727
 10
2.53055551317003
 20
5.351388719346788
 10
2.525000042385525
 20
5.349999745686849
 10
2.520833333333333
 20
5.348611195882161
 10
2.516666624281141
 20
5.340277777777778
 10
2.51249991522895
 20
5.330555809868707
 10
2.505555470784505
 20
5.330555809868707
 10
2.51249991522895
 20
5.331944783528646
 10
2.516666624281141
 20
5.340278201633029
 10
2.520833333333333
 20
5.348611195882161
 10
2.508333418104383
 20
5.35138914320204
 10
2.498611026340061
 20
5.347222222222222
 10
2.490277820163303
 20
5.338888804117838
 10
2.483333375718858
 20
5.337499830457899
 10
2.476388931274414
 20
5.336110856797959
 10
2.469444486829969
 20
5.334722306993272
 10
2.469444486829969
 20
5.333333333333333
 10
2.469444486829969
 20
5.330555809868707
 10
2.46805551317003
 20
5.329166836208767
 10
2.46805551317003
 20
5.330555809868707
 10
2.469444486829969
 20
5.333333333333333
 10
2.469444486829969
 20
5.334722306993272
 10
2.434722264607747
 20
5.327777862548828
 10
2.387500127156575
 20
5.341666751437717
 10
2.377777735392252
 20
5.286111195882161
 10
2.375
 20
5.273611280653212
 10
2.373611026340061
 20
5.261111365424262
 10
2.370833290947808
 20
5.24861102634006
 10
2.370833290947808
 20
5.24861102634006
 10
2.370833290947808
 20
5.24861102634006
 10
2.370833290947808
 20
5.24861102634006
 10
2.365277820163303
 20
5.245833079020182
 10
2.363888846503364
 20
5.240277608235677
 10
2.363888846503364
 20
5.234722137451172
 10
2.362499872843424
 20
5.233333163791232
 10
2.362499872843424
 20
5.231944190131293
 10
2.362499872843424
 20
5.230555640326606
 10
2.362499872843424
 20
5.230555640326606
 10
2.362499872843424
 20
5.230555640326606
 10
2.362499872843424
 20
5.230555640326606
 10
2.354166454739041
 20
5.22638914320204
 10
2.345833248562283
 20
5.222222222222222
 10
2.337499830457899
 20
5.219444698757595
 10
2.32499991522895
 20
5.220833672417535
 10
2.313888761732313
 20
5.220833672417535
 10
2.301388634575738
 20
5.222222646077474
 10
2.301388634575738
 20
5.222222646077474
 10
2.301388634575738
 20
5.222222646077474
 10
2.301388634575738
 20
5.222222646077474
 10
2.247222052680121
 20
5.238889482286241
 10
2.193055258856879
 20
5.243055979410807
 10
2.140277438693576
 20
5.222222646077474
 10
2.136110729641385
 20
5.220833672417535
 10
2.130555258856879
 20
5.220833672417535
 10
2.126388549804688
 20
5.219444698757595
 10
2.126388549804688
 20
5.219444698757595
 10
2.126388549804688
 20
5.219444698757595
 10
2.126388549804688
 20
5.219444698757595
 10
2.102777481079102
 20
5.219444698757595
 10
2.08611085679796
 20
5.204166836208767
 10
2.070832994249132
 20
5.187500423855251
 10
2.065277523464627
 20
5.184722476535373
 10
2.058333079020182
 20
5.180555979410807
 10
2.052777396308051
 20
5.177778032090928
 10
2.052777396308051
 20
5.177778032090928
 10
2.052777396308051
 20
5.177778032090928
 10
2.052777396308051
 20
5.177778032090928
 10
2.027777353922526
 20
5.169444613986545
 10
2.011110729641385
 20
5.15000025431315
 10
1.993055131700304
 20
5.133333418104383
 10
1.991666158040365
 20
5.133333418104383
 10
1.990277396308051
 20
5.133333418104383
 10
1.988888422648112
 20
5.131944444444444
 10
1.988888422648112
 20
5.131944444444444
 10
1.988888422648112
 20
5.131944444444444
 10
1.988888422648112
 20
5.131944444444444
 10
1.979166242811415
 20
5.133333418104383
 10
1.973610560099284
 20
5.129166497124566
 10
1.970832824707031
 20
5.120833502875434
 10
1.943055046929253
 20
5.109722561306423
 10
1.915277269151476
 20
5.098611195882161
 10
1.887499491373698
 20
5.08750025431315
 10
1.886110517713758
 20
5.086111280653212
 10
1.886110517713758
 20
5.083333757188584
 10
1.884721755981445
 20
5.080555809868707
 10
1.886110729641384
 20
5.083333757188584
 10
1.886110729641384
 20
5.084722306993272
 10
1.887499491373698
 20
5.08750025431315
 10
1.836110644870334
 20
5.080555809868707
 10
1.78472179836697
 20
5.081944783528646
 10
1.73472171359592
 20
5.08750025431315
 10
1.730555004543728
 20
5.08888922797309
 10
1.724999533759223
 20
5.08888922797309
 10
1.720832824707031
 20
5.090278201633029
 10
1.720832824707031
 20
5.090278201633029
 10
1.720832824707031
 20
5.090278201633029
 10
1.720832824707031
 20
5.090278201633029
 10
1.668055004543728
 20
5.109722561306423
 10
1.622221734788683
 20
5.140278286404079
 10
1.576388359069824
 20
5.170833587646484
 10
1.570832782321506
 20
5.173611534966363
 10
1.566666179233127
 20
5.176389058430989
 10
1.561110602484809
 20
5.179167005750868
 10
1.561110602484809
 20
5.179167005750868
 10
1.561110602484809
 20
5.179167005750868
 10
1.561110602484809
 20
5.179167005750868
 10
1.540277269151476
 20
5.200000339084201
 10
1.51527722676595
 20
5.21250025431315
 10
1.487499448988173
 20
5.219444698757595
 10
1.483332739935981
 20
5.220833672417535
 10
1.477777269151476
 20
5.220833672417535
 10
1.473610560099284
 20
5.222222646077474
 10
1.473610560099284
 20
5.222222646077474
 10
1.473610560099284
 20
5.222222646077474
 10
1.473610560099284
 20
5.222222646077474
 10
1.419443872239855
 20
5.244444953070746
 10
1.365277184380425
 20
5.240278032090928
 10
1.312499470180935
 20
5.222222646077474
 10
1.305555025736491
 20
5.222222646077474
 10
1.298610581292046
 20
5.220833672417535
 10
1.290277269151476
 20
5.220833672417535
 10
1.290277269151476
 20
5.220833672417535
 10
1.290277269151476
 20
5.220833672417535
 10
1.290277269151476
 20
5.220833672417535
 10
1.261110623677572
 20
5.219444698757595
 10
1.248610602484809
 20
5.236111534966363
 10
1.243055025736491
 20
5.262500339084201
 10
1.240277290344238
 20
5.27500025431315
 10
1.244443893432617
 20
5.290278116861979
 10
1.230555004543728
 20
5.297222561306423
 10
1.229166136847602
 20
5.301389058430989
 10
1.227777269151476
 20
5.304167005750868
 10
1.226388295491536
 20
5.308333502875434
 10
1.226388295491536
 20
5.308333502875434
 10
1.226388295491536
 20
5.308333502875434
 10
1.226388295491536
 20
5.308333502875434
 10
1.205554962158203
 20
5.33750025431315
 10
1.173610475328233
 20
5.331944783528646
 10
1.144443829854329
 20
5.336111280653212
 10
1.140277120802138
 20
5.33750025431315
 10
1.134721650017632
 20
5.33750025431315
 10
1.130554940965441
 20
5.33888922797309
 10
1.130554940965441
 20
5.33888922797309
 10
1.130554940965441
 20
5.33888922797309
 10
1.130554940965441
 20
5.33888922797309
 10
1.104166030883789
 20
5.356944613986545
 10
1.069443808661567
 20
5.356944613986545
 10
1.041666030883789
 20
5.376389397515191
 10
1.006943808661567
 20
5.40138922797309
 10
1.006943808661567
 20
5.416667090521918
 10
1.041666030883789
 20
5.437500423855251
 10
1.045832739935981
 20
5.437500423855251
 10
1.051388210720486
 20
5.438889397515191
 10
1.055554919772678
 20
5.438889397515191
 10
1.069443808661567
 20
5.436111450195312
 10
1.083332697550456
 20
5.44027837117513
 10
1.093054877387153
 20
5.451389312744141
 10
1.099999321831597
 20
5.454167260064019
 10
1.106943766276042
 20
5.456944783528646
 10
1.115277078416612
 20
5.459722730848524
 10
1.115277078416612
 20
5.459722730848524
 10
1.115277078416612
 20
5.459722730848524
 10
1.115277078416612
 20
5.459722730848524
 10
1.118054813808865
 20
5.462500678168403
 10
1.122221522861057
 20
5.46388922797309
 10
1.124999258253309
 20
5.466667175292969
 10
1.131943702697754
 20
5.469445122612847
 10
1.138888147142198
 20
5.472222646077474
 10
1.144443723890517
 20
5.473611619737413
 10
1.144443723890517
 20
5.473611619737413
 10
1.144443723890517
 20
5.473611619737413
 10
1.144443723890517
 20
5.473611619737413
 10
1.159721480475532
 20
5.477778116861979
 10
1.17361036936442
 20
5.480556064181857
 10
1.180554813808865
 20
5.497222900390625
 10
1.193054835001627
 20
5.506945292154947
 10
1.204165882534451
 20
5.516667260064019
 10
1.216665903727213
 20
5.526389651828342
 10
1.216665903727213
 20
5.526389651828342
 10
1.216665903727213
 20
5.526389651828342
 10
1.216665903727213
 20
5.526389651828342
 10
1.25833257039388
 20
5.559722900390625
 10
1.29861036936442
 20
5.595834096272786
 10
1.32083257039388
 20
5.647223154703775
 10
1.32083257039388
 20
5.647223154703775
 10
1.322221438090006
 20
5.648612128363715
 10
1.322221438090006
 20
5.648612128363715
 10
1.322221438090006
 20
5.648612128363715
 10
1.322221438090006
 20
5.648612128363715
 10
1.322221438090006
 20
5.648612128363715
 10
1.338888062371148
 20
5.659723069932725
 10
1.34305477142334
 20
5.676389906141493
 10
1.348610348171658
 20
5.694445292154947
 10
1.349999215867784
 20
5.698611789279513
 10
1.35138808356391
 20
5.701389736599392
 10
1.35277705722385
 20
5.705556233723958
 10
1.35277705722385
 20
5.705556233723958
 10
1.35277705722385
 20
5.705556233723958
 10
1.35277705722385
 20
5.705556233723958
 10
1.38333257039388
 20
5.745833926730685
 10
1.38333257039388
 20
5.777778625488281
 10
1.354165924919976
 20
5.805556403266059
 10
1.35277705722385
 20
5.806945376925998
 10
1.35277705722385
 20
5.808334350585938
 10
1.349999215867784
 20
5.808334350585938
 10
1.349999215867784
 20
5.808334350585938
 10
1.349999215867784
 20
5.808334350585938
 10
1.349999215867784
 20
5.808334350585938
 10
1.334721459282769
 20
5.833334181043837
 10
1.306943681504991
 20
5.84166759914822
 10
1.28055477142334
 20
5.850001017252604
 10
1.249999258253309
 20
5.859723409016927
 10
1.21805477142334
 20
5.869445376925998
 10
1.193054729037815
 20
5.891667683919271
 10
1.179165840148926
 20
5.902778625488281
 10
1.174999131096734
 20
5.918056488037109
 10
1.179165840148926
 20
5.933334350585938
 10
1.183332549201118
 20
5.951389736599392
 10
1.197221438090006
 20
5.961112128363715
 10
1.215276930067274
 20
5.965278625488281
 10
1.23888799879286
 20
5.969445122612847
 10
1.262499173482259
 20
5.963889651828342
 10
1.286110242207845
 20
5.956945207383897
 10
1.309721310933431
 20
5.947222815619575
 10
1.334721353318956
 20
5.947222815619575
 10
1.359721395704481
 20
5.952778710259332
 10
1.363888104756673
 20
5.965278625488281
 10
1.362499131096734
 20
5.97916751437717
 10
1.368054707845052
 20
5.990278879801432
 10
1.362499131096734
 20
5.979167938232422
 10
1.36388799879286
 20
5.965279049343533
 10
1.359721395704481
 20
5.952778710259332
 10
1.397221353318956
 20
5.955556657579209
 10
1.380554729037815
 20
5.983334435356988
 10
1.381943596733941
 20
6.002778795030381
 10
1.381943596733941
 20
6.009723239474826
 10
1.381943596733941
 20
6.016667683919271
 10
1.381943596733941
 20
6.023612128363715
 10
1.368054707845052
 20
6.026390075683594
 10
1.368054707845052
 20
6.034723069932725
 10
1.368054707845052
 20
6.044445461697048
 10
1.368054707845052
 20
6.034723069932725
 10
1.368054707845052
 20
6.026390075683594
 10
1.381943596733941
 20
6.023612128363715
 10
1.379165861341688
 20
6.079167683919271
 10
1.377776887681749
 20
6.136112213134766
 10
1.374999152289496
 20
6.191667768690321
 10
1.374999152289496
 20
6.204167683919271
 10
1.376388019985623
 20
6.215279049343533
 10
1.376388019985623
 20
6.227778964572482
 10
1.376388019985623
 20
6.227778964572482
 10
1.376388019985623
 20
6.227778964572482
 10
1.376388019985623
 20
6.227778964572482
 10
1.38611019982232
 20
6.238889906141493
 10
1.384721332126194
 20
6.251390245225694
 10
1.381943596733941
 20
6.263890160454643
 10
1.381943596733941
 20
6.268056657579209
 10
1.383332464430067
 20
6.273612552218967
 10
1.383332464430067
 20
6.277779049343533
 10
1.383332464430067
 20
6.277779049343533
 10
1.383332464430067
 20
6.277779049343533
 10
1.383332464430067
 20
6.277779049343533
 10
1.390276908874512
 20
6.298612382676866
 10
1.398610221015082
 20
6.320834689670138
 10
1.405554665459527
 20
6.341668023003471
 10
1.405554665459527
 20
6.341668023003471
 10
1.405554665459527
 20
6.341668023003471
 10
1.405554665459527
 20
6.341668023003471
 10
1.405554665459527
 20
6.341668023003471
 10
1.405554665459527
 20
6.341668023003471
 10
1.405554665459527
 20
6.341668023003471
 10
1.415276845296224
 20
6.348612467447916
 10
1.419443554348416
 20
6.359723409016927
 10
1.419443554348416
 20
6.370834774441189
 10
1.420832422044542
 20
6.372223748101128
 10
1.422221289740668
 20
6.373612721761067
 10
1.420832422044542
 20
6.375001271565755
 10
1.420832422044542
 20
6.375001271565755
 10
1.420832422044542
 20
6.375001271565755
 10
1.420832422044542
 20
6.375001271565755
 10
1.431943575541178
 20
6.38055674235026
 10
1.440276887681749
 20
6.387501186794704
 10
1.440276887681749
 20
6.401390075683594
 10
1.449999067518446
 20
6.416667938232422
 10
1.466665797763401
 20
6.426389906141493
 10
1.472221374511719
 20
6.4444457160102
 10
1.472221374511719
 20
6.4444457160102
 10
1.472221374511719
 20
6.4444457160102
 10
1.472221374511719
 20
6.4444457160102
 10
1.490276972452799
 20
6.458334604899088
 10
1.512499173482259
 20
6.469445546468099
 10
1.523610221015082
 20
6.491667853461371
 10
1.523610221015082
 20
6.491667853461371
 10
1.524999088711209
 20
6.49305682712131
 10
1.524999088711209
 20
6.49305682712131
 10
1.524999088711209
 20
6.49305682712131
 10
1.524999088711209
 20
6.49305682712131
 10
1.524999088711209
 20
6.49305682712131
 10
1.543054686652289
 20
6.497223324245876
 10
1.556943575541178
 20
6.5069457160102
 10
1.569443490770128
 20
6.522223578559028
 10
1.570832358466254
 20
6.522223578559028
 10
1.57222122616238
 20
6.522223578559028
 10
1.57361019982232
 20
6.523612552218967
 10
1.57361019982232
 20
6.523612552218967
 10
1.57361019982232
 20
6.523612552218967
 10
1.57361019982232
 20
6.523612552218967
 10
1.587499088711209
 20
6.525001525878906
 10
1.598610242207845
 20
6.530556996663411
 10
1.606943554348416
 20
6.543056911892361
 10
1.611110263400608
 20
6.5444458855523
 10
1.61388799879286
 20
6.5444458855523
 10
1.618054707845052
 20
6.545834859212239
 10
1.618054707845052
 20
6.545834859212239
 10
1.618054707845052
 20
6.545834859212239
 10
1.618054707845052
 20
6.545834859212239
 10
1.651388062371148
 20
6.555557250976562
 10
1.687499152289496
 20
6.559723748101128
 10
1.719443639119466
 20
6.575001610649956
 10
1.777776930067274
 20
6.575001610649956
 10
1.836110221015082
 20
6.575001610649956
 10
1.894443723890516
 20
6.575001610649956
 10
1.894443723890516
 20
6.575001610649956
 10
1.894443723890516
 20
6.575001610649956
 10
1.894443723890516
 20
6.575001610649956
 10
1.908332612779405
 20
6.565279218885633
 10
1.923610475328233
 20
6.562501695421006
 10
1.938888125949436
 20
6.563890669080946
 10
1.943054835001627
 20
6.562501695421006
 10
1.948610305786133
 20
6.562501695421006
 10
1.952777014838325
 20
6.561112721761067
 10
1.952777014838325
 20
6.561112721761067
 10
1.952777014838325
 20
6.561112721761067
 10
1.952777014838325
 20
6.561112721761067
 10
1.973610348171658
 20
6.543057335747612
 10
2.001388125949436
 20
6.541668362087673
 10
2.024999194675022
 20
6.53194597032335
 10
2.027776930067274
 20
6.530556996663411
 10
2.031943639119466
 20
6.529168023003471
 10
2.034721374511719
 20
6.527779473198784
 10
2.034721374511719
 20
6.527779473198784
 10
2.034721374511719
 20
6.527779473198784
 10
2.034721374511719
 20
6.527779473198784
 10
2.044443554348416
 20
6.513890584309896
 10
2.058332443237305
 20
6.504168192545572
 10
2.074999067518446
 20
6.501390669080946
 10
2.077776802910699
 20
6.500001695421006
 10
2.080554538302951
 20
6.49722417195638
 10
2.081943511962891
 20
6.49583519829644
 10
2.081943511962891
 20
6.49583519829644
 10
2.081943511962891
 20
6.49583519829644
 10
2.081943511962891
 20
6.49583519829644
 10
2.087498982747396
 20
6.483335283067491
 10
2.097221374511719
 20
6.475001864963107
 10
2.111110263400608
 20
6.472223917643229
 10
2.112499237060547
 20
6.463890499538845
 10
2.116665734185113
 20
6.459724002414279
 10
2.124999152289496
 20
6.45833502875434
 10
2.124999152289496
 20
6.45833502875434
 10
2.124999152289496
 20
6.45833502875434
 10
2.124999152289496
 20
6.45833502875434
 10
2.131943596733941
 20
6.445835113525391
 10
2.137499067518446
 20
6.431946224636501
 10
2.154165903727213
 20
6.427779303656684
 10
2.155554877387153
 20
6.425001356336805
 10
2.156943639119466
 20
6.423612806532118
 10
2.159721374511719
 20
6.420834859212239
 10
2.159721374511719
 20
6.420834859212239
 10
2.159721374511719
 20
6.420834859212239
 10
2.159721374511719
 20
6.420834859212239
 10
2.162499109903971
 20
6.418056911892361
 10
2.16388808356391
 20
6.415279388427734
 10
2.166665818956163
 20
6.412501441107856
 10
2.168054792616102
 20
6.398612552218967
 10
2.174999237060547
 20
6.388890160454643
 10
2.186110178629557
 20
6.380557166205512
 10
2.201388041178385
 20
6.376390669080946
 10
2.205554538302951
 20
6.366668277316623
 10
2.206943511962891
 20
6.355557335747612
 10
2.205554538302951
 20
6.366668277316623
 10
2.201388041178385
 20
6.377779642740885
 10
2.186110178629557
 20
6.380557166205512
 10
2.186110178629557
 20
6.365279303656684
 10
2.191665649414062
 20
6.351390414767795
 10
2.206943511962891
 20
6.343056996663411
 10
2.20833248562283
 20
6.340279049343533
 10
2.209721247355143
 20
6.336112552218967
 10
2.212498982747396
 20
6.333334604899088
 10
2.212498982747396
 20
6.333334604899088
 10
2.212498982747396
 20
6.333334604899088
 10
2.212498982747396
 20
6.333334604899088
 10
2.213887956407335
 20
6.327779134114583
 10
2.215276718139648
 20
6.320834689670138
 10
2.216665691799588
 20
6.315279218885633
 10
2.227776845296224
 20
6.308334774441189
 10
2.234721289740668
 20
6.301390329996744
 10
2.233332316080729
 20
6.290279388427734
 10
2.234721289740668
 20
6.301390329996744
 10
2.227776845296224
 20
6.309723748101128
 10
2.216665691799588
 20
6.315279218885633
 10
2.215276718139648
 20
6.301390329996744
 10
2.21944342719184
 20
6.288890414767795
 10
2.229165607028537
 20
6.277779049343533
 10
2.230554580688477
 20
6.265279134114583
 10
2.230554580688477
 20
6.254167768690321
 10
2.23194334242079
 20
6.241667853461371
 10
2.244443257649739
 20
6.231945461697048
 10
2.247221204969618
 20
6.220834520128038
 10
2.244443257649739
 20
6.209723578559028
 10
2.245832231309679
 20
6.220834520128038
 10
2.2430542839898
 20
6.2319458855523
 10
2.23194334242079
 20
6.241667853461371
 10
2.229165607028537
 20
6.223612467447916
 10
2.224998897976346
 20
6.206945631239149
 10
2.237498813205295
 20
6.190278795030381
 10
2.237498813205295
 20
6.163889990912543
 10
2.237498813205295
 20
6.136112213134766
 10
2.237498813205295
 20
6.109723409016927
 10
2.240276548597548
 20
6.102778964572482
 10
2.2430542839898
 20
6.097223493787977
 10
2.244443257649739
 20
6.090279049343533
 10
2.244443257649739
 20
6.087501102023654
 10
2.245832231309679
 20
6.084723578559028
 10
2.245832231309679
 20
6.083334604899088
 10
2.245832231309679
 20
6.086112552218967
 10
2.244443257649739
 20
6.088890075683594
 10
2.244443257649739
 20
6.090279049343533
 10
2.2430542839898
 20
6.097223493787977
 10
2.240276548597548
 20
6.102778964572482
 10
2.237498813205295
 20
6.109723409016927
 10
2.224998897976346
 20
6.090279049343533
 10
2.23055436876085
 20
6.070834689670138
 10
2.234721077813042
 20
6.050001356336805
 10
2.233332104153103
 20
6.029168023003472
 10
2.233332104153103
 20
6.008334689670138
 10
2.23055436876085
 20
5.988890329996744
 10
2.227776633368598
 20
5.961112552218967
 10
2.238887786865234
 20
5.948612636990017
 10
2.266665564643012
 20
5.948612636990017
 10
2.269443300035265
 20
5.952779134114583
 10
2.272221035427517
 20
5.954168107774522
 10
2.274998982747396
 20
5.955557081434462
 10
2.272221247355143
 20
5.954168107774522
 10
2.269443511962891
 20
5.952779134114583
 10
2.266665564643012
 20
5.948612636990017
 10
2.273610009087456
 20
5.940279218885633
 10
2.28194342719184
 20
5.940279218885633
 10
2.288887871636284
 20
5.948612636990017
 10
2.293054580688477
 20
5.948612636990017
 10
2.298610051472981
 20
5.950001610649957
 10
2.302776760525174
 20
5.950001610649957
 10
2.323610093858507
 20
5.97083494398329
 10
2.343054453531901
 20
5.980557335747613
 10
2.361110051472981
 20
5.980557335747613
 10
2.343054453531901
 20
5.980557335747613
 10
2.323610093858507
 20
5.97083494398329
 10
2.302776760525174
 20
5.950001610649957
 10
2.333332273695204
 20
5.947223663330078
 10
2.359721289740668
 20
5.972223917643229
 10
2.391665564643012
 20
5.968056996663411
 10
2.394443300035265
 20
5.968056996663411
 10
2.398610009087456
 20
5.968056996663411
 10
2.401387744479709
 20
5.966668023003472
 10
2.401387744479709
 20
5.966668023003472
 10
2.401387744479709
 20
5.966668023003472
 10
2.401387744479709
 20
5.966668023003472
 10
2.441665437486436
 20
5.93194580078125
 10
2.443054411146376
 20
5.923612382676866
 10
2.41944334242079
 20
5.8819457160102
 10
2.41944334242079
 20
5.8819457160102
 10
2.41944334242079
 20
5.8819457160102
 10
2.41944334242079
 20
5.8819457160102
 10
2.384721120198567
 20
5.870834774441189
 10
2.352776633368598
 20
5.851389990912543
 10
2.316665649414062
 20
5.840279049343533
 10
2.302776760525174
 20
5.836112552218967
 10
2.284721162584093
 20
5.836112552218967
 10
2.277776718139648
 20
5.81805674235026
 10
2.270832273695204
 20
5.812501271565755
 10
2.265276802910698
 20
5.80694580078125
 10
2.258332358466254
 20
5.801389906141493
 10
2.256943384806315
 20
5.794445461697048
 10
2.255554623074002
 20
5.786112043592665
 10
2.255554623074002
 20
5.77916759914822
 10
2.256943596733941
 20
5.786112043592665
 10
2.258332358466254
 20
5.794445461697048
 10
2.258332358466254
 20
5.801389906141493
 10
2.237499025132921
 20
5.786112043592665
 10
2.231943554348416
 20
5.766667683919271
 10
2.243054495917426
 20
5.743056403266059
 10
2.244443469577365
 20
5.738889906141493
 10
2.244443469577365
 20
5.733334011501736
 10
2.245832231309679
 20
5.72916751437717
 10
2.255554411146376
 20
5.725001017252604
 10
2.261110093858507
 20
5.719445122612847
 10
2.26249885559082
 20
5.711112128363715
 10
2.261109881930881
 20
5.719445546468099
 10
2.255554411146376
 20
5.725001017252604
 10
2.245832231309679
 20
5.72916751437717
 10
2.243054495917426
 20
5.713889651828342
 10
2.251387702094184
 20
5.704167683919271
 10
2.26249885559082
 20
5.695834265814887
 10
2.270832273695204
 20
5.680556403266059
 10
2.279165479871962
 20
5.663889990912543
 10
2.287498897976346
 20
5.648612128363715
 10
2.290276633368598
 20
5.631945292154947
 10
2.299998813205295
 20
5.618056403266059
 10
2.315276675754123
 20
5.609723409016927
 10
2.323610093858507
 20
5.59305657280816
 10
2.337498982747396
 20
5.579167683919271
 10
2.351387871636284
 20
5.566667768690321
 10
2.351387871636284
 20
5.566667768690321
 10
2.351387871636284
 20
5.566667768690321
 10
2.351387871636284
 20
5.566667768690321
 10
2.361110051472981
 20
5.545834435356988
 10
2.37499894036187
 20
5.53055657280816
 10
2.397221247355143
 20
5.523612128363715
 10
2.402776718139648
 20
5.513889736599392
 10
2.411110136244032
 20
5.508334265814887
 10
2.422221289740668
 20
5.506945292154947
 10
2.422221289740668
 20
5.506945292154947
 10
2.422221289740668
 20
5.506945292154947
 10
2.422221289740668
 20
5.506945292154947
 10
2.430554707845052
 20
5.494445376925998
 10
2.437499152289496
 20
5.480556488037109
 10
2.455554538302951
 20
5.480556488037109
 10
2.459721247355143
 20
5.477778540717231
 10
2.463887956407335
 20
5.475001017252604
 10
2.468054453531901
 20
5.472223069932725
 10
2.468054453531901
 20
5.472223069932725
 10
2.468054453531901
 20
5.472223069932725
 10
2.468054453531901
 20
5.472223069932725
 10
2.472221162584093
 20
5.454167683919271
 10
2.487498813205295
 20
5.459723154703775
 10
2.49999894036187
 20
5.458334181043837
 10
2.511110093858507
 20
5.448611789279513
 10
2.526387744479709
 20
5.448611789279513
 10
2.538887871636284
 20
5.447223239474826
 10
2.538887871636284
 20
5.447223239474826
 10
2.538887871636284
 20
5.447223239474826
 10
2.538887871636284
 20
5.447223239474826
 10
2.54444334242079
 20
5.436112297905816
 10
2.554165734185113
 20
5.434723324245876
 10
2.565276675754123
 20
5.437500847710504
 10
2.573610093858507
 20
5.436111874050564
 10
2.581943300035265
 20
5.434722900390625
 10
2.590276718139648
 20
5.433334350585938
 10
2.590276718139648
 20
5.433334350585938
 10
2.590276718139648
 20
5.433334350585938
 10
2.590276718139648
 20
5.433334350585938
 10
2.595832188924153
 20
5.425000932481553
 10
2.599998897976346
 20
5.41666751437717
 10
2.605554580688477
 20
5.408334520128038
 10
2.605554580688477
 20
5.40555657280816
 10
2.605554580688477
 20
5.402779049343533
 10
2.604165607028537
 20
5.398612128363715
 10
2.604165607028537
 20
5.398612128363715
 10
2.604165607028537
 20
5.398612128363715
 10
2.604165607028537
 20
5.398612128363715
 10
2.590276718139648
 20
5.391667683919271
 10
2.580554538302951
 20
5.38055674235026
 10
2.572221120198567
 20
5.366667853461371
 10
2.5625
 20
5.365277608235677
 10
2.555555555555555
 20
5.36250008477105
 10
2.548611111111111
 20
5.359722137451172
 97
        0
 97
        0
 75
     2
 76
     1
 98
        0
  0
ENDSEC
  0
SECTION
  2
OBJECTS
  0
DICTIONARY
  5
C
330
0
100
AcDbDictionary
281
     1
  3
ACAD_GROUP
350
D
  3
ACAD_LAYOUT
350
1A
  3
ACAD_MATERIAL
350
3B
  3
ACAD_MLEADERSTYLE
350
56
  3
ACAD_MLINESTYLE
350
17
  3
ACAD_PLOTSETTINGS
350
19
  3
ACAD_PLOTSTYLENAME
350
E
  3
ACAD_TABLESTYLE
350
55
  3
ACAD_VISUALSTYLE
350
2A
  0
SUN
  5
3F
330
29
100
AcDbSun
 90
        1
290
     0
 63
     7
421
 16777215
 40
1.0
291
     1
 91
  2455826
 92
 54000000
292
     0
 70
     2
 71
   256
280
     1
  0
DICTIONARY
  5
D
102
{ACAD_REACTORS
330
C
102
}
330
C
100
AcDbDictionary
281
     1
  0
DICTIONARY
  5
1A
102
{ACAD_REACTORS
330
C
102
}
330
C
100
AcDbDictionary
281
     1
  3
Layout1
350
1E
  3
Layout2
350
26
  3
Model
350
22
  0
DICTIONARY
  5
3B
102
{ACAD_REACTORS
330
C
102
}
330
C
100
AcDbDictionary
281
     1
  3
ByBlock
350
3D
  3
ByLayer
350
3C
  3
Global
350
3E
  0
DICTIONARY
  5
56
102
{ACAD_REACTORS
330
C
102
}
330
C
100
AcDbDictionary
281
     1
  0
DICTIONARY
  5
17
102
{ACAD_REACTORS
330
C
102
}
330
C
100
AcDbDictionary
281
     1
  3
Standard
350
18
  0
DICTIONARY
  5
19
102
{ACAD_REACTORS
330
C
102
}
330
C
100
AcDbDictionary
281
     1
  0
ACDBDICTIONARYWDFLT
  5
E
102
{ACAD_REACTORS
330
C
102
}
330
C
100
AcDbDictionary
281
     1
  3
Normal
350
F
100
AcDbDictionaryWithDefault
340
F
  0
DICTIONARY
  5
55
102
{ACAD_REACTORS
330
C
102
}
330
C
100
AcDbDictionary
281
     1
  0
DICTIONARY
  5
2A
102
{ACAD_REACTORS
330
C
102
}
330
C
100
AcDbDictionary
281
     1
  3
2dWireframe
350
2F
  3
3D Hidden
350
31
  3
3dWireframe
350
30
  3
Basic
350
32
  3
Brighten
350
36
  3
ColorChange
350
3A
  3
Conceptual
350
34
  3
Dim
350
35
  3
Facepattern
350
39
  3
Flat
350
2B
  3
FlatWithEdges
350
2C
  3
Gouraud
350
2D
  3
GouraudWithEdges
350
2E
  3
Linepattern
350
38
  3
Realistic
350
33
  3
Thicken
350
37
  0
LAYOUT
  5
1E
102
{ACAD_REACTORS
330
1A
102
}
330
1A
100
AcDbPlotSettings
  1

  2
none_device
  4

  6

 40
0.0
 41
0.0
 42
0.0
 43
0.0
 44
0.0
 45
0.0
 46
0.0
 47
0.0
 48
0.0
 49
0.0
140
0.0
141
0.0
142
1.0
143
1.0
 70
   688
 72
     0
 73
     0
 74
     5
  7

 75
    16
 76
     0
 77
     2
 78
   300
147
1.0
148
0.0
149
0.0
100
AcDbLayout
  1
Layout1
 70
     1
 71
     1
 10
0.0
 20
0.0
 11
12.0
 21
9.0
 12
0.0
 22
0.0
 32
0.0
 14
1.000000000000000E+20
 24
1.000000000000000E+20
 34
1.000000000000000E+20
 15
-1.000000000000000E+20
 25
-1.000000000000000E+20
 35
-1.000000000000000E+20
146
0.0
 13
0.0
 23
0.0
 33
0.0
 16
1.0
 26
0.0
 36
0.0
 17
0.0
 27
1.0
 37
0.0
 76
     0
330
1B
  0
LAYOUT
  5
26
102
{ACAD_REACTORS
330
1A
102
}
330
1A
100
AcDbPlotSettings
  1

  2
none_device
  4

  6

 40
0.0
 41
0.0
 42
0.0
 43
0.0
 44
0.0
 45
0.0
 46
0.0
 47
0.0
 48
0.0
 49
0.0
140
0.0
141
0.0
142
1.0
143
1.0
 70
   688
 72
     0
 73
     0
 74
     5
  7

 75
    16
 76
     0
 77
     2
 78
   300
147
1.0
148
0.0
149
0.0
100
AcDbLayout
  1
Layout2
 70
     1
 71
     2
 10
0.0
 20
0.0
 11
0.0
 21
0.0
 12
0.0
 22
0.0
 32
0.0
 14
0.0
 24
0.0
 34
0.0
 15
0.0
 25
0.0
 35
0.0
146
0.0
 13
0.0
 23
0.0
 33
0.0
 16
1.0
 26
0.0
 36
0.0
 17
0.0
 27
1.0
 37
0.0
 76
     0
330
23
  0
LAYOUT
  5
22
102
{ACAD_REACTORS
330
1A
102
}
330
1A
100
AcDbPlotSettings
  1

  2
none_device
  4

  6

 40
0.0
 41
0.0
 42
0.0
 43
0.0
 44
0.0
 45
0.0
 46
0.0
 47
0.0
 48
0.0
 49
0.0
140
0.0
141
0.0
142
1.0
143
1.0
 70
  1712
 72
     0
 73
     0
 74
     0
  7

 75
     0
 76
     0
 77
     2
 78
   300
147
1.0
148
0.0
149
0.0
100
AcDbLayout
  1
Model
 70
     1
 71
     0
 10
0.0
 20
0.0
 11
12.0
 21
9.0
 12
0.0
 22
0.0
 32
0.0
 14
1.000000000000000E+20
 24
1.000000000000000E+20
 34
1.000000000000000E+20
 15
-1.000000000000000E+20
 25
-1.000000000000000E+20
 35
-1.000000000000000E+20
146
0.0
 13
0.0
 23
0.0
 33
0.0
 16
1.0
 26
0.0
 36
0.0
 17
0.0
 27
1.0
 37
0.0
 76
     0
330
1F
331
29
  0
MATERIAL
  5
3D
102
{ACAD_REACTORS
330
3B
102
}
330
3B
100
AcDbMaterial
  1
ByBlock
 72
     1
 94
      127
  0
MATERIAL
  5
3C
102
{ACAD_REACTORS
330
3B
102
}
330
3B
100
AcDbMaterial
  1
ByLayer
 72
     1
 94
      127
  0
MATERIAL
  5
3E
102
{ACAD_REACTORS
330
3B
102
}
330
3B
100
AcDbMaterial
  1
Global
 72
     1
 94
      127
  0
MLINESTYLE
  5
18
102
{ACAD_REACTORS
330
17
102
}
330
17
100
AcDbMlineStyle
  2
Standard
 70
     0
  3

 62
   256
 51
90.0
 52
90.0
 71
     2
 49
0.5
 62
   256
  6
BYLAYER
 49
-0.5
 62
   256
  6
BYLAYER
  0
ACDBPLACEHOLDER
  5
F
102
{ACAD_REACTORS
330
E
102
}
330
E
  0
VISUALSTYLE
  5
2F
102
{ACAD_REACTORS
330
2A
102
}
330
2A
100
AcDbVisualStyle
  2
2dWireframe
 70
     4
177
     2
291
     0
 71
     0
176
     1
 72
     2
176
     1
 73
     0
176
     1
 90
        0
176
     1
 40
-0.6
176
     1
 41
-30.0
176
     1
 62
     5
 63
     7
421
 16777215
176
     1
 74
     1
176
     1
 91
        4
176
     1
 64
     7
176
     1
 65
   257
176
     1
 75
     1
176
     1
175
     1
176
     1
 42
1.0
176
     1
 92
        0
176
     1
 66
   257
176
     1
 43
1.0
176
     1
 76
     1
176
     1
 77
     6
176
     1
 78
     2
176
     1
 67
     7
176
     1
 79
     5
176
     1
170
     0
176
     1
171
     0
176
     1
290
     0
176
     1
 93
        1
176
     1
 44
0.0
176
     1
173
     0
176
     1
  0
VISUALSTYLE
  5
31
102
{ACAD_REACTORS
330
2A
102
}
330
2A
100
AcDbVisualStyle
  2
3D Hidden
 70
     6
177
     2
291
     0
 71
     1
176
     1
 72
     2
176
     1
 73
     2
176
     1
 90
        0
176
     1
 40
-0.6
176
     1
 41
-30.0
176
     1
 62
     5
 63
     7
421
 16777215
176
     1
 74
     2
176
     1
 91
        2
176
     1
 64
     7
176
     1
 65
   257
176
     1
 75
     2
176
     1
175
     1
176
     1
 42
40.0
176
     1
 92
        0
176
     1
 66
   257
176
     1
 43
1.0
176
     1
 76
     1
176
     1
 77
     6
176
     1
 78
     2
176
     1
 67
     7
176
     1
 79
     3
176
     1
170
     0
176
     1
171
     0
176
     1
290
     0
176
     1
 93
        1
176
     1
 44
0.0
176
     1
173
     0
176
     1
  0
VISUALSTYLE
  5
30
102
{ACAD_REACTORS
330
2A
102
}
330
2A
100
AcDbVisualStyle
  2
3dWireframe
 70
     5
177
     2
291
     0
 71
     0
176
     1
 72
     2
176
     1
 73
     0
176
     1
 90
        0
176
     1
 40
-0.6
176
     1
 41
-30.0
176
     1
 62
     5
 63
     7
421
 16777215
176
     1
 74
     1
176
     1
 91
        4
176
     1
 64
     7
176
     1
 65
   257
176
     1
 75
     1
176
     1
175
     1
176
     1
 42
1.0
176
     1
 92
        0
176
     1
 66
   257
176
     1
 43
1.0
176
     1
 76
     1
176
     1
 77
     6
176
     1
 78
     2
176
     1
 67
     7
176
     1
 79
     5
176
     1
170
     0
176
     1
171
     0
176
     1
290
     0
176
     1
 93
        1
176
     1
 44
0.0
176
     1
173
     0
176
     1
  0
VISUALSTYLE
  5
32
102
{ACAD_REACTORS
330
2A
102
}
330
2A
100
AcDbVisualStyle
  2
Basic
 70
     7
177
     2
291
     1
 71
     1
176
     1
 72
     0
176
     1
 73
     1
176
     1
 90
        0
176
     1
 40
-0.6
176
     1
 41
-30.0
176
     1
 62
     5
 63
     7
421
 16777215
176
     1
 74
     0
176
     1
 91
        4
176
     1
 64
     7
176
     1
 65
   257
176
     1
 75
     1
176
     1
175
     1
176
     1
 42
1.0
176
     1
 92
        8
176
     1
 66
     7
176
     1
 43
1.0
176
     1
 76
     1
176
     1
 77
     6
176
     1
 78
     2
176
     1
 67
     7
176
     1
 79
     5
176
     1
170
     0
176
     1
171
     0
176
     1
290
     0
176
     1
 93
        1
176
     1
 44
0.0
176
     1
173
     0
176
     1
  0
VISUALSTYLE
  5
36
102
{ACAD_REACTORS
330
2A
102
}
330
2A
100
AcDbVisualStyle
  2
Brighten
 70
    12
177
     2
291
     1
 71
     2
176
     1
 72
     2
176
     1
 73
     0
176
     1
 90
        0
176
     1
 40
-0.6
176
     1
 41
-30.0
176
     1
 62
     5
 63
     7
421
 16777215
176
     1
 74
     1
176
     1
 91
        4
176
     1
 64
     7
176
     1
 65
   257
176
     1
 75
     1
176
     1
175
     1
176
     1
 42
1.0
176
     1
 92
        8
176
     1
 66
     7
176
     1
 43
1.0
176
     1
 76
     1
176
     1
 77
     6
176
     1
 78
     2
176
     1
 67
     7
176
     1
 79
     5
176
     1
170
     0
176
     1
171
     0
176
     1
290
     0
176
     1
 93
        1
176
     1
 44
50.0
176
     1
173
     0
176
     1
  0
VISUALSTYLE
  5
3A
102
{ACAD_REACTORS
330
2A
102
}
330
2A
100
AcDbVisualStyle
  2
ColorChange
 70
    16
177
     2
291
     1
 71
     2
176
     1
 72
     2
176
     1
 73
     3
176
     1
 90
        0
176
     1
 40
-0.6
176
     1
 41
-30.0
176
     1
 62
     5
 63
     8
421
  8421504
176
     1
 74
     1
176
     1
 91
        4
176
     1
 64
     7
176
     1
 65
   257
176
     1
 75
     1
176
     1
175
     1
176
     1
 42
1.0
176
     1
 92
        8
176
     1
 66
     8
424
  8421504
176
     1
 43
1.0
176
     1
 76
     1
176
     1
 77
     6
176
     1
 78
     2
176
     1
 67
     7
176
     1
 79
     5
176
     1
170
     0
176
     1
171
     0
176
     1
290
     0
176
     1
 93
        1
176
     1
 44
0.0
176
     1
173
     0
176
     1
  0
VISUALSTYLE
  5
34
102
{ACAD_REACTORS
330
2A
102
}
330
2A
100
AcDbVisualStyle
  2
Conceptual
 70
     9
177
     2
291
     0
 71
     3
176
     1
 72
     2
176
     1
 73
     0
176
     1
 90
        0
176
     1
 40
-0.6
176
     1
 41
-30.0
176
     1
 62
     5
 63
     7
421
 16777215
176
     1
 74
     2
176
     1
 91
        2
176
     1
 64
     7
176
     1
 65
   257
176
     1
 75
     1
176
     1
175
     1
176
     1
 42
40.0
176
     1
 92
        8
176
     1
 66
     7
176
     1
 43
1.0
176
     1
 76
     1
176
     1
 77
     6
176
     1
 78
     2
176
     1
 67
     7
176
     1
 79
     3
176
     1
170
     0
176
     1
171
     0
176
     1
290
     0
176
     1
 93
        1
176
     1
 44
0.0
176
     1
173
     0
176
     1
  0
VISUALSTYLE
  5
35
102
{ACAD_REACTORS
330
2A
102
}
330
2A
100
AcDbVisualStyle
  2
Dim
 70
    11
177
     2
291
     1
 71
     2
176
     1
 72
     2
176
     1
 73
     0
176
     1
 90
        0
176
     1
 40
-0.6
176
     1
 41
-30.0
176
     1
 62
     5
 63
     7
421
 16777215
176
     1
 74
     1
176
     1
 91
        4
176
     1
 64
     7
176
     1
 65
   257
176
     1
 75
     1
176
     1
175
     1
176
     1
 42
1.0
176
     1
 92
        8
176
     1
 66
     7
176
     1
 43
1.0
176
     1
 76
     1
176
     1
 77
     6
176
     1
 78
     2
176
     1
 67
     7
176
     1
 79
     5
176
     1
170
     0
176
     1
171
     0
176
     1
290
     0
176
     1
 93
        1
176
     1
 44
-50.0
176
     1
173
     0
176
     1
  0
VISUALSTYLE
  5
39
102
{ACAD_REACTORS
330
2A
102
}
330
2A
100
AcDbVisualStyle
  2
Facepattern
 70
    15
177
     2
291
     1
 71
     2
176
     1
 72
     2
176
     1
 73
     0
176
     1
 90
        0
176
     1
 40
-0.6
176
     1
 41
-30.0
176
     1
 62
     5
 63
     7
421
 16777215
176
     1
 74
     1
176
     1
 91
        4
176
     1
 64
     7
176
     1
 65
   257
176
     1
 75
     1
176
     1
175
     1
176
     1
 42
1.0
176
     1
 92
        8
176
     1
 66
     7
176
     1
 43
1.0
176
     1
 76
     1
176
     1
 77
     6
176
     1
 78
     2
176
     1
 67
     7
176
     1
 79
     5
176
     1
170
     0
176
     1
171
     0
176
     1
290
     0
176
     1
 93
        1
176
     1
 44
0.0
176
     1
173
     0
176
     1
  0
VISUALSTYLE
  5
2B
102
{ACAD_REACTORS
330
2A
102
}
330
2A
100
AcDbVisualStyle
  2
Flat
 70
     0
177
     2
291
     1
 71
     2
176
     1
 72
     1
176
     1
 73
     1
176
     1
 90
        2
176
     1
 40
-0.6
176
     1
 41
30.0
176
     1
 62
     5
 63
     7
421
 16777215
176
     1
 74
     0
176
     1
 91
        4
176
     1
 64
     7
176
     1
 65
   257
176
     1
 75
     1
176
     1
175
     1
176
     1
 42
1.0
176
     1
 92
        8
176
     1
 66
     7
176
     1
 43
1.0
176
     1
 76
     1
176
     1
 77
     6
176
     1
 78
     2
176
     1
 67
     7
176
     1
 79
     5
176
     1
170
     0
176
     1
171
     0
176
     1
290
     0
176
     1
 93
       13
176
     1
 44
0.0
176
     1
173
     0
176
     1
  0
VISUALSTYLE
  5
2C
102
{ACAD_REACTORS
330
2A
102
}
330
2A
100
AcDbVisualStyle
  2
FlatWithEdges
 70
     1
177
     2
291
     1
 71
     2
176
     1
 72
     1
176
     1
 73
     1
176
     1
 90
        2
176
     1
 40
-0.6
176
     1
 41
30.0
176
     1
 62
     5
 63
     7
421
 16777215
176
     1
 74
     1
176
     1
 91
        4
176
     1
 64
     7
176
     1
 65
   257
176
     1
 75
     1
176
     1
175
     1
176
     1
 42
1.0
176
     1
 92
        0
176
     1
 66
   257
176
     1
 43
1.0
176
     1
 76
     1
176
     1
 77
     6
176
     1
 78
     2
176
     1
 67
     7
176
     1
 79
     5
176
     1
170
     0
176
     1
171
     0
176
     1
290
     0
176
     1
 93
       13
176
     1
 44
0.0
176
     1
173
     0
176
     1
  0
VISUALSTYLE
  5
2D
102
{ACAD_REACTORS
330
2A
102
}
330
2A
100
AcDbVisualStyle
  2
Gouraud
 70
     2
177
     2
291
     1
 71
     2
176
     1
 72
     2
176
     1
 73
     1
176
     1
 90
        2
176
     1
 40
-0.6
176
     1
 41
30.0
176
     1
 62
     5
 63
     7
421
 16777215
176
     1
 74
     0
176
     1
 91
        4
176
     1
 64
     7
176
     1
 65
   257
176
     1
 75
     1
176
     1
175
     1
176
     1
 42
1.0
176
     1
 92
        0
176
     1
 66
     7
176
     1
 43
1.0
176
     1
 76
     1
176
     1
 77
     6
176
     1
 78
     2
176
     1
 67
     7
176
     1
 79
     5
176
     1
170
     0
176
     1
171
     0
176
     1
290
     0
176
     1
 93
       13
176
     1
 44
0.0
176
     1
173
     0
176
     1
  0
VISUALSTYLE
  5
2E
102
{ACAD_REACTORS
330
2A
102
}
330
2A
100
AcDbVisualStyle
  2
GouraudWithEdges
 70
     3
177
     2
291
     1
 71
     2
176
     1
 72
     2
176
     1
 73
     1
176
     1
 90
        2
176
     1
 40
-0.6
176
     1
 41
30.0
176
     1
 62
     5
 63
     7
421
 16777215
176
     1
 74
     1
176
     1
 91
        4
176
     1
 64
     7
176
     1
 65
   257
176
     1
 75
     1
176
     1
175
     1
176
     1
 42
1.0
176
     1
 92
        0
176
     1
 66
   257
176
     1
 43
1.0
176
     1
 76
     1
176
     1
 77
     6
176
     1
 78
     2
176
     1
 67
     7
176
     1
 79
     5
176
     1
170
     0
176
     1
171
     0
176
     1
290
     0
176
     1
 93
       13
176
     1
 44
0.0
176
     1
173
     0
176
     1
  0
VISUALSTYLE
  5
38
102
{ACAD_REACTORS
330
2A
102
}
330
2A
100
AcDbVisualStyle
  2
Linepattern
 70
    14
177
     2
291
     1
 71
     2
176
     1
 72
     2
176
     1
 73
     0
176
     1
 90
        0
176
     1
 40
-0.6
176
     1
 41
-30.0
176
     1
 62
     5
 63
     7
421
 16777215
176
     1
 74
     1
176
     1
 91
        4
176
     1
 64
     7
176
     1
 65
   257
176
     1
 75
     7
176
     1
175
     7
176
     1
 42
1.0
176
     1
 92
        8
176
     1
 66
     7
176
     1
 43
1.0
176
     1
 76
     1
176
     1
 77
     6
176
     1
 78
     2
176
     1
 67
     7
176
     1
 79
     5
176
     1
170
     0
176
     1
171
     0
176
     1
290
     0
176
     1
 93
        1
176
     1
 44
0.0
176
     1
173
     0
176
     1
  0
VISUALSTYLE
  5
33
102
{ACAD_REACTORS
330
2A
102
}
330
2A
100
AcDbVisualStyle
  2
Realistic
 70
     8
177
     2
291
     0
 71
     2
176
     1
 72
     2
176
     1
 73
     0
176
     1
 90
        0
176
     1
 40
-0.6
176
     1
 41
-30.0
176
     1
 62
     5
 63
     7
421
 16777215
176
     1
 74
     1
176
     1
 91
        0
176
     1
 64
     7
176
     1
 65
   257
176
     1
 75
     1
176
     1
175
     1
176
     1
 42
1.0
176
     1
 92
        8
176
     1
 66
     8
424
  7895160
176
     1
 43
1.0
176
     1
 76
     1
176
     1
 77
     6
176
     1
 78
     2
176
     1
 67
     7
176
     1
 79
     5
176
     1
170
     0
176
     1
171
     0
176
     1
290
     0
176
     1
 93
       13
176
     1
 44
0.0
176
     1
173
     0
176
     1
  0
VISUALSTYLE
  5
37
102
{ACAD_REACTORS
330
2A
102
}
330
2A
100
AcDbVisualStyle
  2
Thicken
 70
    13
177
     2
291
     1
 71
     2
176
     1
 72
     2
176
     1
 73
     0
176
     1
 90
        0
176
     1
 40
-0.6
176
     1
 41
-30.0
176
     1
 62
     5
 63
     7
421
 16777215
176
     1
 74
     1
176
     1
 91
        4
176
     1
 64
     7
176
     1
 65
   257
176
     1
 75
     1
176
     1
175
     1
176
     1
 42
1.0
176
     1
 92
       12
176
     1
 66
     7
176
     1
 43
1.0
176
     1
 76
     1
176
     1
 77
     6
176
     1
 78
     2
176
     1
 67
     7
176
     1
 79
     5
176
     1
170
     0
176
     1
171
     0
176
     1
290
     0
176
     1
 93
        1
176
     1
 44
0.0
176
     1
173
     0
176
     1
  0
ENDSEC
  0
EOF
