<?xml version="1.0" encoding="utf-8"?>
<!-- Generator: Adobe Illustrator 22.1.0, SVG Export Plug-In . SVG Version: 6.00 Build 0)  -->
<svg version="1.1" id="Layer_1" xmlns="http://www.w3.org/2000/svg" xmlns:xlink="http://www.w3.org/1999/xlink" x="0px" y="0px"
	 viewBox="0 0 864 864" style="enable-background:new 0 0 864 864;" xml:space="preserve">
<path d="M408.1,385.5c2.8-3.5,5-7.4,6.3-12c-0.9,0.5-1.6,0.8-2.2,1.1c-6.4,3.6-13.3,6.1-20.4,7.7c-1.4,0.3-2.2,0-3.2-0.9
	c-10.3-9.6-22.5-13-36.1-9.7c-13.2,3.3-22.2,11.6-27.1,24.4c-2.5,6.7-2.9,13.6-1.6,20.5c0.1,0.7,0.6,1.5-0.9,1.4
	c-9.6-0.7-18.9-2.4-28-5.4c-17.3-5.8-32.2-15.3-44.9-28.4c-2-2.1-3.9-4.3-5.9-6.5c-4.9,8.9-6.4,18.2-4.2,28
	c2.2,9.8,7.6,17.5,16.1,23.6c-6.4-0.3-12-1.9-17.4-4.8c0,9.4,2.8,17.6,8.5,24.7c5.7,7.1,13.1,11.6,22.1,13.7
	c-0.4,0.2-0.5,0.2-0.6,0.3c-0.3,0.1-0.7,0.2-1.1,0.2c-4.7,1-9.4,1.2-14.1,0.4c-1-0.2-1.2,0-0.8,1c4.9,12.7,13.9,20.9,27,24.6
	c2.7,0.7,5.5,1,8.7,1.2c-17.1,12.9-35.9,18.1-56.7,16.2c4.2,2.9,8.7,5.3,13.3,7.4c13.4,6,27.4,9.3,42,9.8
	c15.8,0.5,31.1-1.9,45.7-7.8c18.9-7.6,34.3-19.8,46.2-36.3c14.9-20.8,22.3-43.9,21.7-69.6c0-1.1,0.3-1.8,1.2-2.4
	c5.1-3.7,9.6-8.2,13.6-13c1.5-1.8,2.8-3.7,4.2-5.6c-6.9,2.6-13.8,4.6-21.1,5.3C402,391.9,405.3,389,408.1,385.5z"/>
<path d="M600.5,372c-0.5-3.3-4-7.1-8.5-7.1c-0.6,0-1.3-0.1-1.9-0.1c-46.1,0-92.2,0-138.3,0c-0.6,0-1.3,0.1-1.9,0.1
	c-5.1,0.4-8.4,4.2-8.4,9.7c0,46.5,0,92.9,0,139.4c0,6.2,3.7,10,9.9,10c46.5,0,92.9,0,139.4,0c6.4,0,10-3.7,10-10.1
	c0-46.2,0-92.5,0-138.7C600.7,374.1,600.6,373,600.5,372z M577.5,435.2c-0.4,3.8-0.4,7.7-0.6,11.5c-0.1,2.1-0.4,4.2-0.5,6.3
	c-0.1,1.4-1,1.1-1.8,1.1c-5.8,0-11.6,0.1-17.4-0.1c-2.2-0.1-2.6,0.7-2.6,2.7c0.1,8.9,0,17.8,0,26.7c0,0,0,0,0.1,0c0,9,0,18.1,0,27.1
	c0,1.6-0.4,2.2-2.1,2.1c-6-0.1-12.1-0.1-18.1,0c-1.8,0-2.2-0.6-2.2-2.3c0.1-17.9,0.1-35.7,0.1-53.6c0-2.7,0-2.7-2.8-2.7
	c-3.6,0-7.3,0-10.9,0c-1.3,0-1.8-0.3-1.8-1.7c0.1-5.9,0.1-11.8,0-17.7c0-1.4,0.5-1.8,1.8-1.7c3.9,0.1,7.7-0.1,11.6,0.1
	c1.7,0.1,2.2-0.5,2.2-2.1c-0.1-5.3-0.1-10.6,0-16c0.1-13.8,7.8-23.2,21.2-26.2c5.8-1.3,11.7-0.9,17.6-0.6c0.2,0,0.4,0,0.6,0.1
	c1.8,0.3,4.2-0.6,5.1,0.9c0.8,1.2,0.3,3.4,0.2,5.1c-0.1,4.1-0.3,8.1-0.3,12.2c0,1.4-0.4,1.9-1.9,1.9c-3.9-0.1-7.7-0.1-11.6,0
	c-6.2,0-8.6,2.2-8.8,8.3c-0.2,5,0,9.9-0.1,14.9c0,1.5,0.8,1.5,1.9,1.5c6.3,0,12.6,0,18.9,0C577.2,432.9,577.7,433.3,577.5,435.2z"/>
<g>
	<path d="M794.3,408.8c0-1.4,0-2.8,0-4.2c-1.7-2.5-1.3-5.5-2-8.2c-5.1-20.5-20-33.4-41-35.6c-0.9-0.1-2,0.5-2.5-0.8
		c-0.6,0-1.1,0-1.7,0c-1.7,1.5-3.4,1.1-5.1,0c-21.9,0-43.8,0-65.7,0c-1.1,1.1-2.2,1.5-3.4,0c-1.1,0-2.2,0-3.4,0
		c-3.1,2-6.9,1.6-10.2,2.7c-17.8,5.6-28.4,17.5-32,35.8c-0.3,1.8,0.1,3.9-1.6,5.3c0,1.1,0,2.2,0,3.4c1.5,1.7,1.1,3.4,0,5.1
		c0,21.3,0,42.7,0,64c1.1,1.7,1.5,3.4,0,5.1c0,1.1,0,2.2,0,3.4c2.2,3.5,1.9,7.6,3.1,11.4c5.2,17.1,19.6,29.9,40.4,31.4
		c27.1,1.9,54.3,2,81.5,0c21.2-1.6,38.8-14.6,42.6-41.2c0.1-0.9-0.4-2,0.9-2.5c0-1.4,0-2.8,0-4.2c-1.6-1.7-0.8-3.4,0-5.1
		c0-20.8,0-41.6,0-62.3C793.3,411,792.8,409.9,794.3,408.8z M778.4,480.5c-0.8,19.2-12.8,31.2-32,32c-12.2,0.5-24.4,0.8-36.6,0.7
		c-12.1,0.1-24.1-0.2-36.2-0.7c-19.1-0.8-31.1-12.9-31.8-32.1c-1-24.1-1-48.2,0-72.4c0.8-19.3,12.8-31.4,32.2-32.1
		c24.1-1,48.2-1,72.4,0c19.1,0.8,31.3,12.7,32,31.8C779.3,431.9,779.3,456.2,778.4,480.5z"/>
	<path d="M710,400.7c-24,0.1-43.6,19.8-43.4,43.7c0.3,23.9,19.6,43.2,43.5,43.1c23.9-0.1,43.1-19.2,43.3-43.2
		C753.6,420.3,734,400.6,710,400.7z M710.1,472c-15.6,0-27.9-12.4-27.9-28c0-15.5,12.5-27.7,28.2-27.6c15.3,0.1,27.5,12.5,27.5,28
		C737.9,459.6,725.5,472,710.1,472z"/>
	<path d="M755,388.9c-5.6,0-10.2,4.6-10.3,10.1c-0.1,5.6,4.8,10.5,10.3,10.5c5.6,0,10.4-4.9,10.2-10.6
		C765.1,393.4,760.5,388.9,755,388.9z"/>
</g>
<path d="M207.8,394.7c-0.4-2.2-0.6-4.5-2-6.3c-0.6,0.4-0.8,1-0.7,1.5c-0.1-0.5,0.1-1.1,0.7-1.5c-0.1-0.3-0.2-0.7-0.2-1
	c0.1-0.5,0.1-1-0.5-1.2c-0.1-0.3-0.3-0.7-0.4-1c-0.3-1.4-0.7-2.6-2.1-3.3c0-0.1,0-0.2-0.1-0.3c0-1.4-0.9-2.1-2-2.7l0,0
	c-2.9-4.3-6.7-7.6-11.7-9.3c-1-0.4-2.1-0.9-3.1-1.3c-2.9-1.3-5.9-1.9-9-1.9c-1.1,0-2.3,0-3.1-1c-30.5,0-60.9,0-91.4,0
	c-0.1,1-1.1,0.8-1.6,1.3c0.6,0.9,1.5,1,2.3,0.9c-0.8,0.1-1.7,0-2.3-0.9c-0.3,0.1-0.7,0.1-1,0.2c-0.4-0.1-0.8-0.1-1.1,0.3
	c-0.9,0.2-1.8,0.4-2.7,0.6c-0.8-0.1-1.4,0.1-1.8,0.8c-0.4,0.1-0.9,0.2-1.3,0.3c-0.6-0.1-1,0.2-1.3,0.7c-0.2,0-0.3,0.1-0.5,0.1
	c-2.3,0.6-4.4,1.7-5.8,3.8c-0.1,0-0.2,0-0.3,0.1c-1.1,0.1-1.7,0.8-2.1,1.7c-0.5,0.5-1,1-1.6,1.6c-0.9,0.4-1.5,1-1.7,2l0,0
	c-2.1,1.7-3.2,4-4.1,6.4c-0.4,1-0.8,2.1-1.2,3.1c-0.5,0.4-0.6,0.9-0.5,1.5c0,0.3-0.1,0.6-0.1,0.9c-0.7,0.1-1.1,0.5-1.2,1.3
	c-0.2,1.1-0.2,2.3-1.1,3.2c0,32.6,0,65.1,0,97.7c0.5,0.2,0.4,0.7,0.6,1.1c1.2,2.4,1,5.4,2.9,7.6c0.3,0.6,0.5,1.2,0.8,1.9
	c-0.1,0.3,0.1,0.6,0.4,0.7c0.2,0.5,0.5,0.9,0.7,1.4c0.6,1.7,1.1,3.5,3,4.3c0,0.2,0.1,0.3,0.2,0.4c0.1,1.3,0.8,1.9,2,2
	c0.4,0.8,1.1,1.3,1.9,1.8c1.1,1.3,2.2,2.7,4.2,2.7l0,0c2.7,3.1,6.3,4,10.1,4.9c1.1,0.3,2.5-0.1,3.2,1.1c31.3,0,62.7,0,94,0
	c0.6-0.6,1.7-0.1,2.1-0.9c-0.5-0.7-1.2-0.8-2-0.7c0.7-0.1,1.4-0.1,2,0.7c0.8-0.1,1.7-0.2,2.5-0.3c1.4,0.2,2.6,0,3.7-0.9
	c0.3-0.1,0.7-0.1,1-0.2c1.9-0.2,3.7-0.8,5.1-2.1c0.8-0.4,1.6-0.9,2.3-1.3c1.6-0.2,2.7-1,3.4-2.5c0.9-0.3,1.4-0.9,1.9-1.7
	c1.3-0.5,2.2-1.4,2.7-2.7c0.2-0.3,0.4-0.6,0.6-0.9c1.8-1,2.5-2.6,3-4.5c0.5-0.6,1-1.3,1.1-2.1c1.1-1.1,1.3-2.7,2.1-4.1
	c1.3-2.4,0.5-5.2,2-7.5c0-31.2,0-62.3,0-93.5C207.9,397,208,395.8,207.8,394.7z M183.5,478.1L183.5,478.1c-0.4-0.1-0.8,0-1,0.5
	c-0.3,0.1-0.7,0.2-1,0.3c-0.3,0.6-0.6,1.3-1.1,1.3c0.5-0.1,0.8-0.7,1.1-1.3c-0.9-0.2-1.6,0.1-2.2,0.7c-0.5,0.1-1,0.2-1.5,0.3
	c0,0.1,0,0.3-0.1,0.4c0-0.1,0.1-0.3,0.1-0.4c-2.5,0.5-5.9-0.5-6.6,3.5c-0.2,0.9-0.3,1.8-0.5,2.7l0,0c-0.4,0.2-0.5,0.6-0.5,1
	c-0.1,0.1-0.1,0.2-0.1,0.3c0,0,0,0,0,0c-0.6,0.3-1.2,0.6-1.8,0.8c-0.9-0.1-1.7-0.1-2.6-0.2l0,0c-3.9-1.2-7.8-1.5-11.6,0
	c-0.3,0.1-0.7,0.1-1,0.2l0,0c-1.7,0-2.9,1.1-4,2.3c-0.4,0.2-0.9,0.5-1.3,0.7l0,0c-1.8,0.6-3,2-4.3,3.2c-0.1,0-0.2,0-0.3,0.1v0
	c-0.7-0.1-1.1,0.2-1.3,0.8c-2,0.8-4,1.6-6,2.4c-0.1,0.1-0.1,0.3-0.2,0.5c0.1-0.2,0.1-0.3,0.2-0.5c-3.7,0.5-7.4,0.4-11,0
	c-0.3-0.1-0.7-0.1-1-0.2l0,0c-3.8-1.4-7.1-3.6-10.4-5.8c-0.4-0.2-0.7-0.4-1.1-0.6l0,0c-1.5-1.5-3.3-2.4-5.3-2.9
	c-0.3-0.1-0.7-0.1-1-0.2l0,0c-3.9-1.6-7.8-1.3-11.6,0c-0.5,0-1,0.1-1.6,0.1c0,0,0,0,0,0c-2.1,0.1-3-1.1-3.4-3
	c-0.2-0.9,0.1-2-0.9-2.5c-0.1-0.3-0.2-0.5-0.3-0.8l0,0c-1.5-2.1-3.8-1.7-5.9-2c-0.3-0.1-0.7-0.1-1-0.2l0,0c-1.9-1.3-4.4-1.3-6.4-2.7
	c-2.5-1.8-2.5-2.9,0-4.4c0.3,0,0.7-0.1,1-0.1c1,0.2,2-0.1,2.7-0.9c0.5-0.2,1-0.4,1.6-0.6l0,0c0.2-0.2,0.5-0.3,0.7-0.5
	c0.5-0.2,1-0.4,1.4-0.5c0,0,0,0,0,0c1.1-0.3,2.1-0.5,2.6-1.7c0.9-0.7,1.7-1.4,2.6-2.1l0,0c3-2.4,5.9-5,7.5-8.7l0.1-0.1l0,0
	c1.2-0.8,1.5-2,1.9-3.3c0.1-0.3,0.2-0.5,0.3-0.8c0,0,0,0,0,0c2.2-2.9,2.2-5.2,0.1-7.2c-0.1-0.1-0.1-0.2-0.3-0.2l0,0
	c-1.1-1.8-3.1-2.4-5-3c-2.2-0.7-4.5-1.4-6.3-3c-1-0.8-1.3-1.9-1-3c0.3-1.3,1.3-2,2.6-2.3c1.7-0.3,3.4,0.1,5.1,0.6
	c1.7,0.7,3.5,0.7,5.3,0.3c0.3-0.9,0.2-1.9,0.6-2.7c-0.4,0.8-0.3,1.8-0.6,2.7c2.7-0.2,1.5-2.2,1.6-3.6c0-0.5,0-1,0-1.5
	c-1-0.2-1-0.8-1-1.5c0,0.7,0,1.3,1,1.5c-0.2-4-0.3-8.1-0.5-12.1c0-0.9,0.1-1.7,0.1-2.6c0,0,0,0,0,0c0.7-0.8,0.6-1.7,0.4-2.6
	c0-0.3,0.1-0.7,0.1-1l0,0c0.5-1.5,1.1-3.1,1.6-4.6l0,0l0,0c0.7-0.5,1-1.3,1-2.1c0.1-0.1,0.2-0.2,0.1-0.3c0,0,0,0,0,0
	c0.8-0.4,1.4-0.9,1.4-1.9c0.7-1.1,1.9-1.8,2.3-3.1c0,0,0,0,0,0c1.3-1,2.9-1.8,3.7-3.4l0.1-0.1l0,0c1.3-0.3,2.3-1,3.2-2.1
	c0.1,0,0.2,0,0.3-0.1l0,0c1-0.1,1.8-0.5,2.4-1.4c0.3-0.1,0.5-0.1,0.8-0.2c0,0,0,0,0,0c2.4-0.7,5-1,7.3-2.1c4.2,0,8.4,0,12.6,0l0,0
	c1,0.7,2.1,0.9,3.2,0.8c0.3,0.1,0.7,0.1,1,0.2h0c1.5,1.3,3.5,1.4,5.2,2.1c0.2,0.1,0.5,0.2,0.7,0.3c0,0,0,0,0,0
	c0.7,1,1.7,1.7,2.9,1.9c0.2,0.1,0.4,0.3,0.5,0.4h0c0.4,0.9,1.1,1.5,2.1,1.7c0.1,0.6,0.4,0.9,1,1l0,0c0.5,0.9,0.9,1.9,2.1,2.2
	c0.1,0.2,0.2,0.3,0.4,0.5l0,0c0.2,0.2,0.3,0.4,0.5,0.6c0.1,1,0.6,1.7,1.4,2.3c1.1,0.3,1.4,1,1.5,1.8c-0.1-0.8-0.4-1.6-1.5-1.8
	c0,1.1,0.4,2.1,1.5,2.7c0.1,0.2,0.2,0.5,0.4,0.7v0c0.1,0.4,0.2,0.9,0.3,1.3c0.8,0.5,1.3,1,1.2,1.8c0.1-0.8-0.4-1.4-1.2-1.8
	c-0.1,1,0.2,1.9,0.9,2.7c0.1,0.9,0.1,1.7,0.2,2.6c0.9,0.7,1.1,1.5,0.9,2.3c0.1-0.8-0.1-1.6-0.9-2.3c-0.2,1.3-0.5,2.5,0.4,3.7
	c0,1.9,0,3.9,0,5.8c0.2,0.5,0.4,0.9,0.5,1.4c0,0.2,0.1,0.4,0.1,0.5c0-0.2-0.1-0.4-0.1-0.5c-0.1-0.5-0.3-0.9-0.5-1.4
	c-0.9,1.4-0.5,2.8-0.2,4.3c-0.1,1.5-0.1,3-0.3,4.4c-0.2,2,0.6,2.9,2.6,2.9c0.2-0.3,0.4-0.4,0.6-0.5c-0.2,0.1-0.4,0.2-0.6,0.5
	c0.5,0.6,1.1,0.6,1.6,0c0.3,0,0.7-0.1,1-0.1c1.5-1.5,2.9-2.2,4.2-2.2c-1.3,0-2.7,0.7-4.2,2.2c2.2,0.2,4.1-1.6,6.4-1.3
	c0.2,0,0.5,0,0.7,0.1c0,0,0,0,0,0c2.9,2.5,3,3.1,1.3,6.1l0,0c-2.5,0.8-4.8,2.2-7.4,3c-1,0.3-2.3,0.3-2.8,1.6
	c-0.5,0.4-0.9,0.8-1.4,1.2c-0.1,0.5-0.2,1.1-0.2,1.6c0.1-0.5,0.2-1.1,0.2-1.6c-1.5,1.1-1.9,2.5-1.1,4.2c0.1,0.3,0.1,0.7,0.2,1
	c0.7,0.3,1.1,0.7,1.2,1.3c-0.1-0.6-0.5-1-1.2-1.3c-0.2,1.1,0.4,1.8,1.2,2.4c0.6,1.1,1.2,2.3,1.8,3.4c0.2,1.2,0.9,2.2,2,2.8
	c0.6,1.2,1.6,2.2,2.6,3.1l0,0c0.7,1.5,1.7,2.6,3.3,3.1c0.4,0.7,1,1.1,1.8,1.2c0,0,0,0,0,0c0.6,0.9,1.1,1.9,2.4,1.9
	c0.3,0.2,0.6,0.4,0.9,0.6l0,0c0.3,1.3,1.4,0.9,2.3,1c0.8,0.7,1.9,0.7,2.8,0.8l0,0c0.4,0.8,1.1,0.9,1.9,0.7c0.6,0.1,1.2,0.2,1.8,0.3
	c0,0,0,0,0,0c0.4,0.6,0.7,1.2,1.1,1.8c0,0.2,0,0.4-0.1,0.7l0,0c-1,0.5-1.7,1.3-2.3,2.3C184.5,477.7,184,477.9,183.5,478.1z"/>
</svg>
